<svg xmlns="http://www.w3.org/2000/svg" xmlns:xlink="http://www.w3.org/1999/xlink" contentStyleType="text/css" data-diagram-type="CLASS" height="480px" preserveAspectRatio="none" style="width:3575px;height:480px;background:#FFFFFF;" version="1.1" viewBox="0 0 3575 480" width="3575px" zoomAndPan="magnify"><?plantuml 1.2026.4beta2?><defs/><g><!--cluster metodes_directes--><g class="cluster" data-qualified-name="metodes_directes" data-source-line="5" id="ent0002"><path d="M1281.5,14 L1421.7822,14 A3.75,3.75 0 0 1 1424.2822,16.5 L1431.2822,36.2969 L2364.5,36.2969 A2.5,2.5 0 0 1 2367,38.7969 L2367,462.5 A2.5,2.5 0 0 1 2364.5,465 L1281.5,465 A2.5,2.5 0 0 1 1279,462.5 L1279,16.5 A2.5,2.5 0 0 1 1281.5,14" fill="none" style="stroke:#000000;stroke-width:1.5;"/><line style="stroke:#000000;stroke-width:1.5;" x1="1279" x2="1431.2822" y1="36.2969" y2="36.2969"/><text fill="#000000" font-family="sans-serif" font-size="14" font-weight="700" lengthAdjust="spacing" textLength="139.2822" x="1283" y="28.9951">metodes_directes</text></g><!--cluster metodes_iteratius--><g class="cluster" data-qualified-name="metodes_iteratius" data-source-line="27" id="ent0032"><path d="M2393.5,14 L2536.8721,14 A3.75,3.75 0 0 1 2539.3721,16.5 L2546.3721,36.2969 L3557.5,36.2969 A2.5,2.5 0 0 1 3560,38.7969 L3560,370.5 A2.5,2.5 0 0 1 3557.5,373 L2393.5,373 A2.5,2.5 0 0 1 2391,370.5 L2391,16.5 A2.5,2.5 0 0 1 2393.5,14" fill="none" style="stroke:#000000;stroke-width:1.5;"/><line style="stroke:#000000;stroke-width:1.5;" x1="2391" x2="2546.3721" y1="36.2969" y2="36.2969"/><text fill="#000000" font-family="sans-serif" font-size="14" font-weight="700" lengthAdjust="spacing" textLength="142.3721" x="2395" y="28.9951">metodes_iteratius</text></g><!--cluster calcul_veps--><g class="cluster" data-qualified-name="calcul_veps" data-source-line="43" id="ent0053"><path d="M8.5,6 L99.085,6 A3.75,3.75 0 0 1 101.585,8.5 L108.585,28.2969 L1252.5,28.2969 A2.5,2.5 0 0 1 1255,30.7969 L1255,278.5 A2.5,2.5 0 0 1 1252.5,281 L8.5,281 A2.5,2.5 0 0 1 6,278.5 L6,8.5 A2.5,2.5 0 0 1 8.5,6" fill="none" style="stroke:#000000;stroke-width:1.5;"/><line style="stroke:#000000;stroke-width:1.5;" x1="6" x2="108.585" y1="28.2969" y2="28.2969"/><text fill="#000000" font-family="sans-serif" font-size="14" font-weight="700" lengthAdjust="spacing" textLength="89.585" x="10" y="20.9951">calcul_veps</text></g><!--class Factoritzacio--><g class="entity" data-qualified-name="metodes_directes.Factoritzacio" data-source-line="6" id="ent0003"><rect fill="#F1F1F1" height="32" rx="2.5" ry="2.5" style="stroke:#181818;stroke-width:0.5;" width="121.5986" x="1719.2" y="49"/><ellipse cx="1734.2" cy="65" fill="#A9DCDF" rx="11" ry="11" style="stroke:#181818;stroke-width:1;"/><path d="M1734.3094,60.3438 L1733.1531,65.4219 L1735.4813,65.4219 L1734.3094,60.3438 Z M1732.825,58.1094 L1735.8094,58.1094 L1739.1688,70.5 L1736.7156,70.5 L1735.95,67.4375 L1732.6688,67.4375 L1731.9188,70.5 L1729.4813,70.5 L1732.825,58.1094 Z " fill="#000000"/><text fill="#000000" font-family="sans-serif" font-size="14" font-style="italic" lengthAdjust="spacing" textLength="89.5986" x="1748.2" y="69.8467">Factoritzacio</text></g><!--class MetodeDirecte--><g class="entity" data-qualified-name="metodes_directes.MetodeDirecte" data-source-line="7" id="ent0004"><rect fill="#F1F1F1" height="32" rx="2.5" ry="2.5" style="stroke:#181818;stroke-width:0.5;" width="135.0859" x="1560.46" y="141"/><ellipse cx="1575.46" cy="157" fill="#A9DCDF" rx="11" ry="11" style="stroke:#181818;stroke-width:1;"/><path d="M1575.5694,152.3438 L1574.4131,157.4219 L1576.7413,157.4219 L1575.5694,152.3438 Z M1574.085,150.1094 L1577.0694,150.1094 L1580.4288,162.5 L1577.9756,162.5 L1577.21,159.4375 L1573.9288,159.4375 L1573.1788,162.5 L1570.7413,162.5 L1574.085,150.1094 Z " fill="#000000"/><text fill="#000000" font-family="sans-serif" font-size="14" font-style="italic" lengthAdjust="spacing" textLength="103.0859" x="1589.46" y="161.8467">MetodeDirecte</text></g><!--class FactoritzacioLU--><g class="entity" data-qualified-name="metodes_directes.FactoritzacioLU" data-source-line="8" id="ent0006"><rect fill="#F1F1F1" height="32" rx="2.5" ry="2.5" style="stroke:#181818;stroke-width:0.5;" width="139.6455" x="1295.18" y="233"/><ellipse cx="1310.18" cy="249" fill="#A9DCDF" rx="11" ry="11" style="stroke:#181818;stroke-width:1;"/><path d="M1310.2894,244.3438 L1309.1331,249.4219 L1311.4613,249.4219 L1310.2894,244.3438 Z M1308.805,242.1094 L1311.7894,242.1094 L1315.1488,254.5 L1312.6956,254.5 L1311.93,251.4375 L1308.6488,251.4375 L1307.8988,254.5 L1305.4613,254.5 L1308.805,242.1094 Z " fill="#000000"/><text fill="#000000" font-family="sans-serif" font-size="14" font-style="italic" lengthAdjust="spacing" textLength="107.6455" x="1324.18" y="253.8467">FactoritzacioLU</text></g><!--class FactoritzacioLUCompacta--><g class="entity" data-qualified-name="metodes_directes.FactoritzacioLUCompacta" data-source-line="9" id="ent0008"><rect fill="#F1F1F1" height="32" rx="2.5" ry="2.5" style="stroke:#181818;stroke-width:0.5;" width="210.8555" x="1294.57" y="325"/><ellipse cx="1309.57" cy="341" fill="#A9DCDF" rx="11" ry="11" style="stroke:#181818;stroke-width:1;"/><path d="M1309.6794,336.3438 L1308.5231,341.4219 L1310.8513,341.4219 L1309.6794,336.3438 Z M1308.195,334.1094 L1311.1794,334.1094 L1314.5388,346.5 L1312.0856,346.5 L1311.32,343.4375 L1308.0388,343.4375 L1307.2888,346.5 L1304.8513,346.5 L1308.195,334.1094 Z " fill="#000000"/><text fill="#000000" font-family="sans-serif" font-size="14" font-style="italic" lengthAdjust="spacing" textLength="178.8555" x="1323.57" y="345.8467">FactoritzacioLUCompacta</text></g><!--class FactoritzacioLUGaussiana--><g class="entity" data-qualified-name="metodes_directes.FactoritzacioLUGaussiana" data-source-line="10" id="ent0010"><rect fill="#F1F1F1" height="32" rx="2.5" ry="2.5" style="stroke:#181818;stroke-width:0.5;" width="212.4551" x="1540.77" y="325"/><ellipse cx="1555.77" cy="341" fill="#ADD1B2" rx="11" ry="11" style="stroke:#181818;stroke-width:1;"/><path d="M1558.7388,346.6406 Q1558.1606,346.9375 1557.52,347.0781 Q1556.8794,347.2344 1556.1763,347.2344 Q1553.6763,347.2344 1552.3481,345.5938 Q1551.0356,343.9375 1551.0356,340.8125 Q1551.0356,337.6875 1552.3481,336.0313 Q1553.6763,334.375 1556.1763,334.375 Q1556.8794,334.375 1557.52,334.5313 Q1558.1763,334.6875 1558.7388,334.9844 L1558.7388,337.7031 Q1558.1138,337.125 1557.52,336.8594 Q1556.9263,336.5781 1556.3013,336.5781 Q1554.9575,336.5781 1554.27,337.6563 Q1553.5825,338.7188 1553.5825,340.8125 Q1553.5825,342.9063 1554.27,343.9844 Q1554.9575,345.0469 1556.3013,345.0469 Q1556.9263,345.0469 1557.52,344.7813 Q1558.1138,344.5 1558.7388,343.9219 L1558.7388,346.6406 Z " fill="#000000"/><text fill="#000000" font-family="sans-serif" font-size="14" lengthAdjust="spacing" textLength="180.4551" x="1569.77" y="345.8467">FactoritzacioLUGaussiana</text></g><!--class FactoritzacioLUParcial--><g class="entity" data-qualified-name="metodes_directes.FactoritzacioLUParcial" data-source-line="12" id="ent0012"><rect fill="#F1F1F1" height="32" rx="2.5" ry="2.5" style="stroke:#181818;stroke-width:0.5;" width="186.4785" x="1546.76" y="417"/><ellipse cx="1561.76" cy="433" fill="#ADD1B2" rx="11" ry="11" style="stroke:#181818;stroke-width:1;"/><path d="M1564.7288,438.6406 Q1564.1506,438.9375 1563.51,439.0781 Q1562.8694,439.2344 1562.1663,439.2344 Q1559.6663,439.2344 1558.3381,437.5938 Q1557.0256,435.9375 1557.0256,432.8125 Q1557.0256,429.6875 1558.3381,428.0313 Q1559.6663,426.375 1562.1663,426.375 Q1562.8694,426.375 1563.51,426.5313 Q1564.1663,426.6875 1564.7288,426.9844 L1564.7288,429.7031 Q1564.1038,429.125 1563.51,428.8594 Q1562.9163,428.5781 1562.2913,428.5781 Q1560.9475,428.5781 1560.26,429.6563 Q1559.5725,430.7188 1559.5725,432.8125 Q1559.5725,434.9063 1560.26,435.9844 Q1560.9475,437.0469 1562.2913,437.0469 Q1562.9163,437.0469 1563.51,436.7813 Q1564.1038,436.5 1564.7288,435.9219 L1564.7288,438.6406 Z " fill="#000000"/><text fill="#000000" font-family="sans-serif" font-size="14" lengthAdjust="spacing" textLength="154.4785" x="1575.76" y="437.8467">FactoritzacioLUParcial</text></g><!--class FactoritzacioLUParcialEsglaonat--><g class="entity" data-qualified-name="metodes_directes.FactoritzacioLUParcialEsglaonat" data-source-line="13" id="ent0014"><rect fill="#F1F1F1" height="32" rx="2.5" ry="2.5" style="stroke:#181818;stroke-width:0.5;" width="255.4805" x="1768.26" y="417"/><ellipse cx="1783.26" cy="433" fill="#ADD1B2" rx="11" ry="11" style="stroke:#181818;stroke-width:1;"/><path d="M1786.2288,438.6406 Q1785.6506,438.9375 1785.01,439.0781 Q1784.3694,439.2344 1783.6663,439.2344 Q1781.1663,439.2344 1779.8381,437.5938 Q1778.5256,435.9375 1778.5256,432.8125 Q1778.5256,429.6875 1779.8381,428.0313 Q1781.1663,426.375 1783.6663,426.375 Q1784.3694,426.375 1785.01,426.5313 Q1785.6663,426.6875 1786.2288,426.9844 L1786.2288,429.7031 Q1785.6038,429.125 1785.01,428.8594 Q1784.4163,428.5781 1783.7913,428.5781 Q1782.4475,428.5781 1781.76,429.6563 Q1781.0725,430.7188 1781.0725,432.8125 Q1781.0725,434.9063 1781.76,435.9844 Q1782.4475,437.0469 1783.7913,437.0469 Q1784.4163,437.0469 1785.01,436.7813 Q1785.6038,436.5 1786.2288,435.9219 L1786.2288,438.6406 Z " fill="#000000"/><text fill="#000000" font-family="sans-serif" font-size="14" lengthAdjust="spacing" textLength="223.4805" x="1797.26" y="437.8467">FactoritzacioLUParcialEsglaonat</text></g><!--class Doolittle--><g class="entity" data-qualified-name="metodes_directes.Doolittle" data-source-line="15" id="ent0016"><rect fill="#F1F1F1" height="32" rx="2.5" ry="2.5" style="stroke:#181818;stroke-width:0.5;" width="91.1719" x="1308.41" y="417"/><ellipse cx="1323.41" cy="433" fill="#ADD1B2" rx="11" ry="11" style="stroke:#181818;stroke-width:1;"/><path d="M1326.3788,438.6406 Q1325.8006,438.9375 1325.16,439.0781 Q1324.5194,439.2344 1323.8163,439.2344 Q1321.3163,439.2344 1319.9881,437.5938 Q1318.6756,435.9375 1318.6756,432.8125 Q1318.6756,429.6875 1319.9881,428.0313 Q1321.3163,426.375 1323.8163,426.375 Q1324.5194,426.375 1325.16,426.5313 Q1325.8163,426.6875 1326.3788,426.9844 L1326.3788,429.7031 Q1325.7538,429.125 1325.16,428.8594 Q1324.5663,428.5781 1323.9413,428.5781 Q1322.5975,428.5781 1321.91,429.6563 Q1321.2225,430.7188 1321.2225,432.8125 Q1321.2225,434.9063 1321.91,435.9844 Q1322.5975,437.0469 1323.9413,437.0469 Q1324.5663,437.0469 1325.16,436.7813 Q1325.7538,436.5 1326.3788,435.9219 L1326.3788,438.6406 Z " fill="#000000"/><text fill="#000000" font-family="sans-serif" font-size="14" lengthAdjust="spacing" textLength="59.1719" x="1337.41" y="437.8467">Doolittle</text></g><!--class Crout--><g class="entity" data-qualified-name="metodes_directes.Crout" data-source-line="16" id="ent0018"><rect fill="#F1F1F1" height="32" rx="2.5" ry="2.5" style="stroke:#181818;stroke-width:0.5;" width="70.459" x="1434.77" y="417"/><ellipse cx="1449.77" cy="433" fill="#ADD1B2" rx="11" ry="11" style="stroke:#181818;stroke-width:1;"/><path d="M1452.7388,438.6406 Q1452.1606,438.9375 1451.52,439.0781 Q1450.8794,439.2344 1450.1763,439.2344 Q1447.6763,439.2344 1446.3481,437.5938 Q1445.0356,435.9375 1445.0356,432.8125 Q1445.0356,429.6875 1446.3481,428.0313 Q1447.6763,426.375 1450.1763,426.375 Q1450.8794,426.375 1451.52,426.5313 Q1452.1763,426.6875 1452.7388,426.9844 L1452.7388,429.7031 Q1452.1138,429.125 1451.52,428.8594 Q1450.9263,428.5781 1450.3013,428.5781 Q1448.9575,428.5781 1448.27,429.6563 Q1447.5825,430.7188 1447.5825,432.8125 Q1447.5825,434.9063 1448.27,435.9844 Q1448.9575,437.0469 1450.3013,437.0469 Q1450.9263,437.0469 1451.52,436.7813 Q1452.1138,436.5 1452.7388,435.9219 L1452.7388,438.6406 Z " fill="#000000"/><text fill="#000000" font-family="sans-serif" font-size="14" lengthAdjust="spacing" textLength="38.459" x="1463.77" y="437.8467">Crout</text></g><!--class FactoritzacioLDLT--><g class="entity" data-qualified-name="metodes_directes.FactoritzacioLDLT" data-source-line="18" id="ent0020"><rect fill="#F1F1F1" height="32" rx="2.5" ry="2.5" style="stroke:#181818;stroke-width:0.5;" width="156.5303" x="1469.73" y="233"/><ellipse cx="1484.73" cy="249" fill="#ADD1B2" rx="11" ry="11" style="stroke:#181818;stroke-width:1;"/><path d="M1487.6988,254.6406 Q1487.1206,254.9375 1486.48,255.0781 Q1485.8394,255.2344 1485.1363,255.2344 Q1482.6363,255.2344 1481.3081,253.5938 Q1479.9956,251.9375 1479.9956,248.8125 Q1479.9956,245.6875 1481.3081,244.0313 Q1482.6363,242.375 1485.1363,242.375 Q1485.8394,242.375 1486.48,242.5313 Q1487.1363,242.6875 1487.6988,242.9844 L1487.6988,245.7031 Q1487.0738,245.125 1486.48,244.8594 Q1485.8863,244.5781 1485.2613,244.5781 Q1483.9175,244.5781 1483.23,245.6563 Q1482.5425,246.7188 1482.5425,248.8125 Q1482.5425,250.9063 1483.23,251.9844 Q1483.9175,253.0469 1485.2613,253.0469 Q1485.8863,253.0469 1486.48,252.7813 Q1487.0738,252.5 1487.6988,251.9219 L1487.6988,254.6406 Z " fill="#000000"/><text fill="#000000" font-family="sans-serif" font-size="14" lengthAdjust="spacing" textLength="124.5303" x="1498.73" y="253.8467">FactoritzacioLDLT</text></g><!--class Cholesky--><g class="entity" data-qualified-name="metodes_directes.Cholesky" data-source-line="19" id="ent0022"><rect fill="#F1F1F1" height="32" rx="2.5" ry="2.5" style="stroke:#181818;stroke-width:0.5;" width="95.4033" x="1661.3" y="233"/><ellipse cx="1676.3" cy="249" fill="#ADD1B2" rx="11" ry="11" style="stroke:#181818;stroke-width:1;"/><path d="M1679.2688,254.6406 Q1678.6906,254.9375 1678.05,255.0781 Q1677.4094,255.2344 1676.7063,255.2344 Q1674.2063,255.2344 1672.8781,253.5938 Q1671.5656,251.9375 1671.5656,248.8125 Q1671.5656,245.6875 1672.8781,244.0313 Q1674.2063,242.375 1676.7063,242.375 Q1677.4094,242.375 1678.05,242.5313 Q1678.7063,242.6875 1679.2688,242.9844 L1679.2688,245.7031 Q1678.6438,245.125 1678.05,244.8594 Q1677.4563,244.5781 1676.8313,244.5781 Q1675.4875,244.5781 1674.8,245.6563 Q1674.1125,246.7188 1674.1125,248.8125 Q1674.1125,250.9063 1674.8,251.9844 Q1675.4875,253.0469 1676.8313,253.0469 Q1677.4563,253.0469 1678.05,252.7813 Q1678.6438,252.5 1679.2688,251.9219 L1679.2688,254.6406 Z " fill="#000000"/><text fill="#000000" font-family="sans-serif" font-size="14" lengthAdjust="spacing" textLength="63.4033" x="1690.3" y="253.8467">Cholesky</text></g><!--class FactoritzacioQR--><g class="entity" data-qualified-name="metodes_directes.FactoritzacioQR" data-source-line="21" id="ent0024"><rect fill="#F1F1F1" height="32" rx="2.5" ry="2.5" style="stroke:#181818;stroke-width:0.5;" width="142.3457" x="1872.83" y="141"/><ellipse cx="1887.83" cy="157" fill="#A9DCDF" rx="11" ry="11" style="stroke:#181818;stroke-width:1;"/><path d="M1887.9394,152.3438 L1886.7831,157.4219 L1889.1113,157.4219 L1887.9394,152.3438 Z M1886.455,150.1094 L1889.4394,150.1094 L1892.7988,162.5 L1890.3456,162.5 L1889.58,159.4375 L1886.2988,159.4375 L1885.5488,162.5 L1883.1113,162.5 L1886.455,150.1094 Z " fill="#000000"/><text fill="#000000" font-family="sans-serif" font-size="14" font-style="italic" lengthAdjust="spacing" textLength="110.3457" x="1901.83" y="161.8467">FactoritzacioQR</text></g><!--class Householder--><g class="entity" data-qualified-name="metodes_directes.Householder" data-source-line="22" id="ent0026"><rect fill="#F1F1F1" height="32" rx="2.5" ry="2.5" style="stroke:#181818;stroke-width:0.5;" width="120.457" x="1791.77" y="233"/><ellipse cx="1806.77" cy="249" fill="#ADD1B2" rx="11" ry="11" style="stroke:#181818;stroke-width:1;"/><path d="M1809.7388,254.6406 Q1809.1606,254.9375 1808.52,255.0781 Q1807.8794,255.2344 1807.1763,255.2344 Q1804.6763,255.2344 1803.3481,253.5938 Q1802.0356,251.9375 1802.0356,248.8125 Q1802.0356,245.6875 1803.3481,244.0313 Q1804.6763,242.375 1807.1763,242.375 Q1807.8794,242.375 1808.52,242.5313 Q1809.1763,242.6875 1809.7388,242.9844 L1809.7388,245.7031 Q1809.1138,245.125 1808.52,244.8594 Q1807.9263,244.5781 1807.3013,244.5781 Q1805.9575,244.5781 1805.27,245.6563 Q1804.5825,246.7188 1804.5825,248.8125 Q1804.5825,250.9063 1805.27,251.9844 Q1805.9575,253.0469 1807.3013,253.0469 Q1807.9263,253.0469 1808.52,252.7813 Q1809.1138,252.5 1809.7388,251.9219 L1809.7388,254.6406 Z " fill="#000000"/><text fill="#000000" font-family="sans-serif" font-size="14" lengthAdjust="spacing" textLength="88.457" x="1820.77" y="253.8467">Householder</text></g><!--class GramSchmidtClassic--><g class="entity" data-qualified-name="metodes_directes.GramSchmidtClassic" data-source-line="23" id="ent0028"><rect fill="#F1F1F1" height="32" rx="2.5" ry="2.5" style="stroke:#181818;stroke-width:0.5;" width="176.6006" x="1947.7" y="233"/><ellipse cx="1962.7" cy="249" fill="#ADD1B2" rx="11" ry="11" style="stroke:#181818;stroke-width:1;"/><path d="M1965.6688,254.6406 Q1965.0906,254.9375 1964.45,255.0781 Q1963.8094,255.2344 1963.1063,255.2344 Q1960.6063,255.2344 1959.2781,253.5938 Q1957.9656,251.9375 1957.9656,248.8125 Q1957.9656,245.6875 1959.2781,244.0313 Q1960.6063,242.375 1963.1063,242.375 Q1963.8094,242.375 1964.45,242.5313 Q1965.1063,242.6875 1965.6688,242.9844 L1965.6688,245.7031 Q1965.0438,245.125 1964.45,244.8594 Q1963.8563,244.5781 1963.2313,244.5781 Q1961.8875,244.5781 1961.2,245.6563 Q1960.5125,246.7188 1960.5125,248.8125 Q1960.5125,250.9063 1961.2,251.9844 Q1961.8875,253.0469 1963.2313,253.0469 Q1963.8563,253.0469 1964.45,252.7813 Q1965.0438,252.5 1965.6688,251.9219 L1965.6688,254.6406 Z " fill="#000000"/><text fill="#000000" font-family="sans-serif" font-size="14" lengthAdjust="spacing" textLength="144.6006" x="1976.7" y="253.8467">GramSchmidtClassic</text></g><!--class GramSchmidtModificat--><g class="entity" data-qualified-name="metodes_directes.GramSchmidtModificat" data-source-line="24" id="ent0030"><rect fill="#F1F1F1" height="32" rx="2.5" ry="2.5" style="stroke:#181818;stroke-width:0.5;" width="192.1865" x="2158.91" y="233"/><ellipse cx="2173.91" cy="249" fill="#ADD1B2" rx="11" ry="11" style="stroke:#181818;stroke-width:1;"/><path d="M2176.8788,254.6406 Q2176.3006,254.9375 2175.66,255.0781 Q2175.0194,255.2344 2174.3163,255.2344 Q2171.8163,255.2344 2170.4881,253.5938 Q2169.1756,251.9375 2169.1756,248.8125 Q2169.1756,245.6875 2170.4881,244.0313 Q2171.8163,242.375 2174.3163,242.375 Q2175.0194,242.375 2175.66,242.5313 Q2176.3163,242.6875 2176.8788,242.9844 L2176.8788,245.7031 Q2176.2538,245.125 2175.66,244.8594 Q2175.0663,244.5781 2174.4413,244.5781 Q2173.0975,244.5781 2172.41,245.6563 Q2171.7225,246.7188 2171.7225,248.8125 Q2171.7225,250.9063 2172.41,251.9844 Q2173.0975,253.0469 2174.4413,253.0469 Q2175.0663,253.0469 2175.66,252.7813 Q2176.2538,252.5 2176.8788,251.9219 L2176.8788,254.6406 Z " fill="#000000"/><text fill="#000000" font-family="sans-serif" font-size="14" lengthAdjust="spacing" textLength="160.1865" x="2187.91" y="253.8467">GramSchmidtModificat</text></g><!--class MetodeIteratiu--><g class="entity" data-qualified-name="metodes_iteratius.MetodeIteratiu" data-source-line="28" id="ent0033"><rect fill="#F1F1F1" height="32" rx="2.5" ry="2.5" style="stroke:#181818;stroke-width:0.5;" width="321.0107" x="2568.49" y="49"/><ellipse cx="2583.49" cy="65" fill="#A9DCDF" rx="11" ry="11" style="stroke:#181818;stroke-width:1;"/><path d="M2583.5994,60.3438 L2582.4431,65.4219 L2584.7713,65.4219 L2583.5994,60.3438 Z M2582.115,58.1094 L2585.0994,58.1094 L2588.4588,70.5 L2586.0056,70.5 L2585.24,67.4375 L2581.9588,67.4375 L2581.2088,70.5 L2578.7713,70.5 L2582.115,58.1094 Z " fill="#000000"/><text fill="#000000" font-family="sans-serif" font-size="14" font-style="italic" lengthAdjust="spacing" textLength="103.0654" x="2597.49" y="69.8467">MetodeIteratiu</text><rect fill="#FFFFFF" height="15.9688" style="stroke:#181818;stroke-width:1;stroke-dasharray:2,2;" width="183.9453" x="2708.5554" y="46"/><text fill="#000000" font-family="sans-serif" font-size="12" font-style="italic" lengthAdjust="spacing" textLength="181.9453" x="2709.5554" y="58.1387">T extends EstatMetodeIteratiu</text></g><!--class MetodeIteratiuDescomposicio--><g class="entity" data-qualified-name="metodes_iteratius.MetodeIteratiuDescomposicio" data-source-line="29" id="ent0034"><rect fill="#F1F1F1" height="32" rx="2.5" ry="2.5" style="stroke:#181818;stroke-width:0.5;" width="240.4414" x="2406.78" y="141"/><ellipse cx="2421.78" cy="157" fill="#A9DCDF" rx="11" ry="11" style="stroke:#181818;stroke-width:1;"/><path d="M2421.8894,152.3438 L2420.7331,157.4219 L2423.0613,157.4219 L2421.8894,152.3438 Z M2420.405,150.1094 L2423.3894,150.1094 L2426.7488,162.5 L2424.2956,162.5 L2423.53,159.4375 L2420.2488,159.4375 L2419.4988,162.5 L2417.0613,162.5 L2420.405,150.1094 Z " fill="#000000"/><text fill="#000000" font-family="sans-serif" font-size="14" font-style="italic" lengthAdjust="spacing" textLength="208.4414" x="2435.78" y="161.8467">MetodeIteratiuDescomposicio</text></g><!--class Jacobi--><g class="entity" data-qualified-name="metodes_iteratius.Jacobi" data-source-line="30" id="ent0036"><rect fill="#F1F1F1" height="32" rx="2.5" ry="2.5" style="stroke:#181818;stroke-width:0.5;" width="73.7471" x="2448.13" y="233"/><ellipse cx="2463.13" cy="249" fill="#ADD1B2" rx="11" ry="11" style="stroke:#181818;stroke-width:1;"/><path d="M2466.0988,254.6406 Q2465.5206,254.9375 2464.88,255.0781 Q2464.2394,255.2344 2463.5363,255.2344 Q2461.0363,255.2344 2459.7081,253.5938 Q2458.3956,251.9375 2458.3956,248.8125 Q2458.3956,245.6875 2459.7081,244.0313 Q2461.0363,242.375 2463.5363,242.375 Q2464.2394,242.375 2464.88,242.5313 Q2465.5363,242.6875 2466.0988,242.9844 L2466.0988,245.7031 Q2465.4738,245.125 2464.88,244.8594 Q2464.2863,244.5781 2463.6613,244.5781 Q2462.3175,244.5781 2461.63,245.6563 Q2460.9425,246.7188 2460.9425,248.8125 Q2460.9425,250.9063 2461.63,251.9844 Q2462.3175,253.0469 2463.6613,253.0469 Q2464.2863,253.0469 2464.88,252.7813 Q2465.4738,252.5 2466.0988,251.9219 L2466.0988,254.6406 Z " fill="#000000"/><text fill="#000000" font-family="sans-serif" font-size="14" lengthAdjust="spacing" textLength="41.7471" x="2477.13" y="253.8467">Jacobi</text></g><!--class SobreRelaxacioSuccessiva--><g class="entity" data-qualified-name="metodes_iteratius.SobreRelaxacioSuccessiva" data-source-line="31" id="ent0038"><rect fill="#F1F1F1" height="32" rx="2.5" ry="2.5" style="stroke:#181818;stroke-width:0.5;" width="217.6436" x="2557.18" y="233"/><ellipse cx="2572.18" cy="249" fill="#ADD1B2" rx="11" ry="11" style="stroke:#181818;stroke-width:1;"/><path d="M2575.1488,254.6406 Q2574.5706,254.9375 2573.93,255.0781 Q2573.2894,255.2344 2572.5863,255.2344 Q2570.0863,255.2344 2568.7581,253.5938 Q2567.4456,251.9375 2567.4456,248.8125 Q2567.4456,245.6875 2568.7581,244.0313 Q2570.0863,242.375 2572.5863,242.375 Q2573.2894,242.375 2573.93,242.5313 Q2574.5863,242.6875 2575.1488,242.9844 L2575.1488,245.7031 Q2574.5238,245.125 2573.93,244.8594 Q2573.3363,244.5781 2572.7113,244.5781 Q2571.3675,244.5781 2570.68,245.6563 Q2569.9925,246.7188 2569.9925,248.8125 Q2569.9925,250.9063 2570.68,251.9844 Q2571.3675,253.0469 2572.7113,253.0469 Q2573.3363,253.0469 2573.93,252.7813 Q2574.5238,252.5 2575.1488,251.9219 L2575.1488,254.6406 Z " fill="#000000"/><text fill="#000000" font-family="sans-serif" font-size="14" lengthAdjust="spacing" textLength="185.6436" x="2586.18" y="253.8467">SobreRelaxacioSuccessiva</text></g><!--class GaussSeidel--><g class="entity" data-qualified-name="metodes_iteratius.GaussSeidel" data-source-line="32" id="ent0040"><rect fill="#F1F1F1" height="32" rx="2.5" ry="2.5" style="stroke:#181818;stroke-width:0.5;" width="117.668" x="2607.17" y="325"/><ellipse cx="2622.17" cy="341" fill="#ADD1B2" rx="11" ry="11" style="stroke:#181818;stroke-width:1;"/><path d="M2625.1388,346.6406 Q2624.5606,346.9375 2623.92,347.0781 Q2623.2794,347.2344 2622.5763,347.2344 Q2620.0763,347.2344 2618.7481,345.5938 Q2617.4356,343.9375 2617.4356,340.8125 Q2617.4356,337.6875 2618.7481,336.0313 Q2620.0763,334.375 2622.5763,334.375 Q2623.2794,334.375 2623.92,334.5313 Q2624.5763,334.6875 2625.1388,334.9844 L2625.1388,337.7031 Q2624.5138,337.125 2623.92,336.8594 Q2623.3263,336.5781 2622.7013,336.5781 Q2621.3575,336.5781 2620.67,337.6563 Q2619.9825,338.7188 2619.9825,340.8125 Q2619.9825,342.9063 2620.67,343.9844 Q2621.3575,345.0469 2622.7013,345.0469 Q2623.3263,345.0469 2623.92,344.7813 Q2624.5138,344.5 2625.1388,343.9219 L2625.1388,346.6406 Z " fill="#000000"/><text fill="#000000" font-family="sans-serif" font-size="14" lengthAdjust="spacing" textLength="85.668" x="2636.17" y="345.8467">GaussSeidel</text></g><!--class Gradient--><g class="entity" data-qualified-name="metodes_iteratius.Gradient" data-source-line="34" id="ent0042"><rect fill="#F1F1F1" height="32" rx="2.5" ry="2.5" style="stroke:#181818;stroke-width:0.5;" width="92.9355" x="2682.53" y="141"/><ellipse cx="2697.53" cy="157" fill="#ADD1B2" rx="11" ry="11" style="stroke:#181818;stroke-width:1;"/><path d="M2700.4988,162.6406 Q2699.9206,162.9375 2699.28,163.0781 Q2698.6394,163.2344 2697.9363,163.2344 Q2695.4363,163.2344 2694.1081,161.5938 Q2692.7956,159.9375 2692.7956,156.8125 Q2692.7956,153.6875 2694.1081,152.0313 Q2695.4363,150.375 2697.9363,150.375 Q2698.6394,150.375 2699.28,150.5313 Q2699.9363,150.6875 2700.4988,150.9844 L2700.4988,153.7031 Q2699.8738,153.125 2699.28,152.8594 Q2698.6863,152.5781 2698.0613,152.5781 Q2696.7175,152.5781 2696.03,153.6563 Q2695.3425,154.7188 2695.3425,156.8125 Q2695.3425,158.9063 2696.03,159.9844 Q2696.7175,161.0469 2698.0613,161.0469 Q2698.6863,161.0469 2699.28,160.7813 Q2699.8738,160.5 2700.4988,159.9219 L2700.4988,162.6406 Z " fill="#000000"/><text fill="#000000" font-family="sans-serif" font-size="14" lengthAdjust="spacing" textLength="60.9355" x="2711.53" y="161.8467">Gradient</text></g><!--class GradientConjugat--><g class="entity" data-qualified-name="metodes_iteratius.GradientConjugat" data-source-line="35" id="ent0044"><rect fill="#F1F1F1" height="32" rx="2.5" ry="2.5" style="stroke:#181818;stroke-width:0.5;" width="155.8672" x="2810.07" y="141"/><ellipse cx="2825.07" cy="157" fill="#ADD1B2" rx="11" ry="11" style="stroke:#181818;stroke-width:1;"/><path d="M2828.0388,162.6406 Q2827.4606,162.9375 2826.82,163.0781 Q2826.1794,163.2344 2825.4763,163.2344 Q2822.9763,163.2344 2821.6481,161.5938 Q2820.3356,159.9375 2820.3356,156.8125 Q2820.3356,153.6875 2821.6481,152.0313 Q2822.9763,150.375 2825.4763,150.375 Q2826.1794,150.375 2826.82,150.5313 Q2827.4763,150.6875 2828.0388,150.9844 L2828.0388,153.7031 Q2827.4138,153.125 2826.82,152.8594 Q2826.2263,152.5781 2825.6013,152.5781 Q2824.2575,152.5781 2823.57,153.6563 Q2822.8825,154.7188 2822.8825,156.8125 Q2822.8825,158.9063 2823.57,159.9844 Q2824.2575,161.0469 2825.6013,161.0469 Q2826.2263,161.0469 2826.82,160.7813 Q2827.4138,160.5 2828.0388,159.9219 L2828.0388,162.6406 Z " fill="#000000"/><text fill="#000000" font-family="sans-serif" font-size="14" lengthAdjust="spacing" textLength="123.8672" x="2839.07" y="161.8467">GradientConjugat</text></g><!--class EstatMetodeIteratiu--><g class="entity" data-qualified-name="metodes_iteratius.EstatMetodeIteratiu" data-source-line="37" id="ent0046"><rect fill="#F1F1F1" height="32" rx="2.5" ry="2.5" style="stroke:#181818;stroke-width:0.5;" width="170.7627" x="3197.62" y="49"/><ellipse cx="3212.62" cy="65" fill="#ADD1B2" rx="11" ry="11" style="stroke:#181818;stroke-width:1;"/><path d="M3215.5888,70.6406 Q3215.0106,70.9375 3214.37,71.0781 Q3213.7294,71.2344 3213.0263,71.2344 Q3210.5263,71.2344 3209.1981,69.5938 Q3207.8856,67.9375 3207.8856,64.8125 Q3207.8856,61.6875 3209.1981,60.0313 Q3210.5263,58.375 3213.0263,58.375 Q3213.7294,58.375 3214.37,58.5313 Q3215.0263,58.6875 3215.5888,58.9844 L3215.5888,61.7031 Q3214.9638,61.125 3214.37,60.8594 Q3213.7763,60.5781 3213.1513,60.5781 Q3211.8075,60.5781 3211.12,61.6563 Q3210.4325,62.7188 3210.4325,64.8125 Q3210.4325,66.9063 3211.12,67.9844 Q3211.8075,69.0469 3213.1513,69.0469 Q3213.7763,69.0469 3214.37,68.7813 Q3214.9638,68.5 3215.5888,67.9219 L3215.5888,70.6406 Z " fill="#000000"/><text fill="#000000" font-family="sans-serif" font-size="14" lengthAdjust="spacing" textLength="138.7627" x="3226.62" y="69.8467">EstatMetodeIteratiu</text></g><!--class EstatMetodeIteratiuDescomposicio--><g class="entity" data-qualified-name="metodes_iteratius.EstatMetodeIteratiuDescomposicio" data-source-line="38" id="ent0047"><rect fill="#F1F1F1" height="32" rx="2.5" ry="2.5" style="stroke:#181818;stroke-width:0.5;" width="276.1387" x="3000.93" y="141"/><ellipse cx="3015.93" cy="157" fill="#ADD1B2" rx="11" ry="11" style="stroke:#181818;stroke-width:1;"/><path d="M3018.8988,162.6406 Q3018.3206,162.9375 3017.68,163.0781 Q3017.0394,163.2344 3016.3363,163.2344 Q3013.8363,163.2344 3012.5081,161.5938 Q3011.1956,159.9375 3011.1956,156.8125 Q3011.1956,153.6875 3012.5081,152.0313 Q3013.8363,150.375 3016.3363,150.375 Q3017.0394,150.375 3017.68,150.5313 Q3018.3363,150.6875 3018.8988,150.9844 L3018.8988,153.7031 Q3018.2738,153.125 3017.68,152.8594 Q3017.0863,152.5781 3016.4613,152.5781 Q3015.1175,152.5781 3014.43,153.6563 Q3013.7425,154.7188 3013.7425,156.8125 Q3013.7425,158.9063 3014.43,159.9844 Q3015.1175,161.0469 3016.4613,161.0469 Q3017.0863,161.0469 3017.68,160.7813 Q3018.2738,160.5 3018.8988,159.9219 L3018.8988,162.6406 Z " fill="#000000"/><text fill="#000000" font-family="sans-serif" font-size="14" lengthAdjust="spacing" textLength="244.1387" x="3029.93" y="161.8467">EstatMetodeIteratiuDescomposicio</text></g><!--class EstatMetodeIteratiuGradient--><g class="entity" data-qualified-name="metodes_iteratius.EstatMetodeIteratiuGradient" data-source-line="39" id="ent0049"><rect fill="#F1F1F1" height="32" rx="2.5" ry="2.5" style="stroke:#181818;stroke-width:0.5;" width="231.6982" x="3312.15" y="141"/><ellipse cx="3327.15" cy="157" fill="#ADD1B2" rx="11" ry="11" style="stroke:#181818;stroke-width:1;"/><path d="M3330.1188,162.6406 Q3329.5406,162.9375 3328.9,163.0781 Q3328.2594,163.2344 3327.5563,163.2344 Q3325.0563,163.2344 3323.7281,161.5938 Q3322.4156,159.9375 3322.4156,156.8125 Q3322.4156,153.6875 3323.7281,152.0313 Q3325.0563,150.375 3327.5563,150.375 Q3328.2594,150.375 3328.9,150.5313 Q3329.5563,150.6875 3330.1188,150.9844 L3330.1188,153.7031 Q3329.4938,153.125 3328.9,152.8594 Q3328.3063,152.5781 3327.6813,152.5781 Q3326.3375,152.5781 3325.65,153.6563 Q3324.9625,154.7188 3324.9625,156.8125 Q3324.9625,158.9063 3325.65,159.9844 Q3326.3375,161.0469 3327.6813,161.0469 Q3328.3063,161.0469 3328.9,160.7813 Q3329.4938,160.5 3330.1188,159.9219 L3330.1188,162.6406 Z " fill="#000000"/><text fill="#000000" font-family="sans-serif" font-size="14" lengthAdjust="spacing" textLength="199.6982" x="3341.15" y="161.8467">EstatMetodeIteratiuGradient</text></g><!--class EstatMetodeIteratiuGradientConjugat--><g class="entity" data-qualified-name="metodes_iteratius.EstatMetodeIteratiuGradientConjugat" data-source-line="40" id="ent0051"><rect fill="#F1F1F1" height="32" rx="2.5" ry="2.5" style="stroke:#181818;stroke-width:0.5;" width="294.6299" x="3249.69" y="233"/><ellipse cx="3264.69" cy="249" fill="#ADD1B2" rx="11" ry="11" style="stroke:#181818;stroke-width:1;"/><path d="M3267.6588,254.6406 Q3267.0806,254.9375 3266.44,255.0781 Q3265.7994,255.2344 3265.0963,255.2344 Q3262.5963,255.2344 3261.2681,253.5938 Q3259.9556,251.9375 3259.9556,248.8125 Q3259.9556,245.6875 3261.2681,244.0313 Q3262.5963,242.375 3265.0963,242.375 Q3265.7994,242.375 3266.44,242.5313 Q3267.0963,242.6875 3267.6588,242.9844 L3267.6588,245.7031 Q3267.0338,245.125 3266.44,244.8594 Q3265.8463,244.5781 3265.2213,244.5781 Q3263.8775,244.5781 3263.19,245.6563 Q3262.5025,246.7188 3262.5025,248.8125 Q3262.5025,250.9063 3263.19,251.9844 Q3263.8775,253.0469 3265.2213,253.0469 Q3265.8463,253.0469 3266.44,252.7813 Q3267.0338,252.5 3267.6588,251.9219 L3267.6588,254.6406 Z " fill="#000000"/><text fill="#000000" font-family="sans-serif" font-size="14" lengthAdjust="spacing" textLength="262.6299" x="3278.69" y="253.8467">EstatMetodeIteratiuGradientConjugat</text></g><!--class ResultatMetodePotencia--><g class="entity" data-qualified-name="calcul_veps.ResultatMetodePotencia" data-source-line="45" id="ent0054"><rect fill="#F1F1F1" height="32" rx="2.5" ry="2.5" style="stroke:#181818;stroke-width:0.5;" width="202.3516" x="29.82" y="49"/><ellipse cx="44.82" cy="65" fill="#7E57C2" rx="11" ry="11" style="stroke:#181818;stroke-width:1;"/><path d="M44.4138,60.8125 L44.4138,68.7969 L45.07,68.7969 Q46.5075,68.7969 47.1169,67.8906 Q47.7419,66.9688 47.7419,64.7969 Q47.7419,62.625 47.1169,61.7188 Q46.5075,60.8125 45.07,60.8125 L44.4138,60.8125 Z M41.9606,58.6094 L44.5856,58.6094 Q47.6169,58.6094 48.945,60.0625 Q50.2888,61.5 50.2888,64.7969 Q50.2888,68.0938 48.945,69.5469 Q47.6169,71 44.5856,71 L41.9606,71 L41.9606,58.6094 Z " fill="#000000"/><text fill="#000000" font-family="sans-serif" font-size="14" lengthAdjust="spacing" textLength="170.3516" x="58.82" y="69.8467">ResultatMetodePotencia</text></g><!--class ResultatMetodePotenciaInversa--><g class="entity" data-qualified-name="calcul_veps.ResultatMetodePotenciaInversa" data-source-line="46" id="ent0055"><rect fill="#F1F1F1" height="32" rx="2.5" ry="2.5" style="stroke:#181818;stroke-width:0.5;" width="253.8809" x="267.06" y="49"/><ellipse cx="282.06" cy="65" fill="#7E57C2" rx="11" ry="11" style="stroke:#181818;stroke-width:1;"/><path d="M281.6538,60.8125 L281.6538,68.7969 L282.31,68.7969 Q283.7475,68.7969 284.3569,67.8906 Q284.9819,66.9688 284.9819,64.7969 Q284.9819,62.625 284.3569,61.7188 Q283.7475,60.8125 282.31,60.8125 L281.6538,60.8125 Z M279.2006,58.6094 L281.8256,58.6094 Q284.8569,58.6094 286.185,60.0625 Q287.5288,61.5 287.5288,64.7969 Q287.5288,68.0938 286.185,69.5469 Q284.8569,71 281.8256,71 L279.2006,71 L279.2006,58.6094 Z " fill="#000000"/><text fill="#000000" font-family="sans-serif" font-size="14" lengthAdjust="spacing" textLength="221.8809" x="296.06" y="69.8467">ResultatMetodePotenciaInversa</text></g><!--class ResultatMetodePotenciaInversaDesplacada--><g class="entity" data-qualified-name="calcul_veps.ResultatMetodePotenciaInversaDesplacada" data-source-line="47" id="ent0056"><rect fill="#F1F1F1" height="32" rx="2.5" ry="2.5" style="stroke:#181818;stroke-width:0.5;" width="335.666" x="30.17" y="141"/><ellipse cx="45.17" cy="157" fill="#7E57C2" rx="11" ry="11" style="stroke:#181818;stroke-width:1;"/><path d="M44.7638,152.8125 L44.7638,160.7969 L45.42,160.7969 Q46.8575,160.7969 47.4669,159.8906 Q48.0919,158.9688 48.0919,156.7969 Q48.0919,154.625 47.4669,153.7188 Q46.8575,152.8125 45.42,152.8125 L44.7638,152.8125 Z M42.3106,150.6094 L44.9356,150.6094 Q47.9669,150.6094 49.295,152.0625 Q50.6388,153.5 50.6388,156.7969 Q50.6388,160.0938 49.295,161.5469 Q47.9669,163 44.9356,163 L42.3106,163 L42.3106,150.6094 Z " fill="#000000"/><text fill="#000000" font-family="sans-serif" font-size="14" lengthAdjust="spacing" textLength="303.666" x="59.17" y="161.8467">ResultatMetodePotenciaInversaDesplacada</text></g><!--class EstatMetodePotencia--><g class="entity" data-qualified-name="calcul_veps.EstatMetodePotencia" data-source-line="49" id="ent0057"><rect fill="#F1F1F1" height="32" rx="2.5" ry="2.5" style="stroke:#181818;stroke-width:0.5;" width="180.0938" x="555.95" y="49"/><ellipse cx="570.95" cy="65" fill="#ADD1B2" rx="11" ry="11" style="stroke:#181818;stroke-width:1;"/><path d="M573.9188,70.6406 Q573.3406,70.9375 572.7,71.0781 Q572.0594,71.2344 571.3563,71.2344 Q568.8563,71.2344 567.5281,69.5938 Q566.2156,67.9375 566.2156,64.8125 Q566.2156,61.6875 567.5281,60.0313 Q568.8563,58.375 571.3563,58.375 Q572.0594,58.375 572.7,58.5313 Q573.3563,58.6875 573.9188,58.9844 L573.9188,61.7031 Q573.2938,61.125 572.7,60.8594 Q572.1063,60.5781 571.4813,60.5781 Q570.1375,60.5781 569.45,61.6563 Q568.7625,62.7188 568.7625,64.8125 Q568.7625,66.9063 569.45,67.9844 Q570.1375,69.0469 571.4813,69.0469 Q572.1063,69.0469 572.7,68.7813 Q573.2938,68.5 573.9188,67.9219 L573.9188,70.6406 Z " fill="#000000"/><text fill="#000000" font-family="sans-serif" font-size="14" lengthAdjust="spacing" textLength="148.0938" x="584.95" y="69.8467">EstatMetodePotencia</text></g><!--class EstatMetodePotenciaInversa--><g class="entity" data-qualified-name="calcul_veps.EstatMetodePotenciaInversa" data-source-line="51" id="ent0058"><rect fill="#F1F1F1" height="32" rx="2.5" ry="2.5" style="stroke:#181818;stroke-width:0.5;" width="231.623" x="537.19" y="141"/><ellipse cx="552.19" cy="157" fill="#ADD1B2" rx="11" ry="11" style="stroke:#181818;stroke-width:1;"/><path d="M555.1588,162.6406 Q554.5806,162.9375 553.94,163.0781 Q553.2994,163.2344 552.5963,163.2344 Q550.0963,163.2344 548.7681,161.5938 Q547.4556,159.9375 547.4556,156.8125 Q547.4556,153.6875 548.7681,152.0313 Q550.0963,150.375 552.5963,150.375 Q553.2994,150.375 553.94,150.5313 Q554.5963,150.6875 555.1588,150.9844 L555.1588,153.7031 Q554.5338,153.125 553.94,152.8594 Q553.3463,152.5781 552.7213,152.5781 Q551.3775,152.5781 550.69,153.6563 Q550.0025,154.7188 550.0025,156.8125 Q550.0025,158.9063 550.69,159.9844 Q551.3775,161.0469 552.7213,161.0469 Q553.3463,161.0469 553.94,160.7813 Q554.5338,160.5 555.1588,159.9219 L555.1588,162.6406 Z " fill="#000000"/><text fill="#000000" font-family="sans-serif" font-size="14" lengthAdjust="spacing" textLength="199.623" x="566.19" y="161.8467">EstatMetodePotenciaInversa</text></g><!--class MetodePotenciaBase--><g class="entity" data-qualified-name="calcul_veps.MetodePotenciaBase" data-source-line="53" id="ent0060"><rect fill="#F1F1F1" height="32" rx="2.5" ry="2.5" style="stroke:#181818;stroke-width:0.5;" width="467.6631" x="771.17" y="49"/><ellipse cx="786.17" cy="65" fill="#A9DCDF" rx="11" ry="11" style="stroke:#181818;stroke-width:1;"/><path d="M786.2794,60.3438 L785.1231,65.4219 L787.4513,65.4219 L786.2794,60.3438 Z M784.795,58.1094 L787.7794,58.1094 L791.1388,70.5 L788.6856,70.5 L787.92,67.4375 L784.6388,67.4375 L783.8888,70.5 L781.4513,70.5 L784.795,58.1094 Z " fill="#000000"/><text fill="#000000" font-family="sans-serif" font-size="14" font-style="italic" lengthAdjust="spacing" textLength="146.4873" x="800.17" y="69.8467">MetodePotenciaBase</text><rect fill="#FFFFFF" height="15.9688" style="stroke:#181818;stroke-width:1;stroke-dasharray:2,2;" width="287.1758" x="954.6573" y="46"/><text fill="#000000" font-family="sans-serif" font-size="12" font-style="italic" lengthAdjust="spacing" textLength="285.1758" x="955.6573" y="58.1387">TEstat extends EstatMetodePotencia, TResultat</text></g><!--class MetodePotencia--><g class="entity" data-qualified-name="calcul_veps.MetodePotencia" data-source-line="55" id="ent0061"><rect fill="#F1F1F1" height="32" rx="2.5" ry="2.5" style="stroke:#181818;stroke-width:0.5;" width="144.3965" x="812.8" y="141"/><ellipse cx="827.8" cy="157" fill="#ADD1B2" rx="11" ry="11" style="stroke:#181818;stroke-width:1;"/><path d="M830.7688,162.6406 Q830.1906,162.9375 829.55,163.0781 Q828.9094,163.2344 828.2063,163.2344 Q825.7063,163.2344 824.3781,161.5938 Q823.0656,159.9375 823.0656,156.8125 Q823.0656,153.6875 824.3781,152.0313 Q825.7063,150.375 828.2063,150.375 Q828.9094,150.375 829.55,150.5313 Q830.2063,150.6875 830.7688,150.9844 L830.7688,153.7031 Q830.1438,153.125 829.55,152.8594 Q828.9563,152.5781 828.3313,152.5781 Q826.9875,152.5781 826.3,153.6563 Q825.6125,154.7188 825.6125,156.8125 Q825.6125,158.9063 826.3,159.9844 Q826.9875,161.0469 828.3313,161.0469 Q828.9563,161.0469 829.55,160.7813 Q830.1438,160.5 830.7688,159.9219 L830.7688,162.6406 Z " fill="#000000"/><text fill="#000000" font-family="sans-serif" font-size="14" lengthAdjust="spacing" textLength="112.3965" x="841.8" y="161.8467">MetodePotencia</text></g><!--class MetodePotenciaInversa--><g class="entity" data-qualified-name="calcul_veps.MetodePotenciaInversa" data-source-line="57" id="ent0063"><rect fill="#F1F1F1" height="32" rx="2.5" ry="2.5" style="stroke:#181818;stroke-width:0.5;" width="195.9258" x="997.04" y="141"/><ellipse cx="1012.04" cy="157" fill="#ADD1B2" rx="11" ry="11" style="stroke:#181818;stroke-width:1;"/><path d="M1015.0088,162.6406 Q1014.4306,162.9375 1013.79,163.0781 Q1013.1494,163.2344 1012.4463,163.2344 Q1009.9463,163.2344 1008.6181,161.5938 Q1007.3056,159.9375 1007.3056,156.8125 Q1007.3056,153.6875 1008.6181,152.0313 Q1009.9463,150.375 1012.4463,150.375 Q1013.1494,150.375 1013.79,150.5313 Q1014.4463,150.6875 1015.0088,150.9844 L1015.0088,153.7031 Q1014.3838,153.125 1013.79,152.8594 Q1013.1963,152.5781 1012.5713,152.5781 Q1011.2275,152.5781 1010.54,153.6563 Q1009.8525,154.7188 1009.8525,156.8125 Q1009.8525,158.9063 1010.54,159.9844 Q1011.2275,161.0469 1012.5713,161.0469 Q1013.1963,161.0469 1013.79,160.7813 Q1014.3838,160.5 1015.0088,159.9219 L1015.0088,162.6406 Z " fill="#000000"/><text fill="#000000" font-family="sans-serif" font-size="14" lengthAdjust="spacing" textLength="163.9258" x="1026.04" y="161.8467">MetodePotenciaInversa</text></g><!--class MetodePotenciaDesplacada--><g class="entity" data-qualified-name="calcul_veps.MetodePotenciaDesplacada" data-source-line="59" id="ent0065"><rect fill="#F1F1F1" height="32" rx="2.5" ry="2.5" style="stroke:#181818;stroke-width:0.5;" width="226.1816" x="696.91" y="233"/><ellipse cx="711.91" cy="249" fill="#ADD1B2" rx="11" ry="11" style="stroke:#181818;stroke-width:1;"/><path d="M714.8788,254.6406 Q714.3006,254.9375 713.66,255.0781 Q713.0194,255.2344 712.3163,255.2344 Q709.8163,255.2344 708.4881,253.5938 Q707.1756,251.9375 707.1756,248.8125 Q707.1756,245.6875 708.4881,244.0313 Q709.8163,242.375 712.3163,242.375 Q713.0194,242.375 713.66,242.5313 Q714.3163,242.6875 714.8788,242.9844 L714.8788,245.7031 Q714.2538,245.125 713.66,244.8594 Q713.0663,244.5781 712.4413,244.5781 Q711.0975,244.5781 710.41,245.6563 Q709.7225,246.7188 709.7225,248.8125 Q709.7225,250.9063 710.41,251.9844 Q711.0975,253.0469 712.4413,253.0469 Q713.0663,253.0469 713.66,252.7813 Q714.2538,252.5 714.8788,251.9219 L714.8788,254.6406 Z " fill="#000000"/><text fill="#000000" font-family="sans-serif" font-size="14" lengthAdjust="spacing" textLength="194.1816" x="725.91" y="253.8467">MetodePotenciaDesplacada</text></g><!--class MetodePotenciaInversaDesplacada--><g class="entity" data-qualified-name="calcul_veps.MetodePotenciaInversaDesplacada" data-source-line="61" id="ent0067"><rect fill="#F1F1F1" height="32" rx="2.5" ry="2.5" style="stroke:#181818;stroke-width:0.5;" width="277.7109" x="958.14" y="233"/><ellipse cx="973.14" cy="249" fill="#ADD1B2" rx="11" ry="11" style="stroke:#181818;stroke-width:1;"/><path d="M976.1088,254.6406 Q975.5306,254.9375 974.89,255.0781 Q974.2494,255.2344 973.5463,255.2344 Q971.0463,255.2344 969.7181,253.5938 Q968.4056,251.9375 968.4056,248.8125 Q968.4056,245.6875 969.7181,244.0313 Q971.0463,242.375 973.5463,242.375 Q974.2494,242.375 974.89,242.5313 Q975.5463,242.6875 976.1088,242.9844 L976.1088,245.7031 Q975.4838,245.125 974.89,244.8594 Q974.2963,244.5781 973.6713,244.5781 Q972.3275,244.5781 971.64,245.6563 Q970.9525,246.7188 970.9525,248.8125 Q970.9525,250.9063 971.64,251.9844 Q972.3275,253.0469 973.6713,253.0469 Q974.2963,253.0469 974.89,252.7813 Q975.4838,252.5 976.1088,251.9219 L976.1088,254.6406 Z " fill="#000000"/><text fill="#000000" font-family="sans-serif" font-size="14" lengthAdjust="spacing" textLength="245.7109" x="987.14" y="253.8467">MetodePotenciaInversaDesplacada</text></g><!--reverse link Factoritzacio to MetodeDirecte--><g class="link" data-entity-1="ent0003" data-entity-2="ent0004" data-link-type="extension" data-source-line="7" id="lnk5"><path d="M1738.3821,90.6419 C1710.4521,107.1819 1681.93,124.06 1654.04,140.58" fill="none" id="Factoritzacio-backto-MetodeDirecte" style="stroke:#181818;stroke-width:1;"/><polygon fill="none" points="1753.87,81.47,1735.3248,85.4792,1741.4393,95.8045,1753.87,81.47" style="stroke:#181818;stroke-width:1;"/></g><!--reverse link MetodeDirecte to FactoritzacioLU--><g class="link" data-entity-1="ent0004" data-entity-2="ent0006" data-link-type="extension" data-source-line="8" id="lnk7"><path d="M1565.7601,179.2994 C1517.4401,195.8394 1458.32,216.06 1410.06,232.58" fill="none" id="MetodeDirecte-backto-FactoritzacioLU" style="stroke:#181818;stroke-width:1;"/><polygon fill="none" points="1582.79,173.47,1563.8169,173.6227,1567.7032,184.976,1582.79,173.47" style="stroke:#181818;stroke-width:1;"/></g><!--reverse link FactoritzacioLU to FactoritzacioLUCompacta--><g class="link" data-entity-1="ent0006" data-entity-2="ent0008" data-link-type="extension" data-source-line="9" id="lnk9"><path d="M1377.4587,282.0482 C1383.8887,298.5982 1387.59,308.08 1394.03,324.66" fill="none" id="FactoritzacioLU-backto-FactoritzacioLUCompacta" style="stroke:#181818;stroke-width:1;"/><polygon fill="none" points="1370.94,265.27,1371.8659,284.2211,1383.0514,279.8753,1370.94,265.27" style="stroke:#181818;stroke-width:1;"/></g><!--reverse link FactoritzacioLU to FactoritzacioLUGaussiana--><g class="link" data-entity-1="ent0006" data-entity-2="ent0010" data-link-type="extension" data-source-line="10" id="lnk11"><path d="M1412.1705,273.0587 C1428.5705,280.8187 1432.95,282.29 1452,289 C1492.6,303.3 1539.2,315.63 1576.66,324.58" fill="none" id="FactoritzacioLU-backto-FactoritzacioLUGaussiana" style="stroke:#181818;stroke-width:1;"/><polygon fill="none" points="1395.9,265.36,1409.6043,278.4822,1414.7368,267.6352,1395.9,265.36" style="stroke:#181818;stroke-width:1;"/></g><!--reverse link FactoritzacioLUGaussiana to FactoritzacioLUParcial--><g class="link" data-entity-1="ent0010" data-entity-2="ent0012" data-link-type="extension" data-source-line="12" id="lnk13"><path d="M1644.422,375.2164 C1643.142,391.7664 1642.48,400.08 1641.19,416.66" fill="none" id="FactoritzacioLUGaussiana-backto-FactoritzacioLUParcial" style="stroke:#181818;stroke-width:1;"/><polygon fill="none" points="1645.81,357.27,1638.4399,374.7537,1650.4041,375.6791,1645.81,357.27" style="stroke:#181818;stroke-width:1;"/></g><!--reverse link FactoritzacioLUGaussiana to FactoritzacioLUParcialEsglaonat--><g class="link" data-entity-1="ent0010" data-entity-2="ent0014" data-link-type="extension" data-source-line="13" id="lnk15"><path d="M1706.7277,363.5899 C1752.4777,380.1299 1807.65,400.06 1853.34,416.58" fill="none" id="FactoritzacioLUGaussiana-backto-FactoritzacioLUParcialEsglaonat" style="stroke:#181818;stroke-width:1;"/><polygon fill="none" points="1689.8,357.47,1704.6877,369.2324,1708.7677,357.9473,1689.8,357.47" style="stroke:#181818;stroke-width:1;"/></g><!--reverse link FactoritzacioLUCompacta to Doolittle--><g class="link" data-entity-1="ent0008" data-entity-2="ent0016" data-link-type="extension" data-source-line="15" id="lnk17"><path d="M1384.0071,373.2974 C1375.5471,389.8474 1370.32,400.08 1361.84,416.66" fill="none" id="FactoritzacioLUCompacta-backto-Doolittle" style="stroke:#181818;stroke-width:1;"/><polygon fill="none" points="1392.2,357.27,1378.6647,370.5664,1389.3496,376.0283,1392.2,357.27" style="stroke:#181818;stroke-width:1;"/></g><!--reverse link FactoritzacioLUCompacta to Crout--><g class="link" data-entity-1="ent0008" data-entity-2="ent0018" data-link-type="extension" data-source-line="16" id="lnk19"><path d="M1422.9251,371.4751 C1435.8051,388.0251 1445.17,400.08 1458.07,416.66" fill="none" id="FactoritzacioLUCompacta-backto-Crout" style="stroke:#181818;stroke-width:1;"/><polygon fill="none" points="1411.87,357.27,1418.1901,375.1601,1427.6601,367.7901,1411.87,357.27" style="stroke:#181818;stroke-width:1;"/></g><!--reverse link MetodeDirecte to FactoritzacioLDLT--><g class="link" data-entity-1="ent0004" data-entity-2="ent0020" data-link-type="extension" data-source-line="18" id="lnk21"><path d="M1602.472,186.7238 C1587.762,203.2738 1576.37,216.08 1561.64,232.66" fill="none" id="MetodeDirecte-backto-FactoritzacioLDLT" style="stroke:#181818;stroke-width:1;"/><polygon fill="none" points="1614.43,173.27,1597.9874,182.7378,1606.9566,190.7098,1614.43,173.27" style="stroke:#181818;stroke-width:1;"/></g><!--reverse link MetodeDirecte to Cholesky--><g class="link" data-entity-1="ent0004" data-entity-2="ent0022" data-link-type="extension" data-source-line="19" id="lnk23"><path d="M1653.7836,186.6473 C1668.6836,203.1973 1680.27,216.08 1695.19,232.66" fill="none" id="MetodeDirecte-backto-Cholesky" style="stroke:#181818;stroke-width:1;"/><polygon fill="none" points="1641.74,173.27,1649.3245,190.6618,1658.2427,182.6328,1641.74,173.27" style="stroke:#181818;stroke-width:1;"/></g><!--reverse link Factoritzacio to FactoritzacioQR--><g class="link" data-entity-1="ent0003" data-entity-2="ent0024" data-link-type="extension" data-source-line="21" id="lnk25"><path d="M1823.9688,90.1319 C1854.0988,106.6719 1885.81,124.06 1915.9,140.58" fill="none" id="Factoritzacio-backto-FactoritzacioQR" style="stroke:#181818;stroke-width:1;"/><polygon fill="none" points="1808.19,81.47,1821.0816,95.3915,1826.8561,84.8723,1808.19,81.47" style="stroke:#181818;stroke-width:1;"/></g><!--reverse link FactoritzacioQR to Householder--><g class="link" data-entity-1="ent0024" data-entity-2="ent0026" data-link-type="extension" data-source-line="22" id="lnk27"><path d="M1915.5259,185.8603 C1898.6159,202.4103 1884.63,216.08 1867.68,232.66" fill="none" id="FactoritzacioQR-backto-Householder" style="stroke:#181818;stroke-width:1;"/><polygon fill="none" points="1928.39,173.27,1911.3291,181.5722,1919.7226,190.1483,1928.39,173.27" style="stroke:#181818;stroke-width:1;"/></g><!--reverse link FactoritzacioQR to GramSchmidtClassic--><g class="link" data-entity-1="ent0024" data-entity-2="ent0028" data-link-type="extension" data-source-line="23" id="lnk29"><path d="M1972.4741,185.8603 C1989.3841,202.4103 2003.37,216.08 2020.32,232.66" fill="none" id="FactoritzacioQR-backto-GramSchmidtClassic" style="stroke:#181818;stroke-width:1;"/><polygon fill="none" points="1959.61,173.27,1968.2774,190.1483,1976.6709,181.5722,1959.61,173.27" style="stroke:#181818;stroke-width:1;"/></g><!--reverse link FactoritzacioQR to GramSchmidtModificat--><g class="link" data-entity-1="ent0024" data-entity-2="ent0030" data-link-type="extension" data-source-line="24" id="lnk31"><path d="M2014.7505,178.4738 C2071.8005,194.9838 2144.37,215.99 2201.45,232.5" fill="none" id="FactoritzacioQR-backto-GramSchmidtModificat" style="stroke:#181818;stroke-width:1;"/><polygon fill="none" points="1997.46,173.47,2013.0826,184.2373,2016.4185,172.7103,1997.46,173.47" style="stroke:#181818;stroke-width:1;"/></g><!--reverse link MetodeIteratiu to MetodeIteratiuDescomposicio--><g class="link" data-entity-1="ent0033" data-entity-2="ent0034" data-link-type="extension" data-source-line="29" id="lnk35"><path d="M2677.8291,88.7978 C2640.7191,105.3378 2598.68,124.06 2561.61,140.58" fill="none" id="MetodeIteratiu-backto-MetodeIteratiuDescomposicio" style="stroke:#181818;stroke-width:1;"/><polygon fill="none" points="2694.27,81.47,2675.3865,83.3174,2680.2717,94.2781,2694.27,81.47" style="stroke:#181818;stroke-width:1;"/></g><!--reverse link MetodeIteratiuDescomposicio to Jacobi--><g class="link" data-entity-1="ent0034" data-entity-2="ent0036" data-link-type="extension" data-source-line="30" id="lnk37"><path d="M2512.2627,189.5788 C2504.5327,206.1288 2499.9,216.08 2492.16,232.66" fill="none" id="MetodeIteratiuDescomposicio-backto-Jacobi" style="stroke:#181818;stroke-width:1;"/><polygon fill="none" points="2519.88,173.27,2506.8264,187.0397,2517.6989,192.1179,2519.88,173.27" style="stroke:#181818;stroke-width:1;"/></g><!--reverse link MetodeIteratiuDescomposicio to SobreRelaxacioSuccessiva--><g class="link" data-entity-1="ent0034" data-entity-2="ent0038" data-link-type="extension" data-source-line="31" id="lnk39"><path d="M2565.9989,183.2537 C2591.6189,199.8437 2616.92,216.22 2642.42,232.73" fill="none" id="MetodeIteratiuDescomposicio-backto-SobreRelaxacioSuccessiva" style="stroke:#181818;stroke-width:1;"/><polygon fill="none" points="2550.89,173.47,2562.7377,188.29,2569.2602,178.2173,2550.89,173.47" style="stroke:#181818;stroke-width:1;"/></g><!--reverse link SobreRelaxacioSuccessiva to GaussSeidel--><g class="link" data-entity-1="ent0038" data-entity-2="ent0040" data-link-type="extension" data-source-line="32" id="lnk41"><path d="M2666,283.27 C2666,299.82 2666,308.08 2666,324.66" fill="none" id="SobreRelaxacioSuccessiva-backto-GaussSeidel" style="stroke:#181818;stroke-width:1;"/><polygon fill="none" points="2666,265.27,2660,283.27,2672,283.27,2666,265.27" style="stroke:#181818;stroke-width:1;"/></g><!--reverse link MetodeIteratiu to Gradient--><g class="link" data-entity-1="ent0033" data-entity-2="ent0042" data-link-type="extension" data-source-line="34" id="lnk43"><path d="M2729,99.27 C2729,115.82 2729,124.08 2729,140.66" fill="none" id="MetodeIteratiu-backto-Gradient" style="stroke:#181818;stroke-width:1;"/><polygon fill="none" points="2729,81.27,2723,99.27,2735,99.27,2729,81.27" style="stroke:#181818;stroke-width:1;"/></g><!--reverse link MetodeIteratiu to GradientConjugat--><g class="link" data-entity-1="ent0033" data-entity-2="ent0044" data-link-type="extension" data-source-line="35" id="lnk45"><path d="M2771.9932,90.3392 C2801.2032,106.8792 2831.58,124.06 2860.76,140.58" fill="none" id="MetodeIteratiu-backto-GradientConjugat" style="stroke:#181818;stroke-width:1;"/><polygon fill="none" points="2756.33,81.47,2769.0368,95.5603,2774.9496,85.1181,2756.33,81.47" style="stroke:#181818;stroke-width:1;"/></g><!--reverse link EstatMetodeIteratiu to EstatMetodeIteratiuDescomposicio--><g class="link" data-entity-1="ent0046" data-entity-2="ent0047" data-link-type="extension" data-source-line="38" id="lnk48"><path d="M3242.9867,91.011 C3216.4467,107.601 3189.84,124.22 3163.43,140.73" fill="none" id="EstatMetodeIteratiu-backto-EstatMetodeIteratiuDescomposicio" style="stroke:#181818;stroke-width:1;"/><polygon fill="none" points="3258.25,81.47,3239.8063,85.9232,3246.167,96.0988,3258.25,81.47" style="stroke:#181818;stroke-width:1;"/></g><!--reverse link EstatMetodeIteratiu to EstatMetodeIteratiuGradient--><g class="link" data-entity-1="ent0046" data-entity-2="ent0049" data-link-type="extension" data-source-line="39" id="lnk50"><path d="M3323.2222,90.9647 C3349.9422,107.5547 3376.8,124.22 3403.4,140.73" fill="none" id="EstatMetodeIteratiu-backto-EstatMetodeIteratiuGradient" style="stroke:#181818;stroke-width:1;"/><polygon fill="none" points="3307.93,81.47,3320.0573,96.0621,3326.3871,85.8673,3307.93,81.47" style="stroke:#181818;stroke-width:1;"/></g><!--reverse link EstatMetodeIteratiuGradient to EstatMetodeIteratiuGradientConjugat--><g class="link" data-entity-1="ent0049" data-entity-2="ent0051" data-link-type="extension" data-source-line="40" id="lnk52"><path d="M3416.8785,190.2889 C3411.1785,206.8389 3408,216.08 3402.28,232.66" fill="none" id="EstatMetodeIteratiuGradient-backto-EstatMetodeIteratiuGradientConjugat" style="stroke:#181818;stroke-width:1;"/><polygon fill="none" points="3422.74,173.27,3411.2055,188.3351,3422.5515,192.2427,3422.74,173.27" style="stroke:#181818;stroke-width:1;"/></g><!--reverse link EstatMetodePotencia to EstatMetodePotenciaInversa--><g class="link" data-entity-1="ent0057" data-entity-2="ent0058" data-link-type="extension" data-source-line="51" id="lnk59"><path d="M648.578,99.2164 C649.858,115.7664 650.52,124.08 651.81,140.66" fill="none" id="EstatMetodePotencia-backto-EstatMetodePotenciaInversa" style="stroke:#181818;stroke-width:1;"/><polygon fill="none" points="647.19,81.27,642.5959,99.6791,654.5601,98.7537,647.19,81.27" style="stroke:#181818;stroke-width:1;"/></g><!--reverse link MetodePotenciaBase to MetodePotencia--><g class="link" data-entity-1="ent0060" data-entity-2="ent0061" data-link-type="extension" data-source-line="55" id="lnk62"><path d="M969.9723,92.2731 C947.8623,108.8631 927.37,124.22 905.36,140.73" fill="none" id="MetodePotenciaBase-backto-MetodePotencia" style="stroke:#181818;stroke-width:1;"/><polygon fill="none" points="984.37,81.47,966.3713,87.4739,973.5734,97.0723,984.37,81.47" style="stroke:#181818;stroke-width:1;"/></g><!--reverse link MetodePotenciaBase to MetodePotenciaInversa--><g class="link" data-entity-1="ent0060" data-entity-2="ent0063" data-link-type="extension" data-source-line="57" id="lnk64"><path d="M1032.9979,93.9979 C1049.5479,110.5479 1063.08,124.08 1079.66,140.66" fill="none" id="MetodePotenciaBase-backto-MetodePotenciaInversa" style="stroke:#181818;stroke-width:1;"/><polygon fill="none" points="1020.27,81.27,1028.7553,98.2406,1037.2406,89.7553,1020.27,81.27" style="stroke:#181818;stroke-width:1;"/></g><!--reverse link MetodePotencia to MetodePotenciaDesplacada--><g class="link" data-entity-1="ent0061" data-entity-2="ent0065" data-link-type="extension" data-source-line="59" id="lnk66"><path d="M860.7575,187.0987 C846.9675,203.6487 836.6,216.08 822.79,232.66" fill="none" id="MetodePotencia-backto-MetodePotenciaDesplacada" style="stroke:#181818;stroke-width:1;"/><polygon fill="none" points="872.28,173.27,856.1479,183.2578,865.3671,190.9395,872.28,173.27" style="stroke:#181818;stroke-width:1;"/></g><!--reverse link MetodePotenciaInversa to MetodePotenciaInversaDesplacada--><g class="link" data-entity-1="ent0063" data-entity-2="ent0067" data-link-type="extension" data-source-line="61" id="lnk68"><path d="M1095.7423,191.2655 C1096.1123,207.8155 1096.29,216.08 1096.66,232.66" fill="none" id="MetodePotenciaInversa-backto-MetodePotenciaInversaDesplacada" style="stroke:#181818;stroke-width:1;"/><polygon fill="none" points="1095.34,173.27,1089.7438,191.3996,1101.7408,191.1314,1095.34,173.27" style="stroke:#181818;stroke-width:1;"/></g><?plantuml-src dPL1Szem48Nl_XM-zTAMUoUJGo5Dqo4p2P1pPf6sM8dizKWh9cc7_rvXOx29PEFw1FPxtsgVjFQdZBcqtoQJKaF1BjTV1UKJeS7QBrB1na2U99cIc69UydkQOxv6OvEaW1nj2GBzBIQ9zbagWuBHfd-Jr5-mjcn0S5h1qX_-9nd5Vq0e2WdkAyoiXgJunbZ82smTmVpfQEpWBZ1EAVVTC8GhpvygHD1v2yvQ1KNS6lS-W14ATCnvH0yIRkn60nN0mwWMQqQa5RF6cAj9fUMP6d8yg8ykU3PVzUpHeKH66kthUqGuk9kFYvxpK-j_ahFeoqWqOUtZegM-zMEm55ck94_tDvGOPxedgNuh4TiTRzk59aen6c3b8YDLft9t45sTShsn3DnzUZqCcA7rir-IxqxHMVIDfjNUBn2qLX5TXzKoBMbjS84QtlPzBvqGwDFSmaXCTPYNw5zBfz69ePFkbaY51GztroYdLBou3KGTBKiWzVwduS17OpuqzT-43ytsQBidLe0MJZzliMpEAjC6EVFJLV_TNn8OwZKiq3fzH3-Gh-PVOXSBxugj_mQDrlky_LTEWAoTkt0enzNqFpumGr5r2S6PQoJVmUBLglBsaJwdgwQpw_QwkggpCzgk4JUTzp76UmeqOXyiEqXejZf9Tly0?></g></svg>