<svg xmlns="http://www.w3.org/2000/svg" xmlns:xlink="http://www.w3.org/1999/xlink" contentStyleType="text/css" data-diagram-type="CLASS" height="502px" preserveAspectRatio="none" style="width:1271px;height:502px;background:#FFFFFF;" version="1.1" viewBox="0 0 1271 502" width="1271px" zoomAndPan="magnify"><?plantuml 1.2026.3beta6?><defs/><g><!--class Factoritzacio--><g class="entity" data-qualified-name="Factoritzacio" data-source-line="4" id="ent0002"><rect fill="#F1F1F1" height="48" rx="2.5" ry="2.5" style="stroke:#181818;stroke-width:0.5;" width="121.5986" x="592.79" y="7"/><ellipse cx="607.79" cy="23" fill="#A9DCDF" rx="11" ry="11" style="stroke:#181818;stroke-width:1;"/><path d="M607.8994,18.3438 L606.7431,23.4219 L609.0713,23.4219 L607.8994,18.3438 Z M606.415,16.1094 L609.3994,16.1094 L612.7588,28.5 L610.3056,28.5 L609.54,25.4375 L606.2588,25.4375 L605.5088,28.5 L603.0713,28.5 L606.415,16.1094 Z " fill="#000000"/><text fill="#000000" font-family="sans-serif" font-size="14" font-style="italic" lengthAdjust="spacing" textLength="89.5986" x="621.79" y="27.8467">Factoritzacio</text><line style="stroke:#181818;stroke-width:0.5;" x1="593.79" x2="713.3886" y1="39" y2="39"/><line style="stroke:#181818;stroke-width:0.5;" x1="593.79" x2="713.3886" y1="47" y2="47"/></g><!--class MetodeDirecte--><g class="entity" data-qualified-name="MetodeDirecte" data-source-line="5" id="ent0003"><rect fill="#F1F1F1" height="48" rx="2.5" ry="2.5" style="stroke:#181818;stroke-width:0.5;" width="135.0859" x="499.04" y="115"/><ellipse cx="514.04" cy="131" fill="#A9DCDF" rx="11" ry="11" style="stroke:#181818;stroke-width:1;"/><path d="M514.1494,126.3438 L512.9931,131.4219 L515.3213,131.4219 L514.1494,126.3438 Z M512.665,124.1094 L515.6494,124.1094 L519.0088,136.5 L516.5556,136.5 L515.79,133.4375 L512.5088,133.4375 L511.7587,136.5 L509.3212,136.5 L512.665,124.1094 Z " fill="#000000"/><text fill="#000000" font-family="sans-serif" font-size="14" font-style="italic" lengthAdjust="spacing" textLength="103.0859" x="528.04" y="135.8467">MetodeDirecte</text><line style="stroke:#181818;stroke-width:0.5;" x1="500.04" x2="633.1259" y1="147" y2="147"/><line style="stroke:#181818;stroke-width:0.5;" x1="500.04" x2="633.1259" y1="155" y2="155"/></g><!--class FactoritzacioLU--><g class="entity" data-qualified-name="FactoritzacioLU" data-source-line="6" id="ent0005"><rect fill="#F1F1F1" height="48" rx="2.5" ry="2.5" style="stroke:#181818;stroke-width:0.5;" width="139.6455" x="200.76" y="223"/><ellipse cx="215.76" cy="239" fill="#A9DCDF" rx="11" ry="11" style="stroke:#181818;stroke-width:1;"/><path d="M215.8694,234.3438 L214.7131,239.4219 L217.0413,239.4219 L215.8694,234.3438 Z M214.385,232.1094 L217.3694,232.1094 L220.7288,244.5 L218.2756,244.5 L217.51,241.4375 L214.2288,241.4375 L213.4788,244.5 L211.0413,244.5 L214.385,232.1094 Z " fill="#000000"/><text fill="#000000" font-family="sans-serif" font-size="14" font-style="italic" lengthAdjust="spacing" textLength="107.6455" x="229.76" y="243.8467">FactoritzacioLU</text><line style="stroke:#181818;stroke-width:0.5;" x1="201.76" x2="339.4055" y1="255" y2="255"/><line style="stroke:#181818;stroke-width:0.5;" x1="201.76" x2="339.4055" y1="263" y2="263"/></g><!--class FactoritzacioLUCompacta--><g class="entity" data-qualified-name="FactoritzacioLUCompacta" data-source-line="7" id="ent0007"><rect fill="#F1F1F1" height="48" rx="2.5" ry="2.5" style="stroke:#181818;stroke-width:0.5;" width="210.8555" x="42.16" y="331"/><ellipse cx="57.16" cy="347" fill="#A9DCDF" rx="11" ry="11" style="stroke:#181818;stroke-width:1;"/><path d="M57.2694,342.3438 L56.1131,347.4219 L58.4413,347.4219 L57.2694,342.3438 Z M55.785,340.1094 L58.7694,340.1094 L62.1288,352.5 L59.6756,352.5 L58.91,349.4375 L55.6288,349.4375 L54.8788,352.5 L52.4413,352.5 L55.785,340.1094 Z " fill="#000000"/><text fill="#000000" font-family="sans-serif" font-size="14" font-style="italic" lengthAdjust="spacing" textLength="178.8555" x="71.16" y="351.8467">FactoritzacioLUCompacta</text><line style="stroke:#181818;stroke-width:0.5;" x1="43.16" x2="252.0155" y1="363" y2="363"/><line style="stroke:#181818;stroke-width:0.5;" x1="43.16" x2="252.0155" y1="371" y2="371"/></g><!--class FactoritzacioLUGaussiana--><g class="entity" data-qualified-name="FactoritzacioLUGaussiana" data-source-line="8" id="ent0009"><rect fill="#F1F1F1" height="48" rx="2.5" ry="2.5" style="stroke:#181818;stroke-width:0.5;" width="212.4551" x="288.36" y="331"/><ellipse cx="303.36" cy="347" fill="#ADD1B2" rx="11" ry="11" style="stroke:#181818;stroke-width:1;"/><path d="M306.3288,352.6406 Q305.7506,352.9375 305.11,353.0781 Q304.4694,353.2344 303.7663,353.2344 Q301.2663,353.2344 299.9381,351.5938 Q298.6256,349.9375 298.6256,346.8125 Q298.6256,343.6875 299.9381,342.0313 Q301.2663,340.375 303.7663,340.375 Q304.4694,340.375 305.11,340.5313 Q305.7663,340.6875 306.3288,340.9844 L306.3288,343.7031 Q305.7038,343.125 305.11,342.8594 Q304.5163,342.5781 303.8913,342.5781 Q302.5475,342.5781 301.86,343.6563 Q301.1725,344.7188 301.1725,346.8125 Q301.1725,348.9063 301.86,349.9844 Q302.5475,351.0469 303.8913,351.0469 Q304.5163,351.0469 305.11,350.7813 Q305.7038,350.5 306.3288,349.9219 L306.3288,352.6406 Z " fill="#000000"/><text fill="#000000" font-family="sans-serif" font-size="14" lengthAdjust="spacing" textLength="180.4551" x="317.36" y="351.8467">FactoritzacioLUGaussiana</text><line style="stroke:#181818;stroke-width:0.5;" x1="289.36" x2="499.8151" y1="363" y2="363"/><line style="stroke:#181818;stroke-width:0.5;" x1="289.36" x2="499.8151" y1="371" y2="371"/></g><!--class FactoritzacioLUParcial--><g class="entity" data-qualified-name="FactoritzacioLUParcial" data-source-line="10" id="ent0011"><rect fill="#F1F1F1" height="48" rx="2.5" ry="2.5" style="stroke:#181818;stroke-width:0.5;" width="186.4785" x="280.35" y="439"/><ellipse cx="295.35" cy="455" fill="#ADD1B2" rx="11" ry="11" style="stroke:#181818;stroke-width:1;"/><path d="M298.3188,460.6406 Q297.7406,460.9375 297.1,461.0781 Q296.4594,461.2344 295.7563,461.2344 Q293.2563,461.2344 291.9281,459.5938 Q290.6156,457.9375 290.6156,454.8125 Q290.6156,451.6875 291.9281,450.0313 Q293.2563,448.375 295.7563,448.375 Q296.4594,448.375 297.1,448.5313 Q297.7563,448.6875 298.3188,448.9844 L298.3188,451.7031 Q297.6938,451.125 297.1,450.8594 Q296.5063,450.5781 295.8813,450.5781 Q294.5375,450.5781 293.85,451.6563 Q293.1625,452.7188 293.1625,454.8125 Q293.1625,456.9063 293.85,457.9844 Q294.5375,459.0469 295.8813,459.0469 Q296.5063,459.0469 297.1,458.7813 Q297.6938,458.5 298.3188,457.9219 L298.3188,460.6406 Z " fill="#000000"/><text fill="#000000" font-family="sans-serif" font-size="14" lengthAdjust="spacing" textLength="154.4785" x="309.35" y="459.8467">FactoritzacioLUParcial</text><line style="stroke:#181818;stroke-width:0.5;" x1="281.35" x2="465.8285" y1="471" y2="471"/><line style="stroke:#181818;stroke-width:0.5;" x1="281.35" x2="465.8285" y1="479" y2="479"/></g><!--class FactoritzacioLUParcialEsglaonat--><g class="entity" data-qualified-name="FactoritzacioLUParcialEsglaonat" data-source-line="11" id="ent0013"><rect fill="#F1F1F1" height="48" rx="2.5" ry="2.5" style="stroke:#181818;stroke-width:0.5;" width="255.4805" x="501.85" y="439"/><ellipse cx="516.85" cy="455" fill="#ADD1B2" rx="11" ry="11" style="stroke:#181818;stroke-width:1;"/><path d="M519.8188,460.6406 Q519.2406,460.9375 518.6,461.0781 Q517.9594,461.2344 517.2563,461.2344 Q514.7563,461.2344 513.4281,459.5938 Q512.1156,457.9375 512.1156,454.8125 Q512.1156,451.6875 513.4281,450.0313 Q514.7563,448.375 517.2563,448.375 Q517.9594,448.375 518.6,448.5313 Q519.2563,448.6875 519.8188,448.9844 L519.8188,451.7031 Q519.1938,451.125 518.6,450.8594 Q518.0063,450.5781 517.3813,450.5781 Q516.0375,450.5781 515.35,451.6563 Q514.6625,452.7188 514.6625,454.8125 Q514.6625,456.9063 515.35,457.9844 Q516.0375,459.0469 517.3813,459.0469 Q518.0063,459.0469 518.6,458.7813 Q519.1938,458.5 519.8188,457.9219 L519.8188,460.6406 Z " fill="#000000"/><text fill="#000000" font-family="sans-serif" font-size="14" lengthAdjust="spacing" textLength="223.4805" x="530.85" y="459.8467">FactoritzacioLUParcialEsglaonat</text><line style="stroke:#181818;stroke-width:0.5;" x1="502.85" x2="756.3305" y1="471" y2="471"/><line style="stroke:#181818;stroke-width:0.5;" x1="502.85" x2="756.3305" y1="479" y2="479"/></g><!--class Doolittle--><g class="entity" data-qualified-name="Doolittle" data-source-line="12" id="ent0015"><rect fill="#F1F1F1" height="48" rx="2.5" ry="2.5" style="stroke:#181818;stroke-width:0.5;" width="91.1719" x="7" y="439"/><ellipse cx="22" cy="455" fill="#ADD1B2" rx="11" ry="11" style="stroke:#181818;stroke-width:1;"/><path d="M24.9688,460.6406 Q24.3906,460.9375 23.75,461.0781 Q23.1094,461.2344 22.4063,461.2344 Q19.9063,461.2344 18.5781,459.5938 Q17.2656,457.9375 17.2656,454.8125 Q17.2656,451.6875 18.5781,450.0313 Q19.9063,448.375 22.4063,448.375 Q23.1094,448.375 23.75,448.5313 Q24.4063,448.6875 24.9688,448.9844 L24.9688,451.7031 Q24.3438,451.125 23.75,450.8594 Q23.1563,450.5781 22.5313,450.5781 Q21.1875,450.5781 20.5,451.6563 Q19.8125,452.7188 19.8125,454.8125 Q19.8125,456.9063 20.5,457.9844 Q21.1875,459.0469 22.5313,459.0469 Q23.1563,459.0469 23.75,458.7813 Q24.3438,458.5 24.9688,457.9219 L24.9688,460.6406 Z " fill="#000000"/><text fill="#000000" font-family="sans-serif" font-size="14" lengthAdjust="spacing" textLength="59.1719" x="36" y="459.8467">Doolittle</text><line style="stroke:#181818;stroke-width:0.5;" x1="8" x2="97.1719" y1="471" y2="471"/><line style="stroke:#181818;stroke-width:0.5;" x1="8" x2="97.1719" y1="479" y2="479"/></g><!--class Crout--><g class="entity" data-qualified-name="Crout" data-source-line="13" id="ent0017"><rect fill="#F1F1F1" height="48" rx="2.5" ry="2.5" style="stroke:#181818;stroke-width:0.5;" width="70.459" x="133.36" y="439"/><ellipse cx="148.36" cy="455" fill="#ADD1B2" rx="11" ry="11" style="stroke:#181818;stroke-width:1;"/><path d="M151.3288,460.6406 Q150.7506,460.9375 150.11,461.0781 Q149.4694,461.2344 148.7663,461.2344 Q146.2663,461.2344 144.9381,459.5938 Q143.6256,457.9375 143.6256,454.8125 Q143.6256,451.6875 144.9381,450.0313 Q146.2663,448.375 148.7663,448.375 Q149.4694,448.375 150.11,448.5313 Q150.7663,448.6875 151.3288,448.9844 L151.3288,451.7031 Q150.7038,451.125 150.11,450.8594 Q149.5163,450.5781 148.8913,450.5781 Q147.5475,450.5781 146.86,451.6563 Q146.1725,452.7188 146.1725,454.8125 Q146.1725,456.9063 146.86,457.9844 Q147.5475,459.0469 148.8913,459.0469 Q149.5163,459.0469 150.11,458.7813 Q150.7038,458.5 151.3288,457.9219 L151.3288,460.6406 Z " fill="#000000"/><text fill="#000000" font-family="sans-serif" font-size="14" lengthAdjust="spacing" textLength="38.459" x="162.36" y="459.8467">Crout</text><line style="stroke:#181818;stroke-width:0.5;" x1="134.36" x2="202.819" y1="471" y2="471"/><line style="stroke:#181818;stroke-width:0.5;" x1="134.36" x2="202.819" y1="479" y2="479"/></g><!--class FactoritzacioLDLT--><g class="entity" data-qualified-name="FactoritzacioLDLT" data-source-line="15" id="ent0019"><rect fill="#F1F1F1" height="48" rx="2.5" ry="2.5" style="stroke:#181818;stroke-width:0.5;" width="156.5303" x="375.32" y="223"/><ellipse cx="390.32" cy="239" fill="#ADD1B2" rx="11" ry="11" style="stroke:#181818;stroke-width:1;"/><path d="M393.2888,244.6406 Q392.7106,244.9375 392.07,245.0781 Q391.4294,245.2344 390.7263,245.2344 Q388.2263,245.2344 386.8981,243.5938 Q385.5856,241.9375 385.5856,238.8125 Q385.5856,235.6875 386.8981,234.0313 Q388.2263,232.375 390.7263,232.375 Q391.4294,232.375 392.07,232.5313 Q392.7263,232.6875 393.2888,232.9844 L393.2888,235.7031 Q392.6638,235.125 392.07,234.8594 Q391.4763,234.5781 390.8513,234.5781 Q389.5075,234.5781 388.82,235.6563 Q388.1325,236.7188 388.1325,238.8125 Q388.1325,240.9063 388.82,241.9844 Q389.5075,243.0469 390.8513,243.0469 Q391.4763,243.0469 392.07,242.7813 Q392.6638,242.5 393.2888,241.9219 L393.2888,244.6406 Z " fill="#000000"/><text fill="#000000" font-family="sans-serif" font-size="14" lengthAdjust="spacing" textLength="124.5303" x="404.32" y="243.8467">FactoritzacioLDLT</text><line style="stroke:#181818;stroke-width:0.5;" x1="376.32" x2="530.8503" y1="255" y2="255"/><line style="stroke:#181818;stroke-width:0.5;" x1="376.32" x2="530.8503" y1="263" y2="263"/></g><!--class Cholesky--><g class="entity" data-qualified-name="Cholesky" data-source-line="16" id="ent0021"><rect fill="#F1F1F1" height="48" rx="2.5" ry="2.5" style="stroke:#181818;stroke-width:0.5;" width="95.4033" x="566.88" y="223"/><ellipse cx="581.88" cy="239" fill="#ADD1B2" rx="11" ry="11" style="stroke:#181818;stroke-width:1;"/><path d="M584.8488,244.6406 Q584.2706,244.9375 583.63,245.0781 Q582.9894,245.2344 582.2863,245.2344 Q579.7863,245.2344 578.4581,243.5938 Q577.1456,241.9375 577.1456,238.8125 Q577.1456,235.6875 578.4581,234.0313 Q579.7863,232.375 582.2863,232.375 Q582.9894,232.375 583.63,232.5313 Q584.2863,232.6875 584.8488,232.9844 L584.8488,235.7031 Q584.2238,235.125 583.63,234.8594 Q583.0363,234.5781 582.4113,234.5781 Q581.0675,234.5781 580.38,235.6563 Q579.6925,236.7188 579.6925,238.8125 Q579.6925,240.9063 580.38,241.9844 Q581.0675,243.0469 582.4113,243.0469 Q583.0363,243.0469 583.63,242.7813 Q584.2238,242.5 584.8488,241.9219 L584.8488,244.6406 Z " fill="#000000"/><text fill="#000000" font-family="sans-serif" font-size="14" lengthAdjust="spacing" textLength="63.4033" x="595.88" y="243.8467">Cholesky</text><line style="stroke:#181818;stroke-width:0.5;" x1="567.88" x2="661.2833" y1="255" y2="255"/><line style="stroke:#181818;stroke-width:0.5;" x1="567.88" x2="661.2833" y1="263" y2="263"/></g><!--class FactoritzacioQR--><g class="entity" data-qualified-name="FactoritzacioQR" data-source-line="18" id="ent0023"><rect fill="#F1F1F1" height="48" rx="2.5" ry="2.5" style="stroke:#181818;stroke-width:0.5;" width="142.3457" x="734.41" y="115"/><ellipse cx="749.41" cy="131" fill="#ADD1B2" rx="11" ry="11" style="stroke:#181818;stroke-width:1;"/><path d="M752.3788,136.6406 Q751.8006,136.9375 751.16,137.0781 Q750.5194,137.2344 749.8163,137.2344 Q747.3163,137.2344 745.9881,135.5938 Q744.6756,133.9375 744.6756,130.8125 Q744.6756,127.6875 745.9881,126.0313 Q747.3163,124.375 749.8163,124.375 Q750.5194,124.375 751.16,124.5313 Q751.8163,124.6875 752.3788,124.9844 L752.3788,127.7031 Q751.7538,127.125 751.16,126.8594 Q750.5663,126.5781 749.9413,126.5781 Q748.5975,126.5781 747.91,127.6563 Q747.2225,128.7188 747.2225,130.8125 Q747.2225,132.9063 747.91,133.9844 Q748.5975,135.0469 749.9413,135.0469 Q750.5663,135.0469 751.16,134.7813 Q751.7538,134.5 752.3788,133.9219 L752.3788,136.6406 Z " fill="#000000"/><text fill="#000000" font-family="sans-serif" font-size="14" lengthAdjust="spacing" textLength="110.3457" x="763.41" y="135.8467">FactoritzacioQR</text><line style="stroke:#181818;stroke-width:0.5;" x1="735.41" x2="875.7557" y1="147" y2="147"/><line style="stroke:#181818;stroke-width:0.5;" x1="735.41" x2="875.7557" y1="155" y2="155"/></g><!--class Householder--><g class="entity" data-qualified-name="Householder" data-source-line="19" id="ent0025"><rect fill="#F1F1F1" height="48" rx="2.5" ry="2.5" style="stroke:#181818;stroke-width:0.5;" width="120.457" x="697.36" y="223"/><ellipse cx="712.36" cy="239" fill="#ADD1B2" rx="11" ry="11" style="stroke:#181818;stroke-width:1;"/><path d="M715.3288,244.6406 Q714.7506,244.9375 714.11,245.0781 Q713.4694,245.2344 712.7663,245.2344 Q710.2663,245.2344 708.9381,243.5938 Q707.6256,241.9375 707.6256,238.8125 Q707.6256,235.6875 708.9381,234.0313 Q710.2663,232.375 712.7663,232.375 Q713.4694,232.375 714.11,232.5313 Q714.7663,232.6875 715.3288,232.9844 L715.3288,235.7031 Q714.7038,235.125 714.11,234.8594 Q713.5163,234.5781 712.8913,234.5781 Q711.5475,234.5781 710.86,235.6563 Q710.1725,236.7188 710.1725,238.8125 Q710.1725,240.9063 710.86,241.9844 Q711.5475,243.0469 712.8913,243.0469 Q713.5163,243.0469 714.11,242.7813 Q714.7038,242.5 715.3288,241.9219 L715.3288,244.6406 Z " fill="#000000"/><text fill="#000000" font-family="sans-serif" font-size="14" lengthAdjust="spacing" textLength="88.457" x="726.36" y="243.8467">Householder</text><line style="stroke:#181818;stroke-width:0.5;" x1="698.36" x2="816.817" y1="255" y2="255"/><line style="stroke:#181818;stroke-width:0.5;" x1="698.36" x2="816.817" y1="263" y2="263"/></g><!--class GramSchmidtClassic--><g class="entity" data-qualified-name="GramSchmidtClassic" data-source-line="20" id="ent0027"><rect fill="#F1F1F1" height="48" rx="2.5" ry="2.5" style="stroke:#181818;stroke-width:0.5;" width="176.6006" x="853.29" y="223"/><ellipse cx="868.29" cy="239" fill="#ADD1B2" rx="11" ry="11" style="stroke:#181818;stroke-width:1;"/><path d="M871.2588,244.6406 Q870.6806,244.9375 870.04,245.0781 Q869.3994,245.2344 868.6963,245.2344 Q866.1963,245.2344 864.8681,243.5938 Q863.5556,241.9375 863.5556,238.8125 Q863.5556,235.6875 864.8681,234.0313 Q866.1963,232.375 868.6963,232.375 Q869.3994,232.375 870.04,232.5313 Q870.6963,232.6875 871.2588,232.9844 L871.2588,235.7031 Q870.6338,235.125 870.04,234.8594 Q869.4463,234.5781 868.8213,234.5781 Q867.4775,234.5781 866.79,235.6563 Q866.1025,236.7188 866.1025,238.8125 Q866.1025,240.9063 866.79,241.9844 Q867.4775,243.0469 868.8213,243.0469 Q869.4463,243.0469 870.04,242.7813 Q870.6338,242.5 871.2588,241.9219 L871.2588,244.6406 Z " fill="#000000"/><text fill="#000000" font-family="sans-serif" font-size="14" lengthAdjust="spacing" textLength="144.6006" x="882.29" y="243.8467">GramSchmidtClassic</text><line style="stroke:#181818;stroke-width:0.5;" x1="854.29" x2="1028.8906" y1="255" y2="255"/><line style="stroke:#181818;stroke-width:0.5;" x1="854.29" x2="1028.8906" y1="263" y2="263"/></g><!--class GramSchmidtModificat--><g class="entity" data-qualified-name="GramSchmidtModificat" data-source-line="21" id="ent0029"><rect fill="#F1F1F1" height="48" rx="2.5" ry="2.5" style="stroke:#181818;stroke-width:0.5;" width="192.1865" x="1064.49" y="223"/><ellipse cx="1079.49" cy="239" fill="#ADD1B2" rx="11" ry="11" style="stroke:#181818;stroke-width:1;"/><path d="M1082.4588,244.6406 Q1081.8806,244.9375 1081.24,245.0781 Q1080.5994,245.2344 1079.8963,245.2344 Q1077.3963,245.2344 1076.0681,243.5938 Q1074.7556,241.9375 1074.7556,238.8125 Q1074.7556,235.6875 1076.0681,234.0313 Q1077.3963,232.375 1079.8963,232.375 Q1080.5994,232.375 1081.24,232.5313 Q1081.8963,232.6875 1082.4588,232.9844 L1082.4588,235.7031 Q1081.8338,235.125 1081.24,234.8594 Q1080.6463,234.5781 1080.0213,234.5781 Q1078.6775,234.5781 1077.99,235.6563 Q1077.3025,236.7188 1077.3025,238.8125 Q1077.3025,240.9063 1077.99,241.9844 Q1078.6775,243.0469 1080.0213,243.0469 Q1080.6463,243.0469 1081.24,242.7813 Q1081.8338,242.5 1082.4588,241.9219 L1082.4588,244.6406 Z " fill="#000000"/><text fill="#000000" font-family="sans-serif" font-size="14" lengthAdjust="spacing" textLength="160.1865" x="1093.49" y="243.8467">GramSchmidtModificat</text><line style="stroke:#181818;stroke-width:0.5;" x1="1065.49" x2="1255.6765" y1="255" y2="255"/><line style="stroke:#181818;stroke-width:0.5;" x1="1065.49" x2="1255.6765" y1="263" y2="263"/></g><!--reverse link Factoritzacio to MetodeDirecte--><g class="link" data-entity-1="ent0002" data-entity-2="ent0003" data-link-type="extension" data-source-line="5" id="lnk4"><path d="M623.0754,69.1779 C608.5754,86.8579 600.13,97.13 585.63,114.79" fill="none" id="Factoritzacio-backto-MetodeDirecte" style="stroke:#181818;stroke-width:1;"/><polygon fill="none" points="634.49,55.26,618.4361,65.373,627.7147,72.9827,634.49,55.26" style="stroke:#181818;stroke-width:1;"/></g><!--reverse link MetodeDirecte to FactoritzacioLU--><g class="link" data-entity-1="ent0003" data-entity-2="ent0005" data-link-type="extension" data-source-line="6" id="lnk6"><path d="M484.3138,169.4585 C435.1938,187.0485 385.14,204.98 336,222.57" fill="none" id="MetodeDirecte-backto-FactoritzacioLU" style="stroke:#181818;stroke-width:1;"/><polygon fill="none" points="501.26,163.39,482.291,163.8097,486.3366,175.1072,501.26,163.39" style="stroke:#181818;stroke-width:1;"/></g><!--reverse link FactoritzacioLU to FactoritzacioLUCompacta--><g class="link" data-entity-1="ent0005" data-entity-2="ent0007" data-link-type="extension" data-source-line="7" id="lnk8"><path d="M229.9591,283.0158 C209.4591,300.6958 195.01,313.13 174.52,330.79" fill="none" id="FactoritzacioLU-backto-FactoritzacioLUCompacta" style="stroke:#181818;stroke-width:1;"/><polygon fill="none" points="243.59,271.26,226.0405,278.4722,233.8777,287.5594,243.59,271.26" style="stroke:#181818;stroke-width:1;"/></g><!--reverse link FactoritzacioLU to FactoritzacioLUGaussiana--><g class="link" data-entity-1="ent0005" data-entity-2="ent0009" data-link-type="extension" data-source-line="8" id="lnk10"><path d="M311.4788,282.9601 C332.1488,300.6401 346.78,313.13 367.44,330.79" fill="none" id="FactoritzacioLU-backto-FactoritzacioLUGaussiana" style="stroke:#181818;stroke-width:1;"/><polygon fill="none" points="297.8,271.26,307.5787,287.5197,315.3788,278.4005,297.8,271.26" style="stroke:#181818;stroke-width:1;"/></g><!--reverse link FactoritzacioLUGaussiana to FactoritzacioLUParcial--><g class="link" data-entity-1="ent0009" data-entity-2="ent0011" data-link-type="extension" data-source-line="10" id="lnk12"><path d="M386.4845,396.9173 C382.9845,414.5973 381.68,421.13 378.18,438.79" fill="none" id="FactoritzacioLUGaussiana-backto-FactoritzacioLUParcial" style="stroke:#181818;stroke-width:1;"/><polygon fill="none" points="389.98,379.26,380.5987,395.7522,392.3703,398.0825,389.98,379.26" style="stroke:#181818;stroke-width:1;"/></g><!--reverse link FactoritzacioLUGaussiana to FactoritzacioLUParcialEsglaonat--><g class="link" data-entity-1="ent0009" data-entity-2="ent0013" data-link-type="extension" data-source-line="11" id="lnk14"><path d="M462.8578,386.7916 C501.9178,404.4116 538.83,421.06 577.86,438.67" fill="none" id="FactoritzacioLUGaussiana-backto-FactoritzacioLUParcialEsglaonat" style="stroke:#181818;stroke-width:1;"/><polygon fill="none" points="446.45,379.39,460.3906,392.2609,465.325,381.3223,446.45,379.39" style="stroke:#181818;stroke-width:1;"/></g><!--reverse link FactoritzacioLUCompacta to Doolittle--><g class="link" data-entity-1="ent0007" data-entity-2="ent0015" data-link-type="extension" data-source-line="12" id="lnk16"><path d="M114.7288,392.6664 C98.8888,410.3464 89.21,421.13 73.39,438.79" fill="none" id="FactoritzacioLUCompacta-backto-Doolittle" style="stroke:#181818;stroke-width:1;"/><polygon fill="none" points="126.74,379.26,110.26,388.6627,119.1976,396.6701,126.74,379.26" style="stroke:#181818;stroke-width:1;"/></g><!--reverse link FactoritzacioLUCompacta to Crout--><g class="link" data-entity-1="ent0007" data-entity-2="ent0017" data-link-type="extension" data-source-line="13" id="lnk18"><path d="M155.6951,396.9154 C159.2051,414.5954 160.49,421.13 163.99,438.79" fill="none" id="FactoritzacioLUCompacta-backto-Crout" style="stroke:#181818;stroke-width:1;"/><polygon fill="none" points="152.19,379.26,149.81,398.0838,161.5803,395.7471,152.19,379.26" style="stroke:#181818;stroke-width:1;"/></g><!--reverse link MetodeDirecte to FactoritzacioLDLT--><g class="link" data-entity-1="ent0003" data-entity-2="ent0019" data-link-type="extension" data-source-line="15" id="lnk20"><path d="M528.6644,175.5774 C509.8244,193.2574 497.15,205.13 478.33,222.79" fill="none" id="MetodeDirecte-backto-FactoritzacioLDLT" style="stroke:#181818;stroke-width:1;"/><polygon fill="none" points="541.79,163.26,524.5586,171.2022,532.7702,179.9526,541.79,163.26" style="stroke:#181818;stroke-width:1;"/></g><!--reverse link MetodeDirecte to Cholesky--><g class="link" data-entity-1="ent0003" data-entity-2="ent0021" data-link-type="extension" data-source-line="16" id="lnk22"><path d="M584.5405,179.6593 C592.5405,197.3393 596.08,205.13 604.08,222.79" fill="none" id="MetodeDirecte-backto-Cholesky" style="stroke:#181818;stroke-width:1;"/><polygon fill="none" points="577.12,163.26,579.0741,182.1328,590.0069,177.1858,577.12,163.26" style="stroke:#181818;stroke-width:1;"/></g><!--reverse link Factoritzacio to FactoritzacioQR--><g class="link" data-entity-1="ent0002" data-entity-2="ent0023" data-link-type="extension" data-source-line="18" id="lnk24"><path d="M701.7059,65.5541 C726.9659,83.1641 746.74,96.97 772.04,114.61" fill="none" id="Factoritzacio-backto-FactoritzacioQR" style="stroke:#181818;stroke-width:1;"/><polygon fill="none" points="686.94,55.26,698.2746,70.476,705.1373,60.6321,686.94,55.26" style="stroke:#181818;stroke-width:1;"/></g><!--reverse link FactoritzacioQR to Householder--><g class="link" data-entity-1="ent0023" data-entity-2="ent0025" data-link-type="extension" data-source-line="19" id="lnk26"><path d="M787.6295,179.6593 C779.6295,197.3393 776.09,205.13 768.1,222.79" fill="none" id="FactoritzacioQR-backto-Householder" style="stroke:#181818;stroke-width:1;"/><polygon fill="none" points="795.05,163.26,782.1631,177.1858,793.0959,182.1328,795.05,163.26" style="stroke:#181818;stroke-width:1;"/></g><!--reverse link FactoritzacioQR to GramSchmidtClassic--><g class="link" data-entity-1="ent0023" data-entity-2="ent0027" data-link-type="extension" data-source-line="20" id="lnk28"><path d="M849.6262,174.3265 C872.3062,192.0065 889.15,205.13 911.81,222.79" fill="none" id="FactoritzacioQR-backto-GramSchmidtClassic" style="stroke:#181818;stroke-width:1;"/><polygon fill="none" points="835.43,163.26,845.9374,179.0586,853.315,169.5945,835.43,163.26" style="stroke:#181818;stroke-width:1;"/></g><!--reverse link FactoritzacioQR to GramSchmidtModificat--><g class="link" data-entity-1="ent0023" data-entity-2="ent0029" data-link-type="extension" data-source-line="21" id="lnk30"><path d="M894.2469,166.472 C953.6669,184.222 1020.91,204.29 1082.19,222.59" fill="none" id="FactoritzacioQR-backto-GramSchmidtModificat" style="stroke:#181818;stroke-width:1;"/><polygon fill="none" points="877,161.32,892.5296,172.221,895.9643,160.723,877,161.32" style="stroke:#181818;stroke-width:1;"/></g><?plantuml-src ZPB1JiCm38RlVOhUE47lN5ks7JffBTi3U8wtMYHrbRZIuEafK2OD9NItoFw_Bv7ZXqvr2Cz5CLZeTNJs2SKLQ264HyDmzk2oB8DZK0-e-NSZNqr7yQmVW2n_crjICLIn9rJAwQBKcmNafbaVhj2DQW4gnGrJ1U8treSiIgrX386XJsDnRWSU6MoAkch_fL_2sOBqeFTgAX7BgfPImEyGvdpfPTJ5RFIDLRrFVCEixiHIU7jFX6BEfarimqzs8sEWoMh8ntDDEoVNqrA-OkVOQFbLOBmVs8hX4sDgvatx2G00?></g></svg>