<?xml version="1.0" encoding="us-ascii" standalone="no"?><svg xmlns="http://www.w3.org/2000/svg" xmlns:xlink="http://www.w3.org/1999/xlink" contentStyleType="text/css" height="545px" preserveAspectRatio="none" style="width:1963px;height:545px;background:#FFFFFF;" version="1.1" viewBox="0 0 1963 545" width="1963px" zoomAndPan="magnify"><defs/><g><!--cluster metodes_directes--><g id="cluster_metodes_directes"><path d="M8.5,6 L136.5,6 A3.75,3.75 0 0 1 139,8.5 L146,29.6094 L1027.5,29.6094 A2.5,2.5 0 0 1 1030,32.1094 L1030,535.5 A2.5,2.5 0 0 1 1027.5,538 L8.5,538 A2.5,2.5 0 0 1 6,535.5 L6,8.5 A2.5,2.5 0 0 1 8.5,6 " fill="none" style="stroke:#000000;stroke-width:1.5;"/><line style="stroke:#000000;stroke-width:1.5;" x1="6" x2="146" y1="29.6094" y2="29.6094"/><text fill="#000000" font-family="sans-serif" font-size="14" font-weight="bold" lengthAdjust="spacing" textLength="127" x="10" y="22.5332">metodes_directes</text></g><!--cluster metodes_iteratius--><g id="cluster_metodes_iteratius"><path d="M1056.5,6 L1184.5,6 A3.75,3.75 0 0 1 1187,8.5 L1194,29.6094 L1953.5,29.6094 A2.5,2.5 0 0 1 1956,32.1094 L1956,427.5 A2.5,2.5 0 0 1 1953.5,430 L1056.5,430 A2.5,2.5 0 0 1 1054,427.5 L1054,8.5 A2.5,2.5 0 0 1 1056.5,6 " fill="none" style="stroke:#000000;stroke-width:1.5;"/><line style="stroke:#000000;stroke-width:1.5;" x1="1054" x2="1194" y1="29.6094" y2="29.6094"/><text fill="#000000" font-family="sans-serif" font-size="14" font-weight="bold" lengthAdjust="spacing" textLength="127" x="1058" y="22.5332">metodes_iteratius</text></g><!--class Factoritzacio--><g id="elem_Factoritzacio"><rect codeLine="4" fill="#F1F1F1" height="48" id="Factoritzacio" rx="2.5" ry="2.5" style="stroke:#181818;stroke-width:0.5;" width="113" x="427.5" y="42"/><ellipse cx="442.5" cy="58" fill="#A9DCDF" rx="11" ry="11" style="stroke:#181818;stroke-width:1.0;"/><path d="M444.6875,59.7656 L440.5469,59.7656 L440.125,60.7969 L440.5469,60.7969 Q441.1563,60.7969 441.4219,61.0313 Q441.6875,61.2656 441.6875,61.6563 Q441.6875,62.0313 441.4219,62.2656 Q441.1563,62.5 440.5469,62.5 L438.25,62.5 Q437.6406,62.5 437.3906,62.2656 Q437.125,62.0313 437.125,61.6406 Q437.125,61.2656 437.4063,61.0313 Q437.6719,60.7813 438.2969,60.7969 L440.9688,54.1406 L439.8594,54.1406 Q439.25,54.1406 438.9844,53.9063 Q438.7188,53.6719 438.7188,53.2813 Q438.7188,52.9063 438.9844,52.6719 Q439.25,52.4375 439.8594,52.4375 L443.5313,52.4375 L446.9219,60.7969 Q447.5156,60.7969 447.7031,60.9375 Q448.0938,61.2031 448.0938,61.6563 Q448.0938,62.0313 447.8281,62.2656 Q447.5781,62.5 446.9688,62.5 L444.6719,62.5 Q444.0625,62.5 443.7969,62.2656 Q443.5313,62.0313 443.5313,61.6406 Q443.5313,61.2656 443.7969,61.0313 Q444.0625,60.7969 444.6719,60.7969 L445.0938,60.7969 L444.6875,59.7656 Z M443.9688,58.0625 L442.6094,54.6875 L441.2344,58.0625 L443.9688,58.0625 Z " fill="#000000"/><text fill="#000000" font-family="sans-serif" font-size="14" font-style="italic" lengthAdjust="spacing" textLength="81" x="456.5" y="63.7285">Factoritzacio</text><line style="stroke:#181818;stroke-width:0.5;" x1="428.5" x2="539.5" y1="74" y2="74"/><line style="stroke:#181818;stroke-width:0.5;" x1="428.5" x2="539.5" y1="82" y2="82"/></g><!--class MetodeDirecte--><g id="elem_MetodeDirecte"><rect codeLine="5" fill="#F1F1F1" height="48" id="MetodeDirecte" rx="2.5" ry="2.5" style="stroke:#181818;stroke-width:0.5;" width="125" x="276.5" y="150"/><ellipse cx="291.5" cy="166" fill="#A9DCDF" rx="11" ry="11" style="stroke:#181818;stroke-width:1.0;"/><path d="M293.6875,167.7656 L289.5469,167.7656 L289.125,168.7969 L289.5469,168.7969 Q290.1563,168.7969 290.4219,169.0313 Q290.6875,169.2656 290.6875,169.6563 Q290.6875,170.0313 290.4219,170.2656 Q290.1563,170.5 289.5469,170.5 L287.25,170.5 Q286.6406,170.5 286.3906,170.2656 Q286.125,170.0313 286.125,169.6406 Q286.125,169.2656 286.4063,169.0313 Q286.6719,168.7813 287.2969,168.7969 L289.9688,162.1406 L288.8594,162.1406 Q288.25,162.1406 287.9844,161.9063 Q287.7188,161.6719 287.7188,161.2813 Q287.7188,160.9063 287.9844,160.6719 Q288.25,160.4375 288.8594,160.4375 L292.5313,160.4375 L295.9219,168.7969 Q296.5156,168.7969 296.7031,168.9375 Q297.0938,169.2031 297.0938,169.6563 Q297.0938,170.0313 296.8281,170.2656 Q296.5781,170.5 295.9688,170.5 L293.6719,170.5 Q293.0625,170.5 292.7969,170.2656 Q292.5313,170.0313 292.5313,169.6406 Q292.5313,169.2656 292.7969,169.0313 Q293.0625,168.7969 293.6719,168.7969 L294.0938,168.7969 L293.6875,167.7656 Z M292.9688,166.0625 L291.6094,162.6875 L290.2344,166.0625 L292.9688,166.0625 Z " fill="#000000"/><text fill="#000000" font-family="sans-serif" font-size="14" font-style="italic" lengthAdjust="spacing" textLength="93" x="305.5" y="171.7285">MetodeDirecte</text><line style="stroke:#181818;stroke-width:0.5;" x1="277.5" x2="400.5" y1="182" y2="182"/><line style="stroke:#181818;stroke-width:0.5;" x1="277.5" x2="400.5" y1="190" y2="190"/></g><!--class FactoritzacioLU--><g id="elem_FactoritzacioLU"><rect codeLine="6" fill="#F1F1F1" height="48" id="FactoritzacioLU" rx="2.5" ry="2.5" style="stroke:#181818;stroke-width:0.5;" width="131" x="22.5" y="258"/><ellipse cx="37.5" cy="274" fill="#A9DCDF" rx="11" ry="11" style="stroke:#181818;stroke-width:1.0;"/><path d="M39.6875,275.7656 L35.5469,275.7656 L35.125,276.7969 L35.5469,276.7969 Q36.1563,276.7969 36.4219,277.0313 Q36.6875,277.2656 36.6875,277.6563 Q36.6875,278.0313 36.4219,278.2656 Q36.1563,278.5 35.5469,278.5 L33.25,278.5 Q32.6406,278.5 32.3906,278.2656 Q32.125,278.0313 32.125,277.6406 Q32.125,277.2656 32.4063,277.0313 Q32.6719,276.7813 33.2969,276.7969 L35.9688,270.1406 L34.8594,270.1406 Q34.25,270.1406 33.9844,269.9063 Q33.7188,269.6719 33.7188,269.2813 Q33.7188,268.9063 33.9844,268.6719 Q34.25,268.4375 34.8594,268.4375 L38.5313,268.4375 L41.9219,276.7969 Q42.5156,276.7969 42.7031,276.9375 Q43.0938,277.2031 43.0938,277.6563 Q43.0938,278.0313 42.8281,278.2656 Q42.5781,278.5 41.9688,278.5 L39.6719,278.5 Q39.0625,278.5 38.7969,278.2656 Q38.5313,278.0313 38.5313,277.6406 Q38.5313,277.2656 38.7969,277.0313 Q39.0625,276.7969 39.6719,276.7969 L40.0938,276.7969 L39.6875,275.7656 Z M38.9688,274.0625 L37.6094,270.6875 L36.2344,274.0625 L38.9688,274.0625 Z " fill="#000000"/><text fill="#000000" font-family="sans-serif" font-size="14" font-style="italic" lengthAdjust="spacing" textLength="99" x="51.5" y="279.7285">FactoritzacioLU</text><line style="stroke:#181818;stroke-width:0.5;" x1="23.5" x2="152.5" y1="290" y2="290"/><line style="stroke:#181818;stroke-width:0.5;" x1="23.5" x2="152.5" y1="298" y2="298"/></g><!--class FactoritzacioLUCompacta--><g id="elem_FactoritzacioLUCompacta"><rect codeLine="7" fill="#F1F1F1" height="48" id="FactoritzacioLUCompacta" rx="2.5" ry="2.5" style="stroke:#181818;stroke-width:0.5;" width="195" x="22.5" y="366"/><ellipse cx="37.5" cy="382" fill="#A9DCDF" rx="11" ry="11" style="stroke:#181818;stroke-width:1.0;"/><path d="M39.6875,383.7656 L35.5469,383.7656 L35.125,384.7969 L35.5469,384.7969 Q36.1563,384.7969 36.4219,385.0313 Q36.6875,385.2656 36.6875,385.6563 Q36.6875,386.0313 36.4219,386.2656 Q36.1563,386.5 35.5469,386.5 L33.25,386.5 Q32.6406,386.5 32.3906,386.2656 Q32.125,386.0313 32.125,385.6406 Q32.125,385.2656 32.4063,385.0313 Q32.6719,384.7813 33.2969,384.7969 L35.9688,378.1406 L34.8594,378.1406 Q34.25,378.1406 33.9844,377.9063 Q33.7188,377.6719 33.7188,377.2813 Q33.7188,376.9063 33.9844,376.6719 Q34.25,376.4375 34.8594,376.4375 L38.5313,376.4375 L41.9219,384.7969 Q42.5156,384.7969 42.7031,384.9375 Q43.0938,385.2031 43.0938,385.6563 Q43.0938,386.0313 42.8281,386.2656 Q42.5781,386.5 41.9688,386.5 L39.6719,386.5 Q39.0625,386.5 38.7969,386.2656 Q38.5313,386.0313 38.5313,385.6406 Q38.5313,385.2656 38.7969,385.0313 Q39.0625,384.7969 39.6719,384.7969 L40.0938,384.7969 L39.6875,383.7656 Z M38.9688,382.0625 L37.6094,378.6875 L36.2344,382.0625 L38.9688,382.0625 Z " fill="#000000"/><text fill="#000000" font-family="sans-serif" font-size="14" font-style="italic" lengthAdjust="spacing" textLength="163" x="51.5" y="387.7285">FactoritzacioLUCompacta</text><line style="stroke:#181818;stroke-width:0.5;" x1="23.5" x2="216.5" y1="398" y2="398"/><line style="stroke:#181818;stroke-width:0.5;" x1="23.5" x2="216.5" y1="406" y2="406"/></g><!--class FactoritzacioLUGaussiana--><g id="elem_FactoritzacioLUGaussiana"><rect codeLine="8" fill="#F1F1F1" height="48" id="FactoritzacioLUGaussiana" rx="2.5" ry="2.5" style="stroke:#181818;stroke-width:0.5;" width="197" x="252.5" y="366"/><ellipse cx="267.5" cy="382" fill="#ADD1B2" rx="11" ry="11" style="stroke:#181818;stroke-width:1.0;"/><path d="M270.2656,377.875 Q270.4219,377.6563 270.6094,377.5469 Q270.7969,377.4375 271.0156,377.4375 Q271.3906,377.4375 271.625,377.7031 Q271.8594,377.9531 271.8594,378.5625 L271.8594,380.0156 Q271.8594,380.625 271.625,380.8906 Q271.3906,381.1563 271.0156,381.1563 Q270.6719,381.1563 270.4688,380.9531 Q270.2656,380.7656 270.1563,380.25 Q270.1094,379.8906 269.9219,379.7031 Q269.5938,379.3281 268.9844,379.1094 Q268.375,378.8906 267.75,378.8906 Q266.9844,378.8906 266.3438,379.2188 Q265.7188,379.5469 265.2188,380.2969 Q264.7344,381.0469 264.7344,382.0781 L264.7344,383.1719 Q264.7344,384.4063 265.625,385.2344 Q266.5156,386.0469 268.1094,386.0469 Q269.0469,386.0469 269.7031,385.7969 Q270.0938,385.6406 270.5156,385.2031 Q270.7813,384.9375 270.9219,384.8594 Q271.0781,384.7813 271.2813,384.7813 Q271.6094,384.7813 271.8594,385.0469 Q272.125,385.2969 272.125,385.6406 Q272.125,385.9844 271.7813,386.3906 Q271.2813,386.9688 270.4844,387.2969 Q269.4063,387.75 268.1094,387.75 Q266.5938,387.75 265.3906,387.125 Q264.4063,386.625 263.7188,385.5625 Q263.0313,384.4844 263.0313,383.2031 L263.0313,382.0469 Q263.0313,380.7188 263.6406,379.5781 Q264.2656,378.4219 265.3594,377.8125 Q266.4531,377.1875 267.6875,377.1875 Q268.4219,377.1875 269.0625,377.3594 Q269.7188,377.5156 270.2656,377.875 Z " fill="#000000"/><text fill="#000000" font-family="sans-serif" font-size="14" lengthAdjust="spacing" textLength="165" x="281.5" y="387.7285">FactoritzacioLUGaussiana</text><line style="stroke:#181818;stroke-width:0.5;" x1="253.5" x2="448.5" y1="398" y2="398"/><line style="stroke:#181818;stroke-width:0.5;" x1="253.5" x2="448.5" y1="406" y2="406"/></g><!--class FactoritzacioLUParcial--><g id="elem_FactoritzacioLUParcial"><rect codeLine="10" fill="#F1F1F1" height="48" id="FactoritzacioLUParcial" rx="2.5" ry="2.5" style="stroke:#181818;stroke-width:0.5;" width="172" x="259" y="474"/><ellipse cx="274" cy="490" fill="#ADD1B2" rx="11" ry="11" style="stroke:#181818;stroke-width:1.0;"/><path d="M276.7656,485.875 Q276.9219,485.6563 277.1094,485.5469 Q277.2969,485.4375 277.5156,485.4375 Q277.8906,485.4375 278.125,485.7031 Q278.3594,485.9531 278.3594,486.5625 L278.3594,488.0156 Q278.3594,488.625 278.125,488.8906 Q277.8906,489.1563 277.5156,489.1563 Q277.1719,489.1563 276.9688,488.9531 Q276.7656,488.7656 276.6563,488.25 Q276.6094,487.8906 276.4219,487.7031 Q276.0938,487.3281 275.4844,487.1094 Q274.875,486.8906 274.25,486.8906 Q273.4844,486.8906 272.8438,487.2188 Q272.2188,487.5469 271.7188,488.2969 Q271.2344,489.0469 271.2344,490.0781 L271.2344,491.1719 Q271.2344,492.4063 272.125,493.2344 Q273.0156,494.0469 274.6094,494.0469 Q275.5469,494.0469 276.2031,493.7969 Q276.5938,493.6406 277.0156,493.2031 Q277.2813,492.9375 277.4219,492.8594 Q277.5781,492.7813 277.7813,492.7813 Q278.1094,492.7813 278.3594,493.0469 Q278.625,493.2969 278.625,493.6406 Q278.625,493.9844 278.2813,494.3906 Q277.7813,494.9688 276.9844,495.2969 Q275.9063,495.75 274.6094,495.75 Q273.0938,495.75 271.8906,495.125 Q270.9063,494.625 270.2188,493.5625 Q269.5313,492.4844 269.5313,491.2031 L269.5313,490.0469 Q269.5313,488.7188 270.1406,487.5781 Q270.7656,486.4219 271.8594,485.8125 Q272.9531,485.1875 274.1875,485.1875 Q274.9219,485.1875 275.5625,485.3594 Q276.2188,485.5156 276.7656,485.875 Z " fill="#000000"/><text fill="#000000" font-family="sans-serif" font-size="14" lengthAdjust="spacing" textLength="140" x="288" y="495.7285">FactoritzacioLUParcial</text><line style="stroke:#181818;stroke-width:0.5;" x1="260" x2="430" y1="506" y2="506"/><line style="stroke:#181818;stroke-width:0.5;" x1="260" x2="430" y1="514" y2="514"/></g><!--class FactoritzacioLUParcialEsglaonat--><g id="elem_FactoritzacioLUParcialEsglaonat"><rect codeLine="11" fill="#F1F1F1" height="48" id="FactoritzacioLUParcialEsglaonat" rx="2.5" ry="2.5" style="stroke:#181818;stroke-width:0.5;" width="235" x="466.5" y="474"/><ellipse cx="481.5" cy="490" fill="#ADD1B2" rx="11" ry="11" style="stroke:#181818;stroke-width:1.0;"/><path d="M484.2656,485.875 Q484.4219,485.6563 484.6094,485.5469 Q484.7969,485.4375 485.0156,485.4375 Q485.3906,485.4375 485.625,485.7031 Q485.8594,485.9531 485.8594,486.5625 L485.8594,488.0156 Q485.8594,488.625 485.625,488.8906 Q485.3906,489.1563 485.0156,489.1563 Q484.6719,489.1563 484.4688,488.9531 Q484.2656,488.7656 484.1563,488.25 Q484.1094,487.8906 483.9219,487.7031 Q483.5938,487.3281 482.9844,487.1094 Q482.375,486.8906 481.75,486.8906 Q480.9844,486.8906 480.3438,487.2188 Q479.7188,487.5469 479.2188,488.2969 Q478.7344,489.0469 478.7344,490.0781 L478.7344,491.1719 Q478.7344,492.4063 479.625,493.2344 Q480.5156,494.0469 482.1094,494.0469 Q483.0469,494.0469 483.7031,493.7969 Q484.0938,493.6406 484.5156,493.2031 Q484.7813,492.9375 484.9219,492.8594 Q485.0781,492.7813 485.2813,492.7813 Q485.6094,492.7813 485.8594,493.0469 Q486.125,493.2969 486.125,493.6406 Q486.125,493.9844 485.7813,494.3906 Q485.2813,494.9688 484.4844,495.2969 Q483.4063,495.75 482.1094,495.75 Q480.5938,495.75 479.3906,495.125 Q478.4063,494.625 477.7188,493.5625 Q477.0313,492.4844 477.0313,491.2031 L477.0313,490.0469 Q477.0313,488.7188 477.6406,487.5781 Q478.2656,486.4219 479.3594,485.8125 Q480.4531,485.1875 481.6875,485.1875 Q482.4219,485.1875 483.0625,485.3594 Q483.7188,485.5156 484.2656,485.875 Z " fill="#000000"/><text fill="#000000" font-family="sans-serif" font-size="14" lengthAdjust="spacing" textLength="203" x="495.5" y="495.7285">FactoritzacioLUParcialEsglaonat</text><line style="stroke:#181818;stroke-width:0.5;" x1="467.5" x2="700.5" y1="506" y2="506"/><line style="stroke:#181818;stroke-width:0.5;" x1="467.5" x2="700.5" y1="514" y2="514"/></g><!--class Doolittle--><g id="elem_Doolittle"><rect codeLine="13" fill="#F1F1F1" height="48" id="Doolittle" rx="2.5" ry="2.5" style="stroke:#181818;stroke-width:0.5;" width="83" x="33.5" y="474"/><ellipse cx="48.5" cy="490" fill="#ADD1B2" rx="11" ry="11" style="stroke:#181818;stroke-width:1.0;"/><path d="M51.2656,485.875 Q51.4219,485.6563 51.6094,485.5469 Q51.7969,485.4375 52.0156,485.4375 Q52.3906,485.4375 52.625,485.7031 Q52.8594,485.9531 52.8594,486.5625 L52.8594,488.0156 Q52.8594,488.625 52.625,488.8906 Q52.3906,489.1563 52.0156,489.1563 Q51.6719,489.1563 51.4688,488.9531 Q51.2656,488.7656 51.1563,488.25 Q51.1094,487.8906 50.9219,487.7031 Q50.5938,487.3281 49.9844,487.1094 Q49.375,486.8906 48.75,486.8906 Q47.9844,486.8906 47.3438,487.2188 Q46.7188,487.5469 46.2188,488.2969 Q45.7344,489.0469 45.7344,490.0781 L45.7344,491.1719 Q45.7344,492.4063 46.625,493.2344 Q47.5156,494.0469 49.1094,494.0469 Q50.0469,494.0469 50.7031,493.7969 Q51.0938,493.6406 51.5156,493.2031 Q51.7813,492.9375 51.9219,492.8594 Q52.0781,492.7813 52.2813,492.7813 Q52.6094,492.7813 52.8594,493.0469 Q53.125,493.2969 53.125,493.6406 Q53.125,493.9844 52.7813,494.3906 Q52.2813,494.9688 51.4844,495.2969 Q50.4063,495.75 49.1094,495.75 Q47.5938,495.75 46.3906,495.125 Q45.4063,494.625 44.7188,493.5625 Q44.0313,492.4844 44.0313,491.2031 L44.0313,490.0469 Q44.0313,488.7188 44.6406,487.5781 Q45.2656,486.4219 46.3594,485.8125 Q47.4531,485.1875 48.6875,485.1875 Q49.4219,485.1875 50.0625,485.3594 Q50.7188,485.5156 51.2656,485.875 Z " fill="#000000"/><text fill="#000000" font-family="sans-serif" font-size="14" lengthAdjust="spacing" textLength="51" x="62.5" y="495.7285">Doolittle</text><line style="stroke:#181818;stroke-width:0.5;" x1="34.5" x2="115.5" y1="506" y2="506"/><line style="stroke:#181818;stroke-width:0.5;" x1="34.5" x2="115.5" y1="514" y2="514"/></g><!--class Crout--><g id="elem_Crout"><rect codeLine="14" fill="#F1F1F1" height="48" id="Crout" rx="2.5" ry="2.5" style="stroke:#181818;stroke-width:0.5;" width="67" x="151.5" y="474"/><ellipse cx="166.5" cy="490" fill="#ADD1B2" rx="11" ry="11" style="stroke:#181818;stroke-width:1.0;"/><path d="M169.2656,485.875 Q169.4219,485.6563 169.6094,485.5469 Q169.7969,485.4375 170.0156,485.4375 Q170.3906,485.4375 170.625,485.7031 Q170.8594,485.9531 170.8594,486.5625 L170.8594,488.0156 Q170.8594,488.625 170.625,488.8906 Q170.3906,489.1563 170.0156,489.1563 Q169.6719,489.1563 169.4688,488.9531 Q169.2656,488.7656 169.1563,488.25 Q169.1094,487.8906 168.9219,487.7031 Q168.5938,487.3281 167.9844,487.1094 Q167.375,486.8906 166.75,486.8906 Q165.9844,486.8906 165.3438,487.2188 Q164.7188,487.5469 164.2188,488.2969 Q163.7344,489.0469 163.7344,490.0781 L163.7344,491.1719 Q163.7344,492.4063 164.625,493.2344 Q165.5156,494.0469 167.1094,494.0469 Q168.0469,494.0469 168.7031,493.7969 Q169.0938,493.6406 169.5156,493.2031 Q169.7813,492.9375 169.9219,492.8594 Q170.0781,492.7813 170.2813,492.7813 Q170.6094,492.7813 170.8594,493.0469 Q171.125,493.2969 171.125,493.6406 Q171.125,493.9844 170.7813,494.3906 Q170.2813,494.9688 169.4844,495.2969 Q168.4063,495.75 167.1094,495.75 Q165.5938,495.75 164.3906,495.125 Q163.4063,494.625 162.7188,493.5625 Q162.0313,492.4844 162.0313,491.2031 L162.0313,490.0469 Q162.0313,488.7188 162.6406,487.5781 Q163.2656,486.4219 164.3594,485.8125 Q165.4531,485.1875 166.6875,485.1875 Q167.4219,485.1875 168.0625,485.3594 Q168.7188,485.5156 169.2656,485.875 Z " fill="#000000"/><text fill="#000000" font-family="sans-serif" font-size="14" lengthAdjust="spacing" textLength="35" x="180.5" y="495.7285">Crout</text><line style="stroke:#181818;stroke-width:0.5;" x1="152.5" x2="217.5" y1="506" y2="506"/><line style="stroke:#181818;stroke-width:0.5;" x1="152.5" x2="217.5" y1="514" y2="514"/></g><!--class FactoritzacioLDLT--><g id="elem_FactoritzacioLDLT"><rect codeLine="16" fill="#F1F1F1" height="48" id="FactoritzacioLDLT" rx="2.5" ry="2.5" style="stroke:#181818;stroke-width:0.5;" width="147" x="188.5" y="258"/><ellipse cx="203.5" cy="274" fill="#ADD1B2" rx="11" ry="11" style="stroke:#181818;stroke-width:1.0;"/><path d="M206.2656,269.875 Q206.4219,269.6563 206.6094,269.5469 Q206.7969,269.4375 207.0156,269.4375 Q207.3906,269.4375 207.625,269.7031 Q207.8594,269.9531 207.8594,270.5625 L207.8594,272.0156 Q207.8594,272.625 207.625,272.8906 Q207.3906,273.1563 207.0156,273.1563 Q206.6719,273.1563 206.4688,272.9531 Q206.2656,272.7656 206.1563,272.25 Q206.1094,271.8906 205.9219,271.7031 Q205.5938,271.3281 204.9844,271.1094 Q204.375,270.8906 203.75,270.8906 Q202.9844,270.8906 202.3438,271.2188 Q201.7188,271.5469 201.2188,272.2969 Q200.7344,273.0469 200.7344,274.0781 L200.7344,275.1719 Q200.7344,276.4063 201.625,277.2344 Q202.5156,278.0469 204.1094,278.0469 Q205.0469,278.0469 205.7031,277.7969 Q206.0938,277.6406 206.5156,277.2031 Q206.7813,276.9375 206.9219,276.8594 Q207.0781,276.7813 207.2813,276.7813 Q207.6094,276.7813 207.8594,277.0469 Q208.125,277.2969 208.125,277.6406 Q208.125,277.9844 207.7813,278.3906 Q207.2813,278.9688 206.4844,279.2969 Q205.4063,279.75 204.1094,279.75 Q202.5938,279.75 201.3906,279.125 Q200.4063,278.625 199.7188,277.5625 Q199.0313,276.4844 199.0313,275.2031 L199.0313,274.0469 Q199.0313,272.7188 199.6406,271.5781 Q200.2656,270.4219 201.3594,269.8125 Q202.4531,269.1875 203.6875,269.1875 Q204.4219,269.1875 205.0625,269.3594 Q205.7188,269.5156 206.2656,269.875 Z " fill="#000000"/><text fill="#000000" font-family="sans-serif" font-size="14" lengthAdjust="spacing" textLength="115" x="217.5" y="279.7285">FactoritzacioLDLT</text><line style="stroke:#181818;stroke-width:0.5;" x1="189.5" x2="334.5" y1="290" y2="290"/><line style="stroke:#181818;stroke-width:0.5;" x1="189.5" x2="334.5" y1="298" y2="298"/></g><!--class Cholesky--><g id="elem_Cholesky"><rect codeLine="17" fill="#F1F1F1" height="48" id="Cholesky" rx="2.5" ry="2.5" style="stroke:#181818;stroke-width:0.5;" width="90" x="371" y="258"/><ellipse cx="386" cy="274" fill="#ADD1B2" rx="11" ry="11" style="stroke:#181818;stroke-width:1.0;"/><path d="M388.7656,269.875 Q388.9219,269.6563 389.1094,269.5469 Q389.2969,269.4375 389.5156,269.4375 Q389.8906,269.4375 390.125,269.7031 Q390.3594,269.9531 390.3594,270.5625 L390.3594,272.0156 Q390.3594,272.625 390.125,272.8906 Q389.8906,273.1563 389.5156,273.1563 Q389.1719,273.1563 388.9688,272.9531 Q388.7656,272.7656 388.6563,272.25 Q388.6094,271.8906 388.4219,271.7031 Q388.0938,271.3281 387.4844,271.1094 Q386.875,270.8906 386.25,270.8906 Q385.4844,270.8906 384.8438,271.2188 Q384.2188,271.5469 383.7188,272.2969 Q383.2344,273.0469 383.2344,274.0781 L383.2344,275.1719 Q383.2344,276.4063 384.125,277.2344 Q385.0156,278.0469 386.6094,278.0469 Q387.5469,278.0469 388.2031,277.7969 Q388.5938,277.6406 389.0156,277.2031 Q389.2813,276.9375 389.4219,276.8594 Q389.5781,276.7813 389.7813,276.7813 Q390.1094,276.7813 390.3594,277.0469 Q390.625,277.2969 390.625,277.6406 Q390.625,277.9844 390.2813,278.3906 Q389.7813,278.9688 388.9844,279.2969 Q387.9063,279.75 386.6094,279.75 Q385.0938,279.75 383.8906,279.125 Q382.9063,278.625 382.2188,277.5625 Q381.5313,276.4844 381.5313,275.2031 L381.5313,274.0469 Q381.5313,272.7188 382.1406,271.5781 Q382.7656,270.4219 383.8594,269.8125 Q384.9531,269.1875 386.1875,269.1875 Q386.9219,269.1875 387.5625,269.3594 Q388.2188,269.5156 388.7656,269.875 Z " fill="#000000"/><text fill="#000000" font-family="sans-serif" font-size="14" lengthAdjust="spacing" textLength="58" x="400" y="279.7285">Cholesky</text><line style="stroke:#181818;stroke-width:0.5;" x1="372" x2="460" y1="290" y2="290"/><line style="stroke:#181818;stroke-width:0.5;" x1="372" x2="460" y1="298" y2="298"/></g><!--class FactoritzacioQR--><g id="elem_FactoritzacioQR"><rect codeLine="19" fill="#F1F1F1" height="48" id="FactoritzacioQR" rx="2.5" ry="2.5" style="stroke:#181818;stroke-width:0.5;" width="134" x="571" y="150"/><ellipse cx="586" cy="166" fill="#A9DCDF" rx="11" ry="11" style="stroke:#181818;stroke-width:1.0;"/><path d="M588.1875,167.7656 L584.0469,167.7656 L583.625,168.7969 L584.0469,168.7969 Q584.6563,168.7969 584.9219,169.0313 Q585.1875,169.2656 585.1875,169.6563 Q585.1875,170.0313 584.9219,170.2656 Q584.6563,170.5 584.0469,170.5 L581.75,170.5 Q581.1406,170.5 580.8906,170.2656 Q580.625,170.0313 580.625,169.6406 Q580.625,169.2656 580.9063,169.0313 Q581.1719,168.7813 581.7969,168.7969 L584.4688,162.1406 L583.3594,162.1406 Q582.75,162.1406 582.4844,161.9063 Q582.2188,161.6719 582.2188,161.2813 Q582.2188,160.9063 582.4844,160.6719 Q582.75,160.4375 583.3594,160.4375 L587.0313,160.4375 L590.4219,168.7969 Q591.0156,168.7969 591.2031,168.9375 Q591.5938,169.2031 591.5938,169.6563 Q591.5938,170.0313 591.3281,170.2656 Q591.0781,170.5 590.4688,170.5 L588.1719,170.5 Q587.5625,170.5 587.2969,170.2656 Q587.0313,170.0313 587.0313,169.6406 Q587.0313,169.2656 587.2969,169.0313 Q587.5625,168.7969 588.1719,168.7969 L588.5938,168.7969 L588.1875,167.7656 Z M587.4688,166.0625 L586.1094,162.6875 L584.7344,166.0625 L587.4688,166.0625 Z " fill="#000000"/><text fill="#000000" font-family="sans-serif" font-size="14" font-style="italic" lengthAdjust="spacing" textLength="102" x="600" y="171.7285">FactoritzacioQR</text><line style="stroke:#181818;stroke-width:0.5;" x1="572" x2="704" y1="182" y2="182"/><line style="stroke:#181818;stroke-width:0.5;" x1="572" x2="704" y1="190" y2="190"/></g><!--class Householder--><g id="elem_Householder"><rect codeLine="20" fill="#F1F1F1" height="48" id="Householder" rx="2.5" ry="2.5" style="stroke:#181818;stroke-width:0.5;" width="112" x="496" y="258"/><ellipse cx="511" cy="274" fill="#ADD1B2" rx="11" ry="11" style="stroke:#181818;stroke-width:1.0;"/><path d="M513.7656,269.875 Q513.9219,269.6563 514.1094,269.5469 Q514.2969,269.4375 514.5156,269.4375 Q514.8906,269.4375 515.125,269.7031 Q515.3594,269.9531 515.3594,270.5625 L515.3594,272.0156 Q515.3594,272.625 515.125,272.8906 Q514.8906,273.1563 514.5156,273.1563 Q514.1719,273.1563 513.9688,272.9531 Q513.7656,272.7656 513.6563,272.25 Q513.6094,271.8906 513.4219,271.7031 Q513.0938,271.3281 512.4844,271.1094 Q511.875,270.8906 511.25,270.8906 Q510.4844,270.8906 509.8438,271.2188 Q509.2188,271.5469 508.7188,272.2969 Q508.2344,273.0469 508.2344,274.0781 L508.2344,275.1719 Q508.2344,276.4063 509.125,277.2344 Q510.0156,278.0469 511.6094,278.0469 Q512.5469,278.0469 513.2031,277.7969 Q513.5938,277.6406 514.0156,277.2031 Q514.2813,276.9375 514.4219,276.8594 Q514.5781,276.7813 514.7813,276.7813 Q515.1094,276.7813 515.3594,277.0469 Q515.625,277.2969 515.625,277.6406 Q515.625,277.9844 515.2813,278.3906 Q514.7813,278.9688 513.9844,279.2969 Q512.9063,279.75 511.6094,279.75 Q510.0938,279.75 508.8906,279.125 Q507.9063,278.625 507.2188,277.5625 Q506.5313,276.4844 506.5313,275.2031 L506.5313,274.0469 Q506.5313,272.7188 507.1406,271.5781 Q507.7656,270.4219 508.8594,269.8125 Q509.9531,269.1875 511.1875,269.1875 Q511.9219,269.1875 512.5625,269.3594 Q513.2188,269.5156 513.7656,269.875 Z " fill="#000000"/><text fill="#000000" font-family="sans-serif" font-size="14" lengthAdjust="spacing" textLength="80" x="525" y="279.7285">Householder</text><line style="stroke:#181818;stroke-width:0.5;" x1="497" x2="607" y1="290" y2="290"/><line style="stroke:#181818;stroke-width:0.5;" x1="497" x2="607" y1="298" y2="298"/></g><!--class GramSchmidtClassic--><g id="elem_GramSchmidtClassic"><rect codeLine="21" fill="#F1F1F1" height="48" id="GramSchmidtClassic" rx="2.5" ry="2.5" style="stroke:#181818;stroke-width:0.5;" width="162" x="643" y="258"/><ellipse cx="658" cy="274" fill="#ADD1B2" rx="11" ry="11" style="stroke:#181818;stroke-width:1.0;"/><path d="M660.7656,269.875 Q660.9219,269.6563 661.1094,269.5469 Q661.2969,269.4375 661.5156,269.4375 Q661.8906,269.4375 662.125,269.7031 Q662.3594,269.9531 662.3594,270.5625 L662.3594,272.0156 Q662.3594,272.625 662.125,272.8906 Q661.8906,273.1563 661.5156,273.1563 Q661.1719,273.1563 660.9688,272.9531 Q660.7656,272.7656 660.6563,272.25 Q660.6094,271.8906 660.4219,271.7031 Q660.0938,271.3281 659.4844,271.1094 Q658.875,270.8906 658.25,270.8906 Q657.4844,270.8906 656.8438,271.2188 Q656.2188,271.5469 655.7188,272.2969 Q655.2344,273.0469 655.2344,274.0781 L655.2344,275.1719 Q655.2344,276.4063 656.125,277.2344 Q657.0156,278.0469 658.6094,278.0469 Q659.5469,278.0469 660.2031,277.7969 Q660.5938,277.6406 661.0156,277.2031 Q661.2813,276.9375 661.4219,276.8594 Q661.5781,276.7813 661.7813,276.7813 Q662.1094,276.7813 662.3594,277.0469 Q662.625,277.2969 662.625,277.6406 Q662.625,277.9844 662.2813,278.3906 Q661.7813,278.9688 660.9844,279.2969 Q659.9063,279.75 658.6094,279.75 Q657.0938,279.75 655.8906,279.125 Q654.9063,278.625 654.2188,277.5625 Q653.5313,276.4844 653.5313,275.2031 L653.5313,274.0469 Q653.5313,272.7188 654.1406,271.5781 Q654.7656,270.4219 655.8594,269.8125 Q656.9531,269.1875 658.1875,269.1875 Q658.9219,269.1875 659.5625,269.3594 Q660.2188,269.5156 660.7656,269.875 Z " fill="#000000"/><text fill="#000000" font-family="sans-serif" font-size="14" lengthAdjust="spacing" textLength="130" x="672" y="279.7285">GramSchmidtClassic</text><line style="stroke:#181818;stroke-width:0.5;" x1="644" x2="804" y1="290" y2="290"/><line style="stroke:#181818;stroke-width:0.5;" x1="644" x2="804" y1="298" y2="298"/></g><!--class GramSchmidtModificat--><g id="elem_GramSchmidtModificat"><rect codeLine="22" fill="#F1F1F1" height="48" id="GramSchmidtModificat" rx="2.5" ry="2.5" style="stroke:#181818;stroke-width:0.5;" width="173" x="840.5" y="258"/><ellipse cx="855.5" cy="274" fill="#ADD1B2" rx="11" ry="11" style="stroke:#181818;stroke-width:1.0;"/><path d="M858.2656,269.875 Q858.4219,269.6563 858.6094,269.5469 Q858.7969,269.4375 859.0156,269.4375 Q859.3906,269.4375 859.625,269.7031 Q859.8594,269.9531 859.8594,270.5625 L859.8594,272.0156 Q859.8594,272.625 859.625,272.8906 Q859.3906,273.1563 859.0156,273.1563 Q858.6719,273.1563 858.4688,272.9531 Q858.2656,272.7656 858.1563,272.25 Q858.1094,271.8906 857.9219,271.7031 Q857.5938,271.3281 856.9844,271.1094 Q856.375,270.8906 855.75,270.8906 Q854.9844,270.8906 854.3438,271.2188 Q853.7188,271.5469 853.2188,272.2969 Q852.7344,273.0469 852.7344,274.0781 L852.7344,275.1719 Q852.7344,276.4063 853.625,277.2344 Q854.5156,278.0469 856.1094,278.0469 Q857.0469,278.0469 857.7031,277.7969 Q858.0938,277.6406 858.5156,277.2031 Q858.7813,276.9375 858.9219,276.8594 Q859.0781,276.7813 859.2813,276.7813 Q859.6094,276.7813 859.8594,277.0469 Q860.125,277.2969 860.125,277.6406 Q860.125,277.9844 859.7813,278.3906 Q859.2813,278.9688 858.4844,279.2969 Q857.4063,279.75 856.1094,279.75 Q854.5938,279.75 853.3906,279.125 Q852.4063,278.625 851.7188,277.5625 Q851.0313,276.4844 851.0313,275.2031 L851.0313,274.0469 Q851.0313,272.7188 851.6406,271.5781 Q852.2656,270.4219 853.3594,269.8125 Q854.4531,269.1875 855.6875,269.1875 Q856.4219,269.1875 857.0625,269.3594 Q857.7188,269.5156 858.2656,269.875 Z " fill="#000000"/><text fill="#000000" font-family="sans-serif" font-size="14" lengthAdjust="spacing" textLength="141" x="869.5" y="279.7285">GramSchmidtModificat</text><line style="stroke:#181818;stroke-width:0.5;" x1="841.5" x2="1012.5" y1="290" y2="290"/><line style="stroke:#181818;stroke-width:0.5;" x1="841.5" x2="1012.5" y1="298" y2="298"/></g><!--class MetodeIteratiu--><g id="elem_MetodeIteratiu"><rect codeLine="26" fill="#F1F1F1" height="48" id="MetodeIteratiu" rx="2.5" ry="2.5" style="stroke:#181818;stroke-width:0.5;" width="289" x="1606.5" y="42"/><ellipse cx="1621.5" cy="58" fill="#A9DCDF" rx="11" ry="11" style="stroke:#181818;stroke-width:1.0;"/><path d="M1623.6875,59.7656 L1619.5469,59.7656 L1619.125,60.7969 L1619.5469,60.7969 Q1620.1563,60.7969 1620.4219,61.0313 Q1620.6875,61.2656 1620.6875,61.6563 Q1620.6875,62.0313 1620.4219,62.2656 Q1620.1563,62.5 1619.5469,62.5 L1617.25,62.5 Q1616.6406,62.5 1616.3906,62.2656 Q1616.125,62.0313 1616.125,61.6406 Q1616.125,61.2656 1616.4063,61.0313 Q1616.6719,60.7813 1617.2969,60.7969 L1619.9688,54.1406 L1618.8594,54.1406 Q1618.25,54.1406 1617.9844,53.9063 Q1617.7188,53.6719 1617.7188,53.2813 Q1617.7188,52.9063 1617.9844,52.6719 Q1618.25,52.4375 1618.8594,52.4375 L1622.5313,52.4375 L1625.9219,60.7969 Q1626.5156,60.7969 1626.7031,60.9375 Q1627.0938,61.2031 1627.0938,61.6563 Q1627.0938,62.0313 1626.8281,62.2656 Q1626.5781,62.5 1625.9688,62.5 L1623.6719,62.5 Q1623.0625,62.5 1622.7969,62.2656 Q1622.5313,62.0313 1622.5313,61.6406 Q1622.5313,61.2656 1622.7969,61.0313 Q1623.0625,60.7969 1623.6719,60.7969 L1624.0938,60.7969 L1623.6875,59.7656 Z M1622.9688,58.0625 L1621.6094,54.6875 L1620.2344,58.0625 L1622.9688,58.0625 Z " fill="#000000"/><text fill="#000000" font-family="sans-serif" font-size="14" font-style="italic" lengthAdjust="spacing" textLength="92" x="1635.5" y="63.7285">MetodeIteratiu</text><rect fill="#FFFFFF" height="17.0938" style="stroke:#181818;stroke-width:1.0;stroke-dasharray:2.0,2.0;" width="163" x="1735.5" y="39"/><text fill="#000000" font-family="sans-serif" font-size="12" font-style="italic" lengthAdjust="spacing" textLength="161" x="1736.5" y="52.457">T extends EstatMetodeIteratiu</text><line style="stroke:#181818;stroke-width:0.5;" x1="1607.5" x2="1894.5" y1="74" y2="74"/><line style="stroke:#181818;stroke-width:0.5;" x1="1607.5" x2="1894.5" y1="82" y2="82"/></g><!--class MetodeIteratiuDescomposicio--><g id="elem_MetodeIteratiuDescomposicio"><rect codeLine="27" fill="#F1F1F1" height="48" id="MetodeIteratiuDescomposicio" rx="2.5" ry="2.5" style="stroke:#181818;stroke-width:0.5;" width="219" x="1598.5" y="150"/><ellipse cx="1613.5" cy="166" fill="#A9DCDF" rx="11" ry="11" style="stroke:#181818;stroke-width:1.0;"/><path d="M1615.6875,167.7656 L1611.5469,167.7656 L1611.125,168.7969 L1611.5469,168.7969 Q1612.1563,168.7969 1612.4219,169.0313 Q1612.6875,169.2656 1612.6875,169.6563 Q1612.6875,170.0313 1612.4219,170.2656 Q1612.1563,170.5 1611.5469,170.5 L1609.25,170.5 Q1608.6406,170.5 1608.3906,170.2656 Q1608.125,170.0313 1608.125,169.6406 Q1608.125,169.2656 1608.4063,169.0313 Q1608.6719,168.7813 1609.2969,168.7969 L1611.9688,162.1406 L1610.8594,162.1406 Q1610.25,162.1406 1609.9844,161.9063 Q1609.7188,161.6719 1609.7188,161.2813 Q1609.7188,160.9063 1609.9844,160.6719 Q1610.25,160.4375 1610.8594,160.4375 L1614.5313,160.4375 L1617.9219,168.7969 Q1618.5156,168.7969 1618.7031,168.9375 Q1619.0938,169.2031 1619.0938,169.6563 Q1619.0938,170.0313 1618.8281,170.2656 Q1618.5781,170.5 1617.9688,170.5 L1615.6719,170.5 Q1615.0625,170.5 1614.7969,170.2656 Q1614.5313,170.0313 1614.5313,169.6406 Q1614.5313,169.2656 1614.7969,169.0313 Q1615.0625,168.7969 1615.6719,168.7969 L1616.0938,168.7969 L1615.6875,167.7656 Z M1614.9688,166.0625 L1613.6094,162.6875 L1612.2344,166.0625 L1614.9688,166.0625 Z " fill="#000000"/><text fill="#000000" font-family="sans-serif" font-size="14" font-style="italic" lengthAdjust="spacing" textLength="187" x="1627.5" y="171.7285">MetodeIteratiuDescomposicio</text><line style="stroke:#181818;stroke-width:0.5;" x1="1599.5" x2="1816.5" y1="182" y2="182"/><line style="stroke:#181818;stroke-width:0.5;" x1="1599.5" x2="1816.5" y1="190" y2="190"/></g><!--class Jacobi--><g id="elem_Jacobi"><rect codeLine="28" fill="#F1F1F1" height="48" id="Jacobi" rx="2.5" ry="2.5" style="stroke:#181818;stroke-width:0.5;" width="72" x="1629" y="258"/><ellipse cx="1644" cy="274" fill="#ADD1B2" rx="11" ry="11" style="stroke:#181818;stroke-width:1.0;"/><path d="M1646.7656,269.875 Q1646.9219,269.6563 1647.1094,269.5469 Q1647.2969,269.4375 1647.5156,269.4375 Q1647.8906,269.4375 1648.125,269.7031 Q1648.3594,269.9531 1648.3594,270.5625 L1648.3594,272.0156 Q1648.3594,272.625 1648.125,272.8906 Q1647.8906,273.1563 1647.5156,273.1563 Q1647.1719,273.1563 1646.9688,272.9531 Q1646.7656,272.7656 1646.6563,272.25 Q1646.6094,271.8906 1646.4219,271.7031 Q1646.0938,271.3281 1645.4844,271.1094 Q1644.875,270.8906 1644.25,270.8906 Q1643.4844,270.8906 1642.8438,271.2188 Q1642.2188,271.5469 1641.7188,272.2969 Q1641.2344,273.0469 1641.2344,274.0781 L1641.2344,275.1719 Q1641.2344,276.4063 1642.125,277.2344 Q1643.0156,278.0469 1644.6094,278.0469 Q1645.5469,278.0469 1646.2031,277.7969 Q1646.5938,277.6406 1647.0156,277.2031 Q1647.2813,276.9375 1647.4219,276.8594 Q1647.5781,276.7813 1647.7813,276.7813 Q1648.1094,276.7813 1648.3594,277.0469 Q1648.625,277.2969 1648.625,277.6406 Q1648.625,277.9844 1648.2813,278.3906 Q1647.7813,278.9688 1646.9844,279.2969 Q1645.9063,279.75 1644.6094,279.75 Q1643.0938,279.75 1641.8906,279.125 Q1640.9063,278.625 1640.2188,277.5625 Q1639.5313,276.4844 1639.5313,275.2031 L1639.5313,274.0469 Q1639.5313,272.7188 1640.1406,271.5781 Q1640.7656,270.4219 1641.8594,269.8125 Q1642.9531,269.1875 1644.1875,269.1875 Q1644.9219,269.1875 1645.5625,269.3594 Q1646.2188,269.5156 1646.7656,269.875 Z " fill="#000000"/><text fill="#000000" font-family="sans-serif" font-size="14" lengthAdjust="spacing" textLength="40" x="1658" y="279.7285">Jacobi</text><line style="stroke:#181818;stroke-width:0.5;" x1="1630" x2="1700" y1="290" y2="290"/><line style="stroke:#181818;stroke-width:0.5;" x1="1630" x2="1700" y1="298" y2="298"/></g><!--class SobreRelaxacioSuccessiva--><g id="elem_SobreRelaxacioSuccessiva"><rect codeLine="29" fill="#F1F1F1" height="48" id="SobreRelaxacioSuccessiva" rx="2.5" ry="2.5" style="stroke:#181818;stroke-width:0.5;" width="202" x="1736" y="258"/><ellipse cx="1751" cy="274" fill="#ADD1B2" rx="11" ry="11" style="stroke:#181818;stroke-width:1.0;"/><path d="M1753.7656,269.875 Q1753.9219,269.6563 1754.1094,269.5469 Q1754.2969,269.4375 1754.5156,269.4375 Q1754.8906,269.4375 1755.125,269.7031 Q1755.3594,269.9531 1755.3594,270.5625 L1755.3594,272.0156 Q1755.3594,272.625 1755.125,272.8906 Q1754.8906,273.1563 1754.5156,273.1563 Q1754.1719,273.1563 1753.9688,272.9531 Q1753.7656,272.7656 1753.6563,272.25 Q1753.6094,271.8906 1753.4219,271.7031 Q1753.0938,271.3281 1752.4844,271.1094 Q1751.875,270.8906 1751.25,270.8906 Q1750.4844,270.8906 1749.8438,271.2188 Q1749.2188,271.5469 1748.7188,272.2969 Q1748.2344,273.0469 1748.2344,274.0781 L1748.2344,275.1719 Q1748.2344,276.4063 1749.125,277.2344 Q1750.0156,278.0469 1751.6094,278.0469 Q1752.5469,278.0469 1753.2031,277.7969 Q1753.5938,277.6406 1754.0156,277.2031 Q1754.2813,276.9375 1754.4219,276.8594 Q1754.5781,276.7813 1754.7813,276.7813 Q1755.1094,276.7813 1755.3594,277.0469 Q1755.625,277.2969 1755.625,277.6406 Q1755.625,277.9844 1755.2813,278.3906 Q1754.7813,278.9688 1753.9844,279.2969 Q1752.9063,279.75 1751.6094,279.75 Q1750.0938,279.75 1748.8906,279.125 Q1747.9063,278.625 1747.2188,277.5625 Q1746.5313,276.4844 1746.5313,275.2031 L1746.5313,274.0469 Q1746.5313,272.7188 1747.1406,271.5781 Q1747.7656,270.4219 1748.8594,269.8125 Q1749.9531,269.1875 1751.1875,269.1875 Q1751.9219,269.1875 1752.5625,269.3594 Q1753.2188,269.5156 1753.7656,269.875 Z " fill="#000000"/><text fill="#000000" font-family="sans-serif" font-size="14" lengthAdjust="spacing" textLength="170" x="1765" y="279.7285">SobreRelaxacioSuccessiva</text><line style="stroke:#181818;stroke-width:0.5;" x1="1737" x2="1937" y1="290" y2="290"/><line style="stroke:#181818;stroke-width:0.5;" x1="1737" x2="1937" y1="298" y2="298"/></g><!--class GaussSeidel--><g id="elem_GaussSeidel"><rect codeLine="30" fill="#F1F1F1" height="48" id="GaussSeidel" rx="2.5" ry="2.5" style="stroke:#181818;stroke-width:0.5;" width="112" x="1781" y="366"/><ellipse cx="1796" cy="382" fill="#ADD1B2" rx="11" ry="11" style="stroke:#181818;stroke-width:1.0;"/><path d="M1798.7656,377.875 Q1798.9219,377.6563 1799.1094,377.5469 Q1799.2969,377.4375 1799.5156,377.4375 Q1799.8906,377.4375 1800.125,377.7031 Q1800.3594,377.9531 1800.3594,378.5625 L1800.3594,380.0156 Q1800.3594,380.625 1800.125,380.8906 Q1799.8906,381.1563 1799.5156,381.1563 Q1799.1719,381.1563 1798.9688,380.9531 Q1798.7656,380.7656 1798.6563,380.25 Q1798.6094,379.8906 1798.4219,379.7031 Q1798.0938,379.3281 1797.4844,379.1094 Q1796.875,378.8906 1796.25,378.8906 Q1795.4844,378.8906 1794.8438,379.2188 Q1794.2188,379.5469 1793.7188,380.2969 Q1793.2344,381.0469 1793.2344,382.0781 L1793.2344,383.1719 Q1793.2344,384.4063 1794.125,385.2344 Q1795.0156,386.0469 1796.6094,386.0469 Q1797.5469,386.0469 1798.2031,385.7969 Q1798.5938,385.6406 1799.0156,385.2031 Q1799.2813,384.9375 1799.4219,384.8594 Q1799.5781,384.7813 1799.7813,384.7813 Q1800.1094,384.7813 1800.3594,385.0469 Q1800.625,385.2969 1800.625,385.6406 Q1800.625,385.9844 1800.2813,386.3906 Q1799.7813,386.9688 1798.9844,387.2969 Q1797.9063,387.75 1796.6094,387.75 Q1795.0938,387.75 1793.8906,387.125 Q1792.9063,386.625 1792.2188,385.5625 Q1791.5313,384.4844 1791.5313,383.2031 L1791.5313,382.0469 Q1791.5313,380.7188 1792.1406,379.5781 Q1792.7656,378.4219 1793.8594,377.8125 Q1794.9531,377.1875 1796.1875,377.1875 Q1796.9219,377.1875 1797.5625,377.3594 Q1798.2188,377.5156 1798.7656,377.875 Z " fill="#000000"/><text fill="#000000" font-family="sans-serif" font-size="14" lengthAdjust="spacing" textLength="80" x="1810" y="387.7285">GaussSeidel</text><line style="stroke:#181818;stroke-width:0.5;" x1="1782" x2="1892" y1="398" y2="398"/><line style="stroke:#181818;stroke-width:0.5;" x1="1782" x2="1892" y1="406" y2="406"/></g><!--class Gradient--><g id="elem_Gradient"><rect codeLine="32" fill="#F1F1F1" height="48" id="Gradient" rx="2.5" ry="2.5" style="stroke:#181818;stroke-width:0.5;" width="87" x="1852.5" y="150"/><ellipse cx="1867.5" cy="166" fill="#ADD1B2" rx="11" ry="11" style="stroke:#181818;stroke-width:1.0;"/><path d="M1870.2656,161.875 Q1870.4219,161.6563 1870.6094,161.5469 Q1870.7969,161.4375 1871.0156,161.4375 Q1871.3906,161.4375 1871.625,161.7031 Q1871.8594,161.9531 1871.8594,162.5625 L1871.8594,164.0156 Q1871.8594,164.625 1871.625,164.8906 Q1871.3906,165.1563 1871.0156,165.1563 Q1870.6719,165.1563 1870.4688,164.9531 Q1870.2656,164.7656 1870.1563,164.25 Q1870.1094,163.8906 1869.9219,163.7031 Q1869.5938,163.3281 1868.9844,163.1094 Q1868.375,162.8906 1867.75,162.8906 Q1866.9844,162.8906 1866.3438,163.2188 Q1865.7188,163.5469 1865.2188,164.2969 Q1864.7344,165.0469 1864.7344,166.0781 L1864.7344,167.1719 Q1864.7344,168.4063 1865.625,169.2344 Q1866.5156,170.0469 1868.1094,170.0469 Q1869.0469,170.0469 1869.7031,169.7969 Q1870.0938,169.6406 1870.5156,169.2031 Q1870.7813,168.9375 1870.9219,168.8594 Q1871.0781,168.7813 1871.2813,168.7813 Q1871.6094,168.7813 1871.8594,169.0469 Q1872.125,169.2969 1872.125,169.6406 Q1872.125,169.9844 1871.7813,170.3906 Q1871.2813,170.9688 1870.4844,171.2969 Q1869.4063,171.75 1868.1094,171.75 Q1866.5938,171.75 1865.3906,171.125 Q1864.4063,170.625 1863.7188,169.5625 Q1863.0313,168.4844 1863.0313,167.2031 L1863.0313,166.0469 Q1863.0313,164.7188 1863.6406,163.5781 Q1864.2656,162.4219 1865.3594,161.8125 Q1866.4531,161.1875 1867.6875,161.1875 Q1868.4219,161.1875 1869.0625,161.3594 Q1869.7188,161.5156 1870.2656,161.875 Z " fill="#000000"/><text fill="#000000" font-family="sans-serif" font-size="14" lengthAdjust="spacing" textLength="55" x="1881.5" y="171.7285">Gradient</text><line style="stroke:#181818;stroke-width:0.5;" x1="1853.5" x2="1938.5" y1="182" y2="182"/><line style="stroke:#181818;stroke-width:0.5;" x1="1853.5" x2="1938.5" y1="190" y2="190"/></g><!--class EstatMetodeIteratiu--><g id="elem_EstatMetodeIteratiu"><rect codeLine="34" fill="#F1F1F1" height="48" id="EstatMetodeIteratiu" rx="2.5" ry="2.5" style="stroke:#181818;stroke-width:0.5;" width="154" x="1250" y="42"/><ellipse cx="1265" cy="58" fill="#ADD1B2" rx="11" ry="11" style="stroke:#181818;stroke-width:1.0;"/><path d="M1267.7656,53.875 Q1267.9219,53.6563 1268.1094,53.5469 Q1268.2969,53.4375 1268.5156,53.4375 Q1268.8906,53.4375 1269.125,53.7031 Q1269.3594,53.9531 1269.3594,54.5625 L1269.3594,56.0156 Q1269.3594,56.625 1269.125,56.8906 Q1268.8906,57.1563 1268.5156,57.1563 Q1268.1719,57.1563 1267.9688,56.9531 Q1267.7656,56.7656 1267.6563,56.25 Q1267.6094,55.8906 1267.4219,55.7031 Q1267.0938,55.3281 1266.4844,55.1094 Q1265.875,54.8906 1265.25,54.8906 Q1264.4844,54.8906 1263.8438,55.2188 Q1263.2188,55.5469 1262.7188,56.2969 Q1262.2344,57.0469 1262.2344,58.0781 L1262.2344,59.1719 Q1262.2344,60.4063 1263.125,61.2344 Q1264.0156,62.0469 1265.6094,62.0469 Q1266.5469,62.0469 1267.2031,61.7969 Q1267.5938,61.6406 1268.0156,61.2031 Q1268.2813,60.9375 1268.4219,60.8594 Q1268.5781,60.7813 1268.7813,60.7813 Q1269.1094,60.7813 1269.3594,61.0469 Q1269.625,61.2969 1269.625,61.6406 Q1269.625,61.9844 1269.2813,62.3906 Q1268.7813,62.9688 1267.9844,63.2969 Q1266.9063,63.75 1265.6094,63.75 Q1264.0938,63.75 1262.8906,63.125 Q1261.9063,62.625 1261.2188,61.5625 Q1260.5313,60.4844 1260.5313,59.2031 L1260.5313,58.0469 Q1260.5313,56.7188 1261.1406,55.5781 Q1261.7656,54.4219 1262.8594,53.8125 Q1263.9531,53.1875 1265.1875,53.1875 Q1265.9219,53.1875 1266.5625,53.3594 Q1267.2188,53.5156 1267.7656,53.875 Z " fill="#000000"/><text fill="#000000" font-family="sans-serif" font-size="14" lengthAdjust="spacing" textLength="122" x="1279" y="63.7285">EstatMetodeIteratiu</text><line style="stroke:#181818;stroke-width:0.5;" x1="1251" x2="1403" y1="74" y2="74"/><line style="stroke:#181818;stroke-width:0.5;" x1="1251" x2="1403" y1="82" y2="82"/></g><!--class EstatMetodeIteratiuDescomposicio--><g id="elem_EstatMetodeIteratiuDescomposicio"><rect codeLine="35" fill="#F1F1F1" height="48" id="EstatMetodeIteratiuDescomposicio" rx="2.5" ry="2.5" style="stroke:#181818;stroke-width:0.5;" width="249" x="1070.5" y="150"/><ellipse cx="1085.5" cy="166" fill="#ADD1B2" rx="11" ry="11" style="stroke:#181818;stroke-width:1.0;"/><path d="M1088.2656,161.875 Q1088.4219,161.6563 1088.6094,161.5469 Q1088.7969,161.4375 1089.0156,161.4375 Q1089.3906,161.4375 1089.625,161.7031 Q1089.8594,161.9531 1089.8594,162.5625 L1089.8594,164.0156 Q1089.8594,164.625 1089.625,164.8906 Q1089.3906,165.1563 1089.0156,165.1563 Q1088.6719,165.1563 1088.4688,164.9531 Q1088.2656,164.7656 1088.1563,164.25 Q1088.1094,163.8906 1087.9219,163.7031 Q1087.5938,163.3281 1086.9844,163.1094 Q1086.375,162.8906 1085.75,162.8906 Q1084.9844,162.8906 1084.3438,163.2188 Q1083.7188,163.5469 1083.2188,164.2969 Q1082.7344,165.0469 1082.7344,166.0781 L1082.7344,167.1719 Q1082.7344,168.4063 1083.625,169.2344 Q1084.5156,170.0469 1086.1094,170.0469 Q1087.0469,170.0469 1087.7031,169.7969 Q1088.0938,169.6406 1088.5156,169.2031 Q1088.7813,168.9375 1088.9219,168.8594 Q1089.0781,168.7813 1089.2813,168.7813 Q1089.6094,168.7813 1089.8594,169.0469 Q1090.125,169.2969 1090.125,169.6406 Q1090.125,169.9844 1089.7813,170.3906 Q1089.2813,170.9688 1088.4844,171.2969 Q1087.4063,171.75 1086.1094,171.75 Q1084.5938,171.75 1083.3906,171.125 Q1082.4063,170.625 1081.7188,169.5625 Q1081.0313,168.4844 1081.0313,167.2031 L1081.0313,166.0469 Q1081.0313,164.7188 1081.6406,163.5781 Q1082.2656,162.4219 1083.3594,161.8125 Q1084.4531,161.1875 1085.6875,161.1875 Q1086.4219,161.1875 1087.0625,161.3594 Q1087.7188,161.5156 1088.2656,161.875 Z " fill="#000000"/><text fill="#000000" font-family="sans-serif" font-size="14" lengthAdjust="spacing" textLength="217" x="1099.5" y="171.7285">EstatMetodeIteratiuDescomposicio</text><line style="stroke:#181818;stroke-width:0.5;" x1="1071.5" x2="1318.5" y1="182" y2="182"/><line style="stroke:#181818;stroke-width:0.5;" x1="1071.5" x2="1318.5" y1="190" y2="190"/></g><!--class EstatMetodeIteratiuGradient--><g id="elem_EstatMetodeIteratiuGradient"><rect codeLine="36" fill="#F1F1F1" height="48" id="EstatMetodeIteratiuGradient" rx="2.5" ry="2.5" style="stroke:#181818;stroke-width:0.5;" width="209" x="1354.5" y="150"/><ellipse cx="1369.5" cy="166" fill="#ADD1B2" rx="11" ry="11" style="stroke:#181818;stroke-width:1.0;"/><path d="M1372.2656,161.875 Q1372.4219,161.6563 1372.6094,161.5469 Q1372.7969,161.4375 1373.0156,161.4375 Q1373.3906,161.4375 1373.625,161.7031 Q1373.8594,161.9531 1373.8594,162.5625 L1373.8594,164.0156 Q1373.8594,164.625 1373.625,164.8906 Q1373.3906,165.1563 1373.0156,165.1563 Q1372.6719,165.1563 1372.4688,164.9531 Q1372.2656,164.7656 1372.1563,164.25 Q1372.1094,163.8906 1371.9219,163.7031 Q1371.5938,163.3281 1370.9844,163.1094 Q1370.375,162.8906 1369.75,162.8906 Q1368.9844,162.8906 1368.3438,163.2188 Q1367.7188,163.5469 1367.2188,164.2969 Q1366.7344,165.0469 1366.7344,166.0781 L1366.7344,167.1719 Q1366.7344,168.4063 1367.625,169.2344 Q1368.5156,170.0469 1370.1094,170.0469 Q1371.0469,170.0469 1371.7031,169.7969 Q1372.0938,169.6406 1372.5156,169.2031 Q1372.7813,168.9375 1372.9219,168.8594 Q1373.0781,168.7813 1373.2813,168.7813 Q1373.6094,168.7813 1373.8594,169.0469 Q1374.125,169.2969 1374.125,169.6406 Q1374.125,169.9844 1373.7813,170.3906 Q1373.2813,170.9688 1372.4844,171.2969 Q1371.4063,171.75 1370.1094,171.75 Q1368.5938,171.75 1367.3906,171.125 Q1366.4063,170.625 1365.7188,169.5625 Q1365.0313,168.4844 1365.0313,167.2031 L1365.0313,166.0469 Q1365.0313,164.7188 1365.6406,163.5781 Q1366.2656,162.4219 1367.3594,161.8125 Q1368.4531,161.1875 1369.6875,161.1875 Q1370.4219,161.1875 1371.0625,161.3594 Q1371.7188,161.5156 1372.2656,161.875 Z " fill="#000000"/><text fill="#000000" font-family="sans-serif" font-size="14" lengthAdjust="spacing" textLength="177" x="1383.5" y="171.7285">EstatMetodeIteratiuGradient</text><line style="stroke:#181818;stroke-width:0.5;" x1="1355.5" x2="1562.5" y1="182" y2="182"/><line style="stroke:#181818;stroke-width:0.5;" x1="1355.5" x2="1562.5" y1="190" y2="190"/></g><!--class EstatMetodeIteratiuGradientConjugat--><g id="elem_EstatMetodeIteratiuGradientConjugat"><rect codeLine="37" fill="#F1F1F1" height="48" id="EstatMetodeIteratiuGradientConjugat" rx="2.5" ry="2.5" style="stroke:#181818;stroke-width:0.5;" width="266" x="1326" y="258"/><ellipse cx="1341" cy="274" fill="#ADD1B2" rx="11" ry="11" style="stroke:#181818;stroke-width:1.0;"/><path d="M1343.7656,269.875 Q1343.9219,269.6563 1344.1094,269.5469 Q1344.2969,269.4375 1344.5156,269.4375 Q1344.8906,269.4375 1345.125,269.7031 Q1345.3594,269.9531 1345.3594,270.5625 L1345.3594,272.0156 Q1345.3594,272.625 1345.125,272.8906 Q1344.8906,273.1563 1344.5156,273.1563 Q1344.1719,273.1563 1343.9688,272.9531 Q1343.7656,272.7656 1343.6563,272.25 Q1343.6094,271.8906 1343.4219,271.7031 Q1343.0938,271.3281 1342.4844,271.1094 Q1341.875,270.8906 1341.25,270.8906 Q1340.4844,270.8906 1339.8438,271.2188 Q1339.2188,271.5469 1338.7188,272.2969 Q1338.2344,273.0469 1338.2344,274.0781 L1338.2344,275.1719 Q1338.2344,276.4063 1339.125,277.2344 Q1340.0156,278.0469 1341.6094,278.0469 Q1342.5469,278.0469 1343.2031,277.7969 Q1343.5938,277.6406 1344.0156,277.2031 Q1344.2813,276.9375 1344.4219,276.8594 Q1344.5781,276.7813 1344.7813,276.7813 Q1345.1094,276.7813 1345.3594,277.0469 Q1345.625,277.2969 1345.625,277.6406 Q1345.625,277.9844 1345.2813,278.3906 Q1344.7813,278.9688 1343.9844,279.2969 Q1342.9063,279.75 1341.6094,279.75 Q1340.0938,279.75 1338.8906,279.125 Q1337.9063,278.625 1337.2188,277.5625 Q1336.5313,276.4844 1336.5313,275.2031 L1336.5313,274.0469 Q1336.5313,272.7188 1337.1406,271.5781 Q1337.7656,270.4219 1338.8594,269.8125 Q1339.9531,269.1875 1341.1875,269.1875 Q1341.9219,269.1875 1342.5625,269.3594 Q1343.2188,269.5156 1343.7656,269.875 Z " fill="#000000"/><text fill="#000000" font-family="sans-serif" font-size="14" lengthAdjust="spacing" textLength="234" x="1355" y="279.7285">EstatMetodeIteratiuGradientConjugat</text><line style="stroke:#181818;stroke-width:0.5;" x1="1327" x2="1591" y1="290" y2="290"/><line style="stroke:#181818;stroke-width:0.5;" x1="1327" x2="1591" y1="298" y2="298"/></g><!--reverse link Factoritzacio to MetodeDirecte--><g id="link_Factoritzacio_MetodeDirecte"><path d="M438.0087,100.6227 C413.7687,118.3427 394.94,132.11 370.65,149.86 " fill="none" id="Factoritzacio-backto-MetodeDirecte" style="stroke:#181818;stroke-width:1.0;"/><polygon fill="none" points="452.54,90,434.4678,95.7789,441.5496,105.4665,452.54,90" style="stroke:#181818;stroke-width:1.0;"/></g><!--reverse link MetodeDirecte to FactoritzacioLU--><g id="link_MetodeDirecte_FactoritzacioLU"><path d="M267.958,205.0027 C225.998,222.7227 184.83,240.11 142.79,257.86 " fill="none" id="MetodeDirecte-backto-FactoritzacioLU" style="stroke:#181818;stroke-width:1.0;"/><polygon fill="none" points="284.54,198,265.6238,199.4754,270.2922,210.53,284.54,198" style="stroke:#181818;stroke-width:1.0;"/></g><!--reverse link FactoritzacioLU to FactoritzacioLUCompacta--><g id="link_FactoritzacioLU_FactoritzacioLUCompacta"><path d="M100.1409,323.2323 C105.4709,340.8923 107.6,347.94 112.96,365.68 " fill="none" id="FactoritzacioLU-backto-FactoritzacioLUCompacta" style="stroke:#181818;stroke-width:1.0;"/><polygon fill="none" points="94.94,306,94.3968,324.9659,105.885,321.4986,94.94,306" style="stroke:#181818;stroke-width:1.0;"/></g><!--reverse link FactoritzacioLU to FactoritzacioLUGaussiana--><g id="link_FactoritzacioLU_FactoritzacioLUGaussiana"><path d="M161.7647,312.7295 C205.7247,330.4495 249.54,348.11 293.59,365.86 " fill="none" id="FactoritzacioLU-backto-FactoritzacioLUGaussiana" style="stroke:#181818;stroke-width:1.0;"/><polygon fill="none" points="145.07,306,159.5215,318.2944,164.0079,307.1646,145.07,306" style="stroke:#181818;stroke-width:1.0;"/></g><!--reverse link FactoritzacioLUGaussiana to FactoritzacioLUParcial--><g id="link_FactoritzacioLUGaussiana_FactoritzacioLUParcial"><path d="M348.6824,431.9712 C347.6824,449.6312 347.32,455.94 346.32,473.68 " fill="none" id="FactoritzacioLUGaussiana-backto-FactoritzacioLUParcial" style="stroke:#181818;stroke-width:1.0;"/><polygon fill="none" points="349.7,414,342.692,431.632,354.6728,432.3104,349.7,414" style="stroke:#181818;stroke-width:1.0;"/></g><!--reverse link FactoritzacioLUGaussiana to FactoritzacioLUParcialEsglaonat--><g id="link_FactoritzacioLUGaussiana_FactoritzacioLUParcialEsglaonat"><path d="M417.9441,421.4538 C456.8941,439.1738 494.12,456.11 533.14,473.86 " fill="none" id="FactoritzacioLUGaussiana-backto-FactoritzacioLUParcialEsglaonat" style="stroke:#181818;stroke-width:1.0;"/><polygon fill="none" points="401.56,414,415.4595,426.9152,420.4288,415.9925,401.56,414" style="stroke:#181818;stroke-width:1.0;"/></g><!--reverse link FactoritzacioLUCompacta to Doolittle--><g id="link_FactoritzacioLUCompacta_Doolittle"><path d="M103.2038,430.5678 C95.7038,448.2278 92.43,455.94 84.9,473.68 " fill="none" id="FactoritzacioLUCompacta-backto-Doolittle" style="stroke:#181818;stroke-width:1.0;"/><polygon fill="none" points="110.24,414,97.6812,428.2224,108.7264,432.9132,110.24,414" style="stroke:#181818;stroke-width:1.0;"/></g><!--reverse link FactoritzacioLUCompacta to Crout--><g id="link_FactoritzacioLUCompacta_Crout"><path d="M143.51,429.3444 C154.34,447.0044 159.82,455.94 170.7,473.68 " fill="none" id="FactoritzacioLUCompacta-backto-Crout" style="stroke:#181818;stroke-width:1.0;"/><polygon fill="none" points="134.1,414,138.3952,432.4811,148.6248,426.2078,134.1,414" style="stroke:#181818;stroke-width:1.0;"/></g><!--reverse link MetodeDirecte to FactoritzacioLDLT--><g id="link_MetodeDirecte_FactoritzacioLDLT"><path d="M311.7157,212.5665 C298.8957,230.2265 291.83,239.94 278.94,257.68 " fill="none" id="MetodeDirecte-backto-FactoritzacioLDLT" style="stroke:#181818;stroke-width:1.0;"/><polygon fill="none" points="322.29,198,306.8602,209.0417,316.5712,216.0913,322.29,198" style="stroke:#181818;stroke-width:1.0;"/></g><!--reverse link MetodeDirecte to Cholesky--><g id="link_MetodeDirecte_Cholesky"><path d="M366.2843,212.5665 C379.1043,230.2265 386.17,239.94 399.06,257.68 " fill="none" id="MetodeDirecte-backto-Cholesky" style="stroke:#181818;stroke-width:1.0;"/><polygon fill="none" points="355.71,198,361.4288,216.0913,371.1398,209.0417,355.71,198" style="stroke:#181818;stroke-width:1.0;"/></g><!--reverse link Factoritzacio to FactoritzacioQR--><g id="link_Factoritzacio_FactoritzacioQR"><path d="M532.2464,100.2068 C557.9864,117.9268 578.59,132.11 604.38,149.86 " fill="none" id="Factoritzacio-backto-FactoritzacioQR" style="stroke:#181818;stroke-width:1.0;"/><polygon fill="none" points="517.42,90,528.8441,105.1489,535.6486,95.2647,517.42,90" style="stroke:#181818;stroke-width:1.0;"/></g><!--reverse link FactoritzacioQR to Householder--><g id="link_FactoritzacioQR_Householder"><path d="M607.9983,211.9773 C593.6683,229.6373 585.31,239.94 570.92,257.68 " fill="none" id="FactoritzacioQR-backto-Householder" style="stroke:#181818;stroke-width:1.0;"/><polygon fill="none" points="619.34,198,603.3392,208.1967,612.6574,215.7579,619.34,198" style="stroke:#181818;stroke-width:1.0;"/></g><!--reverse link FactoritzacioQR to GramSchmidtClassic--><g id="link_FactoritzacioQR_GramSchmidtClassic"><path d="M668.0017,211.9773 C682.3317,229.6373 690.69,239.94 705.08,257.68 " fill="none" id="FactoritzacioQR-backto-GramSchmidtClassic" style="stroke:#181818;stroke-width:1.0;"/><polygon fill="none" points="656.66,198,663.3426,215.7579,672.6608,208.1967,656.66,198" style="stroke:#181818;stroke-width:1.0;"/></g><!--reverse link FactoritzacioQR to GramSchmidtModificat--><g id="link_FactoritzacioQR_GramSchmidtModificat"><path d="M717.6091,204.1985 C765.9191,221.9185 815.51,240.11 863.92,257.86 " fill="none" id="FactoritzacioQR-backto-GramSchmidtModificat" style="stroke:#181818;stroke-width:1.0;"/><polygon fill="none" points="700.71,198,715.5429,209.8316,719.6752,198.5655,700.71,198" style="stroke:#181818;stroke-width:1.0;"/></g><!--reverse link MetodeIteratiu to MetodeIteratiuDescomposicio--><g id="link_MetodeIteratiu_MetodeIteratiuDescomposicio"><path d="M1734.9069,106.6811 C1727.7469,124.3411 1724.66,131.94 1717.46,149.68 " fill="none" id="MetodeIteratiu-backto-MetodeIteratiuDescomposicio" style="stroke:#181818;stroke-width:1.0;"/><polygon fill="none" points="1741.67,90,1729.3465,104.4268,1740.4672,108.9355,1741.67,90" style="stroke:#181818;stroke-width:1.0;"/></g><!--reverse link MetodeIteratiuDescomposicio to Jacobi--><g id="link_MetodeIteratiuDescomposicio_Jacobi"><path d="M1691.9069,214.6811 C1684.7469,232.3411 1681.66,239.94 1674.46,257.68 " fill="none" id="MetodeIteratiuDescomposicio-backto-Jacobi" style="stroke:#181818;stroke-width:1.0;"/><polygon fill="none" points="1698.67,198,1686.3465,212.4268,1697.4672,216.9355,1698.67,198" style="stroke:#181818;stroke-width:1.0;"/></g><!--reverse link MetodeIteratiuDescomposicio to SobreRelaxacioSuccessiva--><g id="link_MetodeIteratiuDescomposicio_SobreRelaxacioSuccessiva"><path d="M1749.8967,209.4282 C1771.3867,227.0882 1787.03,239.94 1808.62,257.68 " fill="none" id="MetodeIteratiuDescomposicio-backto-SobreRelaxacioSuccessiva" style="stroke:#181818;stroke-width:1.0;"/><polygon fill="none" points="1735.99,198,1746.0873,214.0638,1753.7061,204.7926,1735.99,198" style="stroke:#181818;stroke-width:1.0;"/></g><!--reverse link SobreRelaxacioSuccessiva to GaussSeidel--><g id="link_SobreRelaxacioSuccessiva_GaussSeidel"><path d="M1837,324 C1837,341.66 1837,347.94 1837,365.68 " fill="none" id="SobreRelaxacioSuccessiva-backto-GaussSeidel" style="stroke:#181818;stroke-width:1.0;"/><polygon fill="none" points="1837,306,1831,324,1843,324,1837,306" style="stroke:#181818;stroke-width:1.0;"/></g><!--reverse link MetodeIteratiu to Gradient--><g id="link_MetodeIteratiu_Gradient"><path d="M1796.9913,100.6227 C1821.2313,118.3427 1840.06,132.11 1864.35,149.86 " fill="none" id="MetodeIteratiu-backto-Gradient" style="stroke:#181818;stroke-width:1.0;"/><polygon fill="none" points="1782.46,90,1793.4504,105.4665,1800.5322,95.7789,1782.46,90" style="stroke:#181818;stroke-width:1.0;"/></g><!--reverse link EstatMetodeIteratiu to EstatMetodeIteratiuDescomposicio--><g id="link_EstatMetodeIteratiu_EstatMetodeIteratiuDescomposicio"><path d="M1284.3256,101.271 C1262.3356,118.931 1246.13,131.94 1224.04,149.68 " fill="none" id="EstatMetodeIteratiu-backto-EstatMetodeIteratiuDescomposicio" style="stroke:#181818;stroke-width:1.0;"/><polygon fill="none" points="1298.36,90,1280.5686,96.5928,1288.0825,105.9491,1298.36,90" style="stroke:#181818;stroke-width:1.0;"/></g><!--reverse link EstatMetodeIteratiu to EstatMetodeIteratiuGradient--><g id="link_EstatMetodeIteratiu_EstatMetodeIteratiuGradient"><path d="M1369.6744,101.271 C1391.6644,118.931 1407.87,131.94 1429.96,149.68 " fill="none" id="EstatMetodeIteratiu-backto-EstatMetodeIteratiuGradient" style="stroke:#181818;stroke-width:1.0;"/><polygon fill="none" points="1355.64,90,1365.9175,105.9491,1373.4314,96.5928,1355.64,90" style="stroke:#181818;stroke-width:1.0;"/></g><!--reverse link EstatMetodeIteratiuGradient to EstatMetodeIteratiuGradientConjugat--><g id="link_EstatMetodeIteratiuGradient_EstatMetodeIteratiuGradientConjugat"><path d="M1459,216 C1459,233.66 1459,239.94 1459,257.68 " fill="none" id="EstatMetodeIteratiuGradient-backto-EstatMetodeIteratiuGradientConjugat" style="stroke:#181818;stroke-width:1.0;"/><polygon fill="none" points="1459,198,1453,216,1465,216,1459,198" style="stroke:#181818;stroke-width:1.0;"/></g><!--SRC=[dPDFKy8m4CNl_HIzULBkZkEb8Eh0Z82SdILPOJNjTfAjWpfyTqFvrsf3mPuopNk_PDzcBnOYkRlkT783cHIfkLASTfG1vourmTn26aKPfEXoK1YdAApHlMYog0HT_1t5_eEP4mjAuj8Ot_abMv8lKCHDWc69wMuWCIu5Cts2hIOOJFV66ku4OyAfhqQW-UJ1j4GqEljGE4UGXQrXxnDOHM12pZswbT1pSmESWRIZAgmkio4HWo7NBfMA9x5SIAi-UE7kuFb8ZxP7BDYWU_yC25kxEHeVUJyR_JqN3lqn6cspTZIkgFl-oK_K8YKjoVe7gVDCGzRqIYhK7MzRDKqK2LeGAW8ZjKdbOIkwEUJQSm9Itxrj1tJH-JdFsLT7_2lwdQPItYCedb50LsDLJ1EUMHoZWUMwxacX5FeqF-1CJFcO9qWQ3wCJGaVrbcZ2J4BLLQGD6HxVROxlRCoVA_wRa73sLipXA6cdZLO_]--></g></svg>