<svg xmlns="http://www.w3.org/2000/svg" xmlns:xlink="http://www.w3.org/1999/xlink" contentStyleType="text/css" data-diagram-type="CLASS" height="552px" preserveAspectRatio="none" style="width:2112px;height:552px;background:#FFFFFF;" version="1.1" viewBox="0 0 2112 552" width="2112px" zoomAndPan="magnify"><?plantuml 1.2026.4beta2?><defs/><g><!--cluster metodes_directes--><g class="cluster" data-qualified-name="metodes_directes" data-source-line="3" id="ent0002"><path d="M8.5,6 L148.7822,6 A3.75,3.75 0 0 1 151.2822,8.5 L158.2822,28.2969 L1091.5,28.2969 A2.5,2.5 0 0 1 1094,30.7969 L1094,534.5 A2.5,2.5 0 0 1 1091.5,537 L8.5,537 A2.5,2.5 0 0 1 6,534.5 L6,8.5 A2.5,2.5 0 0 1 8.5,6" fill="none" style="stroke:#000000;stroke-width:1.5;"/><line style="stroke:#000000;stroke-width:1.5;" x1="6" x2="158.2822" y1="28.2969" y2="28.2969"/><text fill="#000000" font-family="sans-serif" font-size="14" font-weight="700" lengthAdjust="spacing" textLength="139.2822" x="10" y="20.9951">metodes_directes</text></g><!--cluster metodes_iteratius--><g class="cluster" data-qualified-name="metodes_iteratius" data-source-line="25" id="ent0032"><path d="M1120.5,6 L1263.8721,6 A3.75,3.75 0 0 1 1266.3721,8.5 L1273.3721,28.2969 L2094.5,28.2969 A2.5,2.5 0 0 1 2097,30.7969 L2097,426.5 A2.5,2.5 0 0 1 2094.5,429 L1120.5,429 A2.5,2.5 0 0 1 1118,426.5 L1118,8.5 A2.5,2.5 0 0 1 1120.5,6" fill="none" style="stroke:#000000;stroke-width:1.5;"/><line style="stroke:#000000;stroke-width:1.5;" x1="1118" x2="1273.3721" y1="28.2969" y2="28.2969"/><text fill="#000000" font-family="sans-serif" font-size="14" font-weight="700" lengthAdjust="spacing" textLength="142.3721" x="1122" y="20.9951">metodes_iteratius</text></g><!--class Factoritzacio--><g class="entity" data-qualified-name="metodes_directes.Factoritzacio" data-source-line="4" id="ent0003"><rect fill="#F1F1F1" height="48" rx="2.5" ry="2.5" style="stroke:#181818;stroke-width:0.5;" width="121.5986" x="446.2" y="41"/><ellipse cx="461.2" cy="57" fill="#A9DCDF" rx="11" ry="11" style="stroke:#181818;stroke-width:1;"/><path d="M461.3094,52.3438 L460.1531,57.4219 L462.4813,57.4219 L461.3094,52.3438 Z M459.825,50.1094 L462.8094,50.1094 L466.1688,62.5 L463.7156,62.5 L462.95,59.4375 L459.6688,59.4375 L458.9188,62.5 L456.4813,62.5 L459.825,50.1094 Z " fill="#000000"/><text fill="#000000" font-family="sans-serif" font-size="14" font-style="italic" lengthAdjust="spacing" textLength="89.5986" x="475.2" y="61.8467">Factoritzacio</text><line style="stroke:#181818;stroke-width:0.5;" x1="447.2" x2="566.7986" y1="73" y2="73"/><line style="stroke:#181818;stroke-width:0.5;" x1="447.2" x2="566.7986" y1="81" y2="81"/></g><!--class MetodeDirecte--><g class="entity" data-qualified-name="metodes_directes.MetodeDirecte" data-source-line="5" id="ent0004"><rect fill="#F1F1F1" height="48" rx="2.5" ry="2.5" style="stroke:#181818;stroke-width:0.5;" width="135.0859" x="287.46" y="149"/><ellipse cx="302.46" cy="165" fill="#A9DCDF" rx="11" ry="11" style="stroke:#181818;stroke-width:1;"/><path d="M302.5694,160.3438 L301.4131,165.4219 L303.7413,165.4219 L302.5694,160.3438 Z M301.085,158.1094 L304.0694,158.1094 L307.4288,170.5 L304.9756,170.5 L304.21,167.4375 L300.9288,167.4375 L300.1788,170.5 L297.7413,170.5 L301.085,158.1094 Z " fill="#000000"/><text fill="#000000" font-family="sans-serif" font-size="14" font-style="italic" lengthAdjust="spacing" textLength="103.0859" x="316.46" y="169.8467">MetodeDirecte</text><line style="stroke:#181818;stroke-width:0.5;" x1="288.46" x2="421.5459" y1="181" y2="181"/><line style="stroke:#181818;stroke-width:0.5;" x1="288.46" x2="421.5459" y1="189" y2="189"/></g><!--class FactoritzacioLU--><g class="entity" data-qualified-name="metodes_directes.FactoritzacioLU" data-source-line="6" id="ent0006"><rect fill="#F1F1F1" height="48" rx="2.5" ry="2.5" style="stroke:#181818;stroke-width:0.5;" width="139.6455" x="22.18" y="257"/><ellipse cx="37.18" cy="273" fill="#A9DCDF" rx="11" ry="11" style="stroke:#181818;stroke-width:1;"/><path d="M37.2894,268.3438 L36.1331,273.4219 L38.4613,273.4219 L37.2894,268.3438 Z M35.805,266.1094 L38.7894,266.1094 L42.1488,278.5 L39.6956,278.5 L38.93,275.4375 L35.6488,275.4375 L34.8988,278.5 L32.4613,278.5 L35.805,266.1094 Z " fill="#000000"/><text fill="#000000" font-family="sans-serif" font-size="14" font-style="italic" lengthAdjust="spacing" textLength="107.6455" x="51.18" y="277.8467">FactoritzacioLU</text><line style="stroke:#181818;stroke-width:0.5;" x1="23.18" x2="160.8255" y1="289" y2="289"/><line style="stroke:#181818;stroke-width:0.5;" x1="23.18" x2="160.8255" y1="297" y2="297"/></g><!--class FactoritzacioLUCompacta--><g class="entity" data-qualified-name="metodes_directes.FactoritzacioLUCompacta" data-source-line="7" id="ent0008"><rect fill="#F1F1F1" height="48" rx="2.5" ry="2.5" style="stroke:#181818;stroke-width:0.5;" width="210.8555" x="21.57" y="365"/><ellipse cx="36.57" cy="381" fill="#A9DCDF" rx="11" ry="11" style="stroke:#181818;stroke-width:1;"/><path d="M36.6794,376.3438 L35.5231,381.4219 L37.8513,381.4219 L36.6794,376.3438 Z M35.195,374.1094 L38.1794,374.1094 L41.5388,386.5 L39.0856,386.5 L38.32,383.4375 L35.0388,383.4375 L34.2888,386.5 L31.8513,386.5 L35.195,374.1094 Z " fill="#000000"/><text fill="#000000" font-family="sans-serif" font-size="14" font-style="italic" lengthAdjust="spacing" textLength="178.8555" x="50.57" y="385.8467">FactoritzacioLUCompacta</text><line style="stroke:#181818;stroke-width:0.5;" x1="22.57" x2="231.4255" y1="397" y2="397"/><line style="stroke:#181818;stroke-width:0.5;" x1="22.57" x2="231.4255" y1="405" y2="405"/></g><!--class FactoritzacioLUGaussiana--><g class="entity" data-qualified-name="metodes_directes.FactoritzacioLUGaussiana" data-source-line="8" id="ent0010"><rect fill="#F1F1F1" height="48" rx="2.5" ry="2.5" style="stroke:#181818;stroke-width:0.5;" width="212.4551" x="267.77" y="365"/><ellipse cx="282.77" cy="381" fill="#ADD1B2" rx="11" ry="11" style="stroke:#181818;stroke-width:1;"/><path d="M285.7388,386.6406 Q285.1606,386.9375 284.52,387.0781 Q283.8794,387.2344 283.1763,387.2344 Q280.6763,387.2344 279.3481,385.5938 Q278.0356,383.9375 278.0356,380.8125 Q278.0356,377.6875 279.3481,376.0313 Q280.6763,374.375 283.1763,374.375 Q283.8794,374.375 284.52,374.5313 Q285.1763,374.6875 285.7388,374.9844 L285.7388,377.7031 Q285.1138,377.125 284.52,376.8594 Q283.9263,376.5781 283.3013,376.5781 Q281.9575,376.5781 281.27,377.6563 Q280.5825,378.7188 280.5825,380.8125 Q280.5825,382.9063 281.27,383.9844 Q281.9575,385.0469 283.3013,385.0469 Q283.9263,385.0469 284.52,384.7813 Q285.1138,384.5 285.7388,383.9219 L285.7388,386.6406 Z " fill="#000000"/><text fill="#000000" font-family="sans-serif" font-size="14" lengthAdjust="spacing" textLength="180.4551" x="296.77" y="385.8467">FactoritzacioLUGaussiana</text><line style="stroke:#181818;stroke-width:0.5;" x1="268.77" x2="479.2251" y1="397" y2="397"/><line style="stroke:#181818;stroke-width:0.5;" x1="268.77" x2="479.2251" y1="405" y2="405"/></g><!--class FactoritzacioLUParcial--><g class="entity" data-qualified-name="metodes_directes.FactoritzacioLUParcial" data-source-line="10" id="ent0012"><rect fill="#F1F1F1" height="48" rx="2.5" ry="2.5" style="stroke:#181818;stroke-width:0.5;" width="186.4785" x="273.76" y="473"/><ellipse cx="288.76" cy="489" fill="#ADD1B2" rx="11" ry="11" style="stroke:#181818;stroke-width:1;"/><path d="M291.7288,494.6406 Q291.1506,494.9375 290.51,495.0781 Q289.8694,495.2344 289.1663,495.2344 Q286.6663,495.2344 285.3381,493.5938 Q284.0256,491.9375 284.0256,488.8125 Q284.0256,485.6875 285.3381,484.0313 Q286.6663,482.375 289.1663,482.375 Q289.8694,482.375 290.51,482.5313 Q291.1663,482.6875 291.7288,482.9844 L291.7288,485.7031 Q291.1038,485.125 290.51,484.8594 Q289.9163,484.5781 289.2913,484.5781 Q287.9475,484.5781 287.26,485.6563 Q286.5725,486.7188 286.5725,488.8125 Q286.5725,490.9063 287.26,491.9844 Q287.9475,493.0469 289.2913,493.0469 Q289.9163,493.0469 290.51,492.7813 Q291.1038,492.5 291.7288,491.9219 L291.7288,494.6406 Z " fill="#000000"/><text fill="#000000" font-family="sans-serif" font-size="14" lengthAdjust="spacing" textLength="154.4785" x="302.76" y="493.8467">FactoritzacioLUParcial</text><line style="stroke:#181818;stroke-width:0.5;" x1="274.76" x2="459.2385" y1="505" y2="505"/><line style="stroke:#181818;stroke-width:0.5;" x1="274.76" x2="459.2385" y1="513" y2="513"/></g><!--class FactoritzacioLUParcialEsglaonat--><g class="entity" data-qualified-name="metodes_directes.FactoritzacioLUParcialEsglaonat" data-source-line="11" id="ent0014"><rect fill="#F1F1F1" height="48" rx="2.5" ry="2.5" style="stroke:#181818;stroke-width:0.5;" width="255.4805" x="495.26" y="473"/><ellipse cx="510.26" cy="489" fill="#ADD1B2" rx="11" ry="11" style="stroke:#181818;stroke-width:1;"/><path d="M513.2288,494.6406 Q512.6506,494.9375 512.01,495.0781 Q511.3694,495.2344 510.6663,495.2344 Q508.1663,495.2344 506.8381,493.5938 Q505.5256,491.9375 505.5256,488.8125 Q505.5256,485.6875 506.8381,484.0313 Q508.1663,482.375 510.6663,482.375 Q511.3694,482.375 512.01,482.5313 Q512.6663,482.6875 513.2288,482.9844 L513.2288,485.7031 Q512.6038,485.125 512.01,484.8594 Q511.4163,484.5781 510.7913,484.5781 Q509.4475,484.5781 508.76,485.6563 Q508.0725,486.7188 508.0725,488.8125 Q508.0725,490.9063 508.76,491.9844 Q509.4475,493.0469 510.7913,493.0469 Q511.4163,493.0469 512.01,492.7813 Q512.6038,492.5 513.2288,491.9219 L513.2288,494.6406 Z " fill="#000000"/><text fill="#000000" font-family="sans-serif" font-size="14" lengthAdjust="spacing" textLength="223.4805" x="524.26" y="493.8467">FactoritzacioLUParcialEsglaonat</text><line style="stroke:#181818;stroke-width:0.5;" x1="496.26" x2="749.7405" y1="505" y2="505"/><line style="stroke:#181818;stroke-width:0.5;" x1="496.26" x2="749.7405" y1="513" y2="513"/></g><!--class Doolittle--><g class="entity" data-qualified-name="metodes_directes.Doolittle" data-source-line="13" id="ent0016"><rect fill="#F1F1F1" height="48" rx="2.5" ry="2.5" style="stroke:#181818;stroke-width:0.5;" width="91.1719" x="35.41" y="473"/><ellipse cx="50.41" cy="489" fill="#ADD1B2" rx="11" ry="11" style="stroke:#181818;stroke-width:1;"/><path d="M53.3788,494.6406 Q52.8006,494.9375 52.16,495.0781 Q51.5194,495.2344 50.8163,495.2344 Q48.3163,495.2344 46.9881,493.5938 Q45.6756,491.9375 45.6756,488.8125 Q45.6756,485.6875 46.9881,484.0313 Q48.3163,482.375 50.8163,482.375 Q51.5194,482.375 52.16,482.5313 Q52.8163,482.6875 53.3788,482.9844 L53.3788,485.7031 Q52.7538,485.125 52.16,484.8594 Q51.5663,484.5781 50.9413,484.5781 Q49.5975,484.5781 48.91,485.6563 Q48.2225,486.7188 48.2225,488.8125 Q48.2225,490.9063 48.91,491.9844 Q49.5975,493.0469 50.9413,493.0469 Q51.5663,493.0469 52.16,492.7813 Q52.7538,492.5 53.3788,491.9219 L53.3788,494.6406 Z " fill="#000000"/><text fill="#000000" font-family="sans-serif" font-size="14" lengthAdjust="spacing" textLength="59.1719" x="64.41" y="493.8467">Doolittle</text><line style="stroke:#181818;stroke-width:0.5;" x1="36.41" x2="125.5819" y1="505" y2="505"/><line style="stroke:#181818;stroke-width:0.5;" x1="36.41" x2="125.5819" y1="513" y2="513"/></g><!--class Crout--><g class="entity" data-qualified-name="metodes_directes.Crout" data-source-line="14" id="ent0018"><rect fill="#F1F1F1" height="48" rx="2.5" ry="2.5" style="stroke:#181818;stroke-width:0.5;" width="70.459" x="161.77" y="473"/><ellipse cx="176.77" cy="489" fill="#ADD1B2" rx="11" ry="11" style="stroke:#181818;stroke-width:1;"/><path d="M179.7388,494.6406 Q179.1606,494.9375 178.52,495.0781 Q177.8794,495.2344 177.1763,495.2344 Q174.6763,495.2344 173.3481,493.5938 Q172.0356,491.9375 172.0356,488.8125 Q172.0356,485.6875 173.3481,484.0313 Q174.6763,482.375 177.1763,482.375 Q177.8794,482.375 178.52,482.5313 Q179.1763,482.6875 179.7388,482.9844 L179.7388,485.7031 Q179.1138,485.125 178.52,484.8594 Q177.9263,484.5781 177.3013,484.5781 Q175.9575,484.5781 175.27,485.6563 Q174.5825,486.7188 174.5825,488.8125 Q174.5825,490.9063 175.27,491.9844 Q175.9575,493.0469 177.3013,493.0469 Q177.9263,493.0469 178.52,492.7813 Q179.1138,492.5 179.7388,491.9219 L179.7388,494.6406 Z " fill="#000000"/><text fill="#000000" font-family="sans-serif" font-size="14" lengthAdjust="spacing" textLength="38.459" x="190.77" y="493.8467">Crout</text><line style="stroke:#181818;stroke-width:0.5;" x1="162.77" x2="231.229" y1="505" y2="505"/><line style="stroke:#181818;stroke-width:0.5;" x1="162.77" x2="231.229" y1="513" y2="513"/></g><!--class FactoritzacioLDLT--><g class="entity" data-qualified-name="metodes_directes.FactoritzacioLDLT" data-source-line="16" id="ent0020"><rect fill="#F1F1F1" height="48" rx="2.5" ry="2.5" style="stroke:#181818;stroke-width:0.5;" width="156.5303" x="196.73" y="257"/><ellipse cx="211.73" cy="273" fill="#ADD1B2" rx="11" ry="11" style="stroke:#181818;stroke-width:1;"/><path d="M214.6988,278.6406 Q214.1206,278.9375 213.48,279.0781 Q212.8394,279.2344 212.1363,279.2344 Q209.6363,279.2344 208.3081,277.5938 Q206.9956,275.9375 206.9956,272.8125 Q206.9956,269.6875 208.3081,268.0313 Q209.6363,266.375 212.1363,266.375 Q212.8394,266.375 213.48,266.5313 Q214.1363,266.6875 214.6988,266.9844 L214.6988,269.7031 Q214.0738,269.125 213.48,268.8594 Q212.8863,268.5781 212.2613,268.5781 Q210.9175,268.5781 210.23,269.6563 Q209.5425,270.7188 209.5425,272.8125 Q209.5425,274.9063 210.23,275.9844 Q210.9175,277.0469 212.2613,277.0469 Q212.8863,277.0469 213.48,276.7813 Q214.0738,276.5 214.6988,275.9219 L214.6988,278.6406 Z " fill="#000000"/><text fill="#000000" font-family="sans-serif" font-size="14" lengthAdjust="spacing" textLength="124.5303" x="225.73" y="277.8467">FactoritzacioLDLT</text><line style="stroke:#181818;stroke-width:0.5;" x1="197.73" x2="352.2603" y1="289" y2="289"/><line style="stroke:#181818;stroke-width:0.5;" x1="197.73" x2="352.2603" y1="297" y2="297"/></g><!--class Cholesky--><g class="entity" data-qualified-name="metodes_directes.Cholesky" data-source-line="17" id="ent0022"><rect fill="#F1F1F1" height="48" rx="2.5" ry="2.5" style="stroke:#181818;stroke-width:0.5;" width="95.4033" x="388.3" y="257"/><ellipse cx="403.3" cy="273" fill="#ADD1B2" rx="11" ry="11" style="stroke:#181818;stroke-width:1;"/><path d="M406.2688,278.6406 Q405.6906,278.9375 405.05,279.0781 Q404.4094,279.2344 403.7063,279.2344 Q401.2063,279.2344 399.8781,277.5938 Q398.5656,275.9375 398.5656,272.8125 Q398.5656,269.6875 399.8781,268.0313 Q401.2063,266.375 403.7063,266.375 Q404.4094,266.375 405.05,266.5313 Q405.7063,266.6875 406.2688,266.9844 L406.2688,269.7031 Q405.6438,269.125 405.05,268.8594 Q404.4563,268.5781 403.8313,268.5781 Q402.4875,268.5781 401.8,269.6563 Q401.1125,270.7188 401.1125,272.8125 Q401.1125,274.9063 401.8,275.9844 Q402.4875,277.0469 403.8313,277.0469 Q404.4563,277.0469 405.05,276.7813 Q405.6438,276.5 406.2688,275.9219 L406.2688,278.6406 Z " fill="#000000"/><text fill="#000000" font-family="sans-serif" font-size="14" lengthAdjust="spacing" textLength="63.4033" x="417.3" y="277.8467">Cholesky</text><line style="stroke:#181818;stroke-width:0.5;" x1="389.3" x2="482.7033" y1="289" y2="289"/><line style="stroke:#181818;stroke-width:0.5;" x1="389.3" x2="482.7033" y1="297" y2="297"/></g><!--class FactoritzacioQR--><g class="entity" data-qualified-name="metodes_directes.FactoritzacioQR" data-source-line="19" id="ent0024"><rect fill="#F1F1F1" height="48" rx="2.5" ry="2.5" style="stroke:#181818;stroke-width:0.5;" width="142.3457" x="599.83" y="149"/><ellipse cx="614.83" cy="165" fill="#A9DCDF" rx="11" ry="11" style="stroke:#181818;stroke-width:1;"/><path d="M614.9394,160.3438 L613.7831,165.4219 L616.1113,165.4219 L614.9394,160.3438 Z M613.455,158.1094 L616.4394,158.1094 L619.7988,170.5 L617.3456,170.5 L616.58,167.4375 L613.2988,167.4375 L612.5488,170.5 L610.1113,170.5 L613.455,158.1094 Z " fill="#000000"/><text fill="#000000" font-family="sans-serif" font-size="14" font-style="italic" lengthAdjust="spacing" textLength="110.3457" x="628.83" y="169.8467">FactoritzacioQR</text><line style="stroke:#181818;stroke-width:0.5;" x1="600.83" x2="741.1757" y1="181" y2="181"/><line style="stroke:#181818;stroke-width:0.5;" x1="600.83" x2="741.1757" y1="189" y2="189"/></g><!--class Householder--><g class="entity" data-qualified-name="metodes_directes.Householder" data-source-line="20" id="ent0026"><rect fill="#F1F1F1" height="48" rx="2.5" ry="2.5" style="stroke:#181818;stroke-width:0.5;" width="120.457" x="518.77" y="257"/><ellipse cx="533.77" cy="273" fill="#ADD1B2" rx="11" ry="11" style="stroke:#181818;stroke-width:1;"/><path d="M536.7388,278.6406 Q536.1606,278.9375 535.52,279.0781 Q534.8794,279.2344 534.1763,279.2344 Q531.6763,279.2344 530.3481,277.5938 Q529.0356,275.9375 529.0356,272.8125 Q529.0356,269.6875 530.3481,268.0313 Q531.6763,266.375 534.1763,266.375 Q534.8794,266.375 535.52,266.5313 Q536.1763,266.6875 536.7388,266.9844 L536.7388,269.7031 Q536.1138,269.125 535.52,268.8594 Q534.9263,268.5781 534.3013,268.5781 Q532.9575,268.5781 532.27,269.6563 Q531.5825,270.7188 531.5825,272.8125 Q531.5825,274.9063 532.27,275.9844 Q532.9575,277.0469 534.3013,277.0469 Q534.9263,277.0469 535.52,276.7813 Q536.1138,276.5 536.7388,275.9219 L536.7388,278.6406 Z " fill="#000000"/><text fill="#000000" font-family="sans-serif" font-size="14" lengthAdjust="spacing" textLength="88.457" x="547.77" y="277.8467">Householder</text><line style="stroke:#181818;stroke-width:0.5;" x1="519.77" x2="638.227" y1="289" y2="289"/><line style="stroke:#181818;stroke-width:0.5;" x1="519.77" x2="638.227" y1="297" y2="297"/></g><!--class GramSchmidtClassic--><g class="entity" data-qualified-name="metodes_directes.GramSchmidtClassic" data-source-line="21" id="ent0028"><rect fill="#F1F1F1" height="48" rx="2.5" ry="2.5" style="stroke:#181818;stroke-width:0.5;" width="176.6006" x="674.7" y="257"/><ellipse cx="689.7" cy="273" fill="#ADD1B2" rx="11" ry="11" style="stroke:#181818;stroke-width:1;"/><path d="M692.6688,278.6406 Q692.0906,278.9375 691.45,279.0781 Q690.8094,279.2344 690.1063,279.2344 Q687.6063,279.2344 686.2781,277.5938 Q684.9656,275.9375 684.9656,272.8125 Q684.9656,269.6875 686.2781,268.0313 Q687.6063,266.375 690.1063,266.375 Q690.8094,266.375 691.45,266.5313 Q692.1063,266.6875 692.6688,266.9844 L692.6688,269.7031 Q692.0438,269.125 691.45,268.8594 Q690.8563,268.5781 690.2313,268.5781 Q688.8875,268.5781 688.2,269.6563 Q687.5125,270.7188 687.5125,272.8125 Q687.5125,274.9063 688.2,275.9844 Q688.8875,277.0469 690.2313,277.0469 Q690.8563,277.0469 691.45,276.7813 Q692.0438,276.5 692.6688,275.9219 L692.6688,278.6406 Z " fill="#000000"/><text fill="#000000" font-family="sans-serif" font-size="14" lengthAdjust="spacing" textLength="144.6006" x="703.7" y="277.8467">GramSchmidtClassic</text><line style="stroke:#181818;stroke-width:0.5;" x1="675.7" x2="850.3006" y1="289" y2="289"/><line style="stroke:#181818;stroke-width:0.5;" x1="675.7" x2="850.3006" y1="297" y2="297"/></g><!--class GramSchmidtModificat--><g class="entity" data-qualified-name="metodes_directes.GramSchmidtModificat" data-source-line="22" id="ent0030"><rect fill="#F1F1F1" height="48" rx="2.5" ry="2.5" style="stroke:#181818;stroke-width:0.5;" width="192.1865" x="885.91" y="257"/><ellipse cx="900.91" cy="273" fill="#ADD1B2" rx="11" ry="11" style="stroke:#181818;stroke-width:1;"/><path d="M903.8788,278.6406 Q903.3006,278.9375 902.66,279.0781 Q902.0194,279.2344 901.3163,279.2344 Q898.8163,279.2344 897.4881,277.5938 Q896.1756,275.9375 896.1756,272.8125 Q896.1756,269.6875 897.4881,268.0313 Q898.8163,266.375 901.3163,266.375 Q902.0194,266.375 902.66,266.5313 Q903.3163,266.6875 903.8788,266.9844 L903.8788,269.7031 Q903.2538,269.125 902.66,268.8594 Q902.0663,268.5781 901.4413,268.5781 Q900.0975,268.5781 899.41,269.6563 Q898.7225,270.7188 898.7225,272.8125 Q898.7225,274.9063 899.41,275.9844 Q900.0975,277.0469 901.4413,277.0469 Q902.0663,277.0469 902.66,276.7813 Q903.2538,276.5 903.8788,275.9219 L903.8788,278.6406 Z " fill="#000000"/><text fill="#000000" font-family="sans-serif" font-size="14" lengthAdjust="spacing" textLength="160.1865" x="914.91" y="277.8467">GramSchmidtModificat</text><line style="stroke:#181818;stroke-width:0.5;" x1="886.91" x2="1077.0965" y1="289" y2="289"/><line style="stroke:#181818;stroke-width:0.5;" x1="886.91" x2="1077.0965" y1="297" y2="297"/></g><!--class MetodeIteratiu--><g class="entity" data-qualified-name="metodes_iteratius.MetodeIteratiu" data-source-line="26" id="ent0033"><rect fill="#F1F1F1" height="48" rx="2.5" ry="2.5" style="stroke:#181818;stroke-width:0.5;" width="321.0107" x="1239.49" y="41"/><ellipse cx="1254.49" cy="57" fill="#A9DCDF" rx="11" ry="11" style="stroke:#181818;stroke-width:1;"/><path d="M1254.5994,52.3438 L1253.4431,57.4219 L1255.7713,57.4219 L1254.5994,52.3438 Z M1253.115,50.1094 L1256.0994,50.1094 L1259.4588,62.5 L1257.0056,62.5 L1256.24,59.4375 L1252.9588,59.4375 L1252.2088,62.5 L1249.7713,62.5 L1253.115,50.1094 Z " fill="#000000"/><text fill="#000000" font-family="sans-serif" font-size="14" font-style="italic" lengthAdjust="spacing" textLength="103.0654" x="1268.49" y="61.8467">MetodeIteratiu</text><rect fill="#FFFFFF" height="15.9688" style="stroke:#181818;stroke-width:1;stroke-dasharray:2,2;" width="183.9453" x="1379.5554" y="38"/><text fill="#000000" font-family="sans-serif" font-size="12" font-style="italic" lengthAdjust="spacing" textLength="181.9453" x="1380.5554" y="50.1387">T extends EstatMetodeIteratiu</text><line style="stroke:#181818;stroke-width:0.5;" x1="1240.49" x2="1559.5007" y1="73" y2="73"/><line style="stroke:#181818;stroke-width:0.5;" x1="1240.49" x2="1559.5007" y1="81" y2="81"/></g><!--class MetodeIteratiuDescomposicio--><g class="entity" data-qualified-name="metodes_iteratius.MetodeIteratiuDescomposicio" data-source-line="27" id="ent0034"><rect fill="#F1F1F1" height="48" rx="2.5" ry="2.5" style="stroke:#181818;stroke-width:0.5;" width="240.4414" x="1133.78" y="149"/><ellipse cx="1148.78" cy="165" fill="#A9DCDF" rx="11" ry="11" style="stroke:#181818;stroke-width:1;"/><path d="M1148.8894,160.3438 L1147.7331,165.4219 L1150.0613,165.4219 L1148.8894,160.3438 Z M1147.405,158.1094 L1150.3894,158.1094 L1153.7488,170.5 L1151.2956,170.5 L1150.53,167.4375 L1147.2488,167.4375 L1146.4988,170.5 L1144.0613,170.5 L1147.405,158.1094 Z " fill="#000000"/><text fill="#000000" font-family="sans-serif" font-size="14" font-style="italic" lengthAdjust="spacing" textLength="208.4414" x="1162.78" y="169.8467">MetodeIteratiuDescomposicio</text><line style="stroke:#181818;stroke-width:0.5;" x1="1134.78" x2="1373.2214" y1="181" y2="181"/><line style="stroke:#181818;stroke-width:0.5;" x1="1134.78" x2="1373.2214" y1="189" y2="189"/></g><!--class Jacobi--><g class="entity" data-qualified-name="metodes_iteratius.Jacobi" data-source-line="28" id="ent0036"><rect fill="#F1F1F1" height="48" rx="2.5" ry="2.5" style="stroke:#181818;stroke-width:0.5;" width="73.7471" x="1175.13" y="257"/><ellipse cx="1190.13" cy="273" fill="#ADD1B2" rx="11" ry="11" style="stroke:#181818;stroke-width:1;"/><path d="M1193.0988,278.6406 Q1192.5206,278.9375 1191.88,279.0781 Q1191.2394,279.2344 1190.5363,279.2344 Q1188.0363,279.2344 1186.7081,277.5938 Q1185.3956,275.9375 1185.3956,272.8125 Q1185.3956,269.6875 1186.7081,268.0313 Q1188.0363,266.375 1190.5363,266.375 Q1191.2394,266.375 1191.88,266.5313 Q1192.5363,266.6875 1193.0988,266.9844 L1193.0988,269.7031 Q1192.4738,269.125 1191.88,268.8594 Q1191.2863,268.5781 1190.6613,268.5781 Q1189.3175,268.5781 1188.63,269.6563 Q1187.9425,270.7188 1187.9425,272.8125 Q1187.9425,274.9063 1188.63,275.9844 Q1189.3175,277.0469 1190.6613,277.0469 Q1191.2863,277.0469 1191.88,276.7813 Q1192.4738,276.5 1193.0988,275.9219 L1193.0988,278.6406 Z " fill="#000000"/><text fill="#000000" font-family="sans-serif" font-size="14" lengthAdjust="spacing" textLength="41.7471" x="1204.13" y="277.8467">Jacobi</text><line style="stroke:#181818;stroke-width:0.5;" x1="1176.13" x2="1247.8771" y1="289" y2="289"/><line style="stroke:#181818;stroke-width:0.5;" x1="1176.13" x2="1247.8771" y1="297" y2="297"/></g><!--class SobreRelaxacioSuccessiva--><g class="entity" data-qualified-name="metodes_iteratius.SobreRelaxacioSuccessiva" data-source-line="29" id="ent0038"><rect fill="#F1F1F1" height="48" rx="2.5" ry="2.5" style="stroke:#181818;stroke-width:0.5;" width="217.6436" x="1284.18" y="257"/><ellipse cx="1299.18" cy="273" fill="#ADD1B2" rx="11" ry="11" style="stroke:#181818;stroke-width:1;"/><path d="M1302.1488,278.6406 Q1301.5706,278.9375 1300.93,279.0781 Q1300.2894,279.2344 1299.5863,279.2344 Q1297.0863,279.2344 1295.7581,277.5938 Q1294.4456,275.9375 1294.4456,272.8125 Q1294.4456,269.6875 1295.7581,268.0313 Q1297.0863,266.375 1299.5863,266.375 Q1300.2894,266.375 1300.93,266.5313 Q1301.5863,266.6875 1302.1488,266.9844 L1302.1488,269.7031 Q1301.5238,269.125 1300.93,268.8594 Q1300.3363,268.5781 1299.7113,268.5781 Q1298.3675,268.5781 1297.68,269.6563 Q1296.9925,270.7188 1296.9925,272.8125 Q1296.9925,274.9063 1297.68,275.9844 Q1298.3675,277.0469 1299.7113,277.0469 Q1300.3363,277.0469 1300.93,276.7813 Q1301.5238,276.5 1302.1488,275.9219 L1302.1488,278.6406 Z " fill="#000000"/><text fill="#000000" font-family="sans-serif" font-size="14" lengthAdjust="spacing" textLength="185.6436" x="1313.18" y="277.8467">SobreRelaxacioSuccessiva</text><line style="stroke:#181818;stroke-width:0.5;" x1="1285.18" x2="1500.8236" y1="289" y2="289"/><line style="stroke:#181818;stroke-width:0.5;" x1="1285.18" x2="1500.8236" y1="297" y2="297"/></g><!--class GaussSeidel--><g class="entity" data-qualified-name="metodes_iteratius.GaussSeidel" data-source-line="30" id="ent0040"><rect fill="#F1F1F1" height="48" rx="2.5" ry="2.5" style="stroke:#181818;stroke-width:0.5;" width="117.668" x="1334.17" y="365"/><ellipse cx="1349.17" cy="381" fill="#ADD1B2" rx="11" ry="11" style="stroke:#181818;stroke-width:1;"/><path d="M1352.1388,386.6406 Q1351.5606,386.9375 1350.92,387.0781 Q1350.2794,387.2344 1349.5763,387.2344 Q1347.0763,387.2344 1345.7481,385.5938 Q1344.4356,383.9375 1344.4356,380.8125 Q1344.4356,377.6875 1345.7481,376.0313 Q1347.0763,374.375 1349.5763,374.375 Q1350.2794,374.375 1350.92,374.5313 Q1351.5763,374.6875 1352.1388,374.9844 L1352.1388,377.7031 Q1351.5138,377.125 1350.92,376.8594 Q1350.3263,376.5781 1349.7013,376.5781 Q1348.3575,376.5781 1347.67,377.6563 Q1346.9825,378.7188 1346.9825,380.8125 Q1346.9825,382.9063 1347.67,383.9844 Q1348.3575,385.0469 1349.7013,385.0469 Q1350.3263,385.0469 1350.92,384.7813 Q1351.5138,384.5 1352.1388,383.9219 L1352.1388,386.6406 Z " fill="#000000"/><text fill="#000000" font-family="sans-serif" font-size="14" lengthAdjust="spacing" textLength="85.668" x="1363.17" y="385.8467">GaussSeidel</text><line style="stroke:#181818;stroke-width:0.5;" x1="1335.17" x2="1450.838" y1="397" y2="397"/><line style="stroke:#181818;stroke-width:0.5;" x1="1335.17" x2="1450.838" y1="405" y2="405"/></g><!--class Gradient--><g class="entity" data-qualified-name="metodes_iteratius.Gradient" data-source-line="32" id="ent0042"><rect fill="#F1F1F1" height="48" rx="2.5" ry="2.5" style="stroke:#181818;stroke-width:0.5;" width="92.9355" x="1409.53" y="149"/><ellipse cx="1424.53" cy="165" fill="#ADD1B2" rx="11" ry="11" style="stroke:#181818;stroke-width:1;"/><path d="M1427.4988,170.6406 Q1426.9206,170.9375 1426.28,171.0781 Q1425.6394,171.2344 1424.9363,171.2344 Q1422.4363,171.2344 1421.1081,169.5938 Q1419.7956,167.9375 1419.7956,164.8125 Q1419.7956,161.6875 1421.1081,160.0313 Q1422.4363,158.375 1424.9363,158.375 Q1425.6394,158.375 1426.28,158.5313 Q1426.9363,158.6875 1427.4988,158.9844 L1427.4988,161.7031 Q1426.8738,161.125 1426.28,160.8594 Q1425.6863,160.5781 1425.0613,160.5781 Q1423.7175,160.5781 1423.03,161.6563 Q1422.3425,162.7188 1422.3425,164.8125 Q1422.3425,166.9063 1423.03,167.9844 Q1423.7175,169.0469 1425.0613,169.0469 Q1425.6863,169.0469 1426.28,168.7813 Q1426.8738,168.5 1427.4988,167.9219 L1427.4988,170.6406 Z " fill="#000000"/><text fill="#000000" font-family="sans-serif" font-size="14" lengthAdjust="spacing" textLength="60.9355" x="1438.53" y="169.8467">Gradient</text><line style="stroke:#181818;stroke-width:0.5;" x1="1410.53" x2="1501.4655" y1="181" y2="181"/><line style="stroke:#181818;stroke-width:0.5;" x1="1410.53" x2="1501.4655" y1="189" y2="189"/></g><!--class EstatMetodeIteratiu--><g class="entity" data-qualified-name="metodes_iteratius.EstatMetodeIteratiu" data-source-line="34" id="ent0044"><rect fill="#F1F1F1" height="48" rx="2.5" ry="2.5" style="stroke:#181818;stroke-width:0.5;" width="170.7627" x="1645.62" y="41"/><ellipse cx="1660.62" cy="57" fill="#ADD1B2" rx="11" ry="11" style="stroke:#181818;stroke-width:1;"/><path d="M1663.5888,62.6406 Q1663.0106,62.9375 1662.37,63.0781 Q1661.7294,63.2344 1661.0263,63.2344 Q1658.5263,63.2344 1657.1981,61.5938 Q1655.8856,59.9375 1655.8856,56.8125 Q1655.8856,53.6875 1657.1981,52.0313 Q1658.5263,50.375 1661.0263,50.375 Q1661.7294,50.375 1662.37,50.5313 Q1663.0263,50.6875 1663.5888,50.9844 L1663.5888,53.7031 Q1662.9638,53.125 1662.37,52.8594 Q1661.7763,52.5781 1661.1513,52.5781 Q1659.8075,52.5781 1659.12,53.6563 Q1658.4325,54.7188 1658.4325,56.8125 Q1658.4325,58.9063 1659.12,59.9844 Q1659.8075,61.0469 1661.1513,61.0469 Q1661.7763,61.0469 1662.37,60.7813 Q1662.9638,60.5 1663.5888,59.9219 L1663.5888,62.6406 Z " fill="#000000"/><text fill="#000000" font-family="sans-serif" font-size="14" lengthAdjust="spacing" textLength="138.7627" x="1674.62" y="61.8467">EstatMetodeIteratiu</text><line style="stroke:#181818;stroke-width:0.5;" x1="1646.62" x2="1815.3827" y1="73" y2="73"/><line style="stroke:#181818;stroke-width:0.5;" x1="1646.62" x2="1815.3827" y1="81" y2="81"/></g><!--class EstatMetodeIteratiuDescomposicio--><g class="entity" data-qualified-name="metodes_iteratius.EstatMetodeIteratiuDescomposicio" data-source-line="35" id="ent0045"><rect fill="#F1F1F1" height="48" rx="2.5" ry="2.5" style="stroke:#181818;stroke-width:0.5;" width="276.1387" x="1537.93" y="149"/><ellipse cx="1552.93" cy="165" fill="#ADD1B2" rx="11" ry="11" style="stroke:#181818;stroke-width:1;"/><path d="M1555.8988,170.6406 Q1555.3206,170.9375 1554.68,171.0781 Q1554.0394,171.2344 1553.3363,171.2344 Q1550.8363,171.2344 1549.5081,169.5938 Q1548.1956,167.9375 1548.1956,164.8125 Q1548.1956,161.6875 1549.5081,160.0313 Q1550.8363,158.375 1553.3363,158.375 Q1554.0394,158.375 1554.68,158.5313 Q1555.3363,158.6875 1555.8988,158.9844 L1555.8988,161.7031 Q1555.2738,161.125 1554.68,160.8594 Q1554.0863,160.5781 1553.4613,160.5781 Q1552.1175,160.5781 1551.43,161.6563 Q1550.7425,162.7188 1550.7425,164.8125 Q1550.7425,166.9063 1551.43,167.9844 Q1552.1175,169.0469 1553.4613,169.0469 Q1554.0863,169.0469 1554.68,168.7813 Q1555.2738,168.5 1555.8988,167.9219 L1555.8988,170.6406 Z " fill="#000000"/><text fill="#000000" font-family="sans-serif" font-size="14" lengthAdjust="spacing" textLength="244.1387" x="1566.93" y="169.8467">EstatMetodeIteratiuDescomposicio</text><line style="stroke:#181818;stroke-width:0.5;" x1="1538.93" x2="1813.0687" y1="181" y2="181"/><line style="stroke:#181818;stroke-width:0.5;" x1="1538.93" x2="1813.0687" y1="189" y2="189"/></g><!--class EstatMetodeIteratiuGradient--><g class="entity" data-qualified-name="metodes_iteratius.EstatMetodeIteratiuGradient" data-source-line="36" id="ent0047"><rect fill="#F1F1F1" height="48" rx="2.5" ry="2.5" style="stroke:#181818;stroke-width:0.5;" width="231.6982" x="1849.15" y="149"/><ellipse cx="1864.15" cy="165" fill="#ADD1B2" rx="11" ry="11" style="stroke:#181818;stroke-width:1;"/><path d="M1867.1188,170.6406 Q1866.5406,170.9375 1865.9,171.0781 Q1865.2594,171.2344 1864.5563,171.2344 Q1862.0563,171.2344 1860.7281,169.5938 Q1859.4156,167.9375 1859.4156,164.8125 Q1859.4156,161.6875 1860.7281,160.0313 Q1862.0563,158.375 1864.5563,158.375 Q1865.2594,158.375 1865.9,158.5313 Q1866.5563,158.6875 1867.1188,158.9844 L1867.1188,161.7031 Q1866.4938,161.125 1865.9,160.8594 Q1865.3063,160.5781 1864.6813,160.5781 Q1863.3375,160.5781 1862.65,161.6563 Q1861.9625,162.7188 1861.9625,164.8125 Q1861.9625,166.9063 1862.65,167.9844 Q1863.3375,169.0469 1864.6813,169.0469 Q1865.3063,169.0469 1865.9,168.7813 Q1866.4938,168.5 1867.1188,167.9219 L1867.1188,170.6406 Z " fill="#000000"/><text fill="#000000" font-family="sans-serif" font-size="14" lengthAdjust="spacing" textLength="199.6982" x="1878.15" y="169.8467">EstatMetodeIteratiuGradient</text><line style="stroke:#181818;stroke-width:0.5;" x1="1850.15" x2="2079.8482" y1="181" y2="181"/><line style="stroke:#181818;stroke-width:0.5;" x1="1850.15" x2="2079.8482" y1="189" y2="189"/></g><!--class EstatMetodeIteratiuGradientConjugat--><g class="entity" data-qualified-name="metodes_iteratius.EstatMetodeIteratiuGradientConjugat" data-source-line="37" id="ent0049"><rect fill="#F1F1F1" height="48" rx="2.5" ry="2.5" style="stroke:#181818;stroke-width:0.5;" width="294.6299" x="1786.69" y="257"/><ellipse cx="1801.69" cy="273" fill="#ADD1B2" rx="11" ry="11" style="stroke:#181818;stroke-width:1;"/><path d="M1804.6588,278.6406 Q1804.0806,278.9375 1803.44,279.0781 Q1802.7994,279.2344 1802.0963,279.2344 Q1799.5963,279.2344 1798.2681,277.5938 Q1796.9556,275.9375 1796.9556,272.8125 Q1796.9556,269.6875 1798.2681,268.0313 Q1799.5963,266.375 1802.0963,266.375 Q1802.7994,266.375 1803.44,266.5313 Q1804.0963,266.6875 1804.6588,266.9844 L1804.6588,269.7031 Q1804.0338,269.125 1803.44,268.8594 Q1802.8463,268.5781 1802.2213,268.5781 Q1800.8775,268.5781 1800.19,269.6563 Q1799.5025,270.7188 1799.5025,272.8125 Q1799.5025,274.9063 1800.19,275.9844 Q1800.8775,277.0469 1802.2213,277.0469 Q1802.8463,277.0469 1803.44,276.7813 Q1804.0338,276.5 1804.6588,275.9219 L1804.6588,278.6406 Z " fill="#000000"/><text fill="#000000" font-family="sans-serif" font-size="14" lengthAdjust="spacing" textLength="262.6299" x="1815.69" y="277.8467">EstatMetodeIteratiuGradientConjugat</text><line style="stroke:#181818;stroke-width:0.5;" x1="1787.69" x2="2080.3199" y1="289" y2="289"/><line style="stroke:#181818;stroke-width:0.5;" x1="1787.69" x2="2080.3199" y1="297" y2="297"/></g><!--reverse link Factoritzacio to MetodeDirecte--><g class="link" data-entity-1="ent0003" data-entity-2="ent0004" data-link-type="extension" data-source-line="5" id="lnk5"><path d="M458.876,99.5568 C433.626,117.1668 413.84,130.97 388.54,148.61" fill="none" id="Factoritzacio-backto-MetodeDirecte" style="stroke:#181818;stroke-width:1;"/><polygon fill="none" points="473.64,89.26,455.4437,94.6355,462.3083,104.4781,473.64,89.26" style="stroke:#181818;stroke-width:1;"/></g><!--reverse link MetodeDirecte to FactoritzacioLU--><g class="link" data-entity-1="ent0004" data-entity-2="ent0006" data-link-type="extension" data-source-line="6" id="lnk7"><path d="M280.2649,204.1185 C236.5449,221.7385 193.57,239.06 149.89,256.67" fill="none" id="MetodeDirecte-backto-FactoritzacioLU" style="stroke:#181818;stroke-width:1;"/><polygon fill="none" points="296.96,197.39,278.022,198.5534,282.5077,209.6835,296.96,197.39" style="stroke:#181818;stroke-width:1;"/></g><!--reverse link FactoritzacioLU to FactoritzacioLUCompacta--><g class="link" data-entity-1="ent0006" data-entity-2="ent0008" data-link-type="extension" data-source-line="7" id="lnk9"><path d="M105.3257,322.3517 C111.1657,340.0317 113.51,347.13 119.34,364.79" fill="none" id="FactoritzacioLU-backto-FactoritzacioLUCompacta" style="stroke:#181818;stroke-width:1;"/><polygon fill="none" points="99.68,305.26,99.6284,324.2336,111.0229,320.4698,99.68,305.26" style="stroke:#181818;stroke-width:1;"/></g><!--reverse link FactoritzacioLU to FactoritzacioLUGaussiana--><g class="link" data-entity-1="ent0006" data-entity-2="ent0010" data-link-type="extension" data-source-line="8" id="lnk11"><path d="M171.0887,311.724 C217.9587,329.344 265.09,347.06 311.92,364.67" fill="none" id="FactoritzacioLU-backto-FactoritzacioLUGaussiana" style="stroke:#181818;stroke-width:1;"/><polygon fill="none" points="154.24,305.39,168.9774,317.3403,173.2001,306.1078,154.24,305.39" style="stroke:#181818;stroke-width:1;"/></g><!--reverse link FactoritzacioLUGaussiana to FactoritzacioLUParcial--><g class="link" data-entity-1="ent0010" data-entity-2="ent0012" data-link-type="extension" data-source-line="10" id="lnk13"><path d="M371.2815,431.2214 C370.1215,448.9014 369.7,455.13 368.53,472.79" fill="none" id="FactoritzacioLUGaussiana-backto-FactoritzacioLUParcial" style="stroke:#181818;stroke-width:1;"/><polygon fill="none" points="372.46,413.26,365.2944,430.8286,377.2687,431.6142,372.46,413.26" style="stroke:#181818;stroke-width:1;"/></g><!--reverse link FactoritzacioLUGaussiana to FactoritzacioLUParcialEsglaonat--><g class="link" data-entity-1="ent0010" data-entity-2="ent0014" data-link-type="extension" data-source-line="11" id="lnk15"><path d="M445.5117,420.4404 C486.9017,438.0604 526.83,455.06 568.19,472.67" fill="none" id="FactoritzacioLUGaussiana-backto-FactoritzacioLUParcialEsglaonat" style="stroke:#181818;stroke-width:1;"/><polygon fill="none" points="428.95,413.39,443.1616,425.961,447.8619,414.9199,428.95,413.39" style="stroke:#181818;stroke-width:1;"/></g><!--reverse link FactoritzacioLUCompacta to Doolittle--><g class="link" data-entity-1="ent0008" data-entity-2="ent0016" data-link-type="extension" data-source-line="13" id="lnk17"><path d="M109.7463,429.773 C102.0763,447.453 98.74,455.13 91.07,472.79" fill="none" id="FactoritzacioLUCompacta-backto-Doolittle" style="stroke:#181818;stroke-width:1;"/><polygon fill="none" points="116.91,413.26,104.2419,427.3851,115.2506,432.161,116.91,413.26" style="stroke:#181818;stroke-width:1;"/></g><!--reverse link FactoritzacioLUCompacta to Crout--><g class="link" data-entity-1="ent0008" data-entity-2="ent0018" data-link-type="extension" data-source-line="14" id="lnk19"><path d="M152.2759,428.2825 C163.9459,445.9625 170.01,455.13 181.67,472.79" fill="none" id="FactoritzacioLUCompacta-backto-Crout" style="stroke:#181818;stroke-width:1;"/><polygon fill="none" points="142.36,413.26,147.2684,431.5878,157.2834,424.9772,142.36,413.26" style="stroke:#181818;stroke-width:1;"/></g><!--reverse link MetodeDirecte to FactoritzacioLDLT--><g class="link" data-entity-1="ent0004" data-entity-2="ent0020" data-link-type="extension" data-source-line="16" id="lnk21"><path d="M326.6036,211.6326 C313.2736,229.3126 305.84,239.13 292.52,256.79" fill="none" id="MetodeDirecte-backto-FactoritzacioLDLT" style="stroke:#181818;stroke-width:1;"/><polygon fill="none" points="337.44,197.26,321.8127,208.0205,331.3945,215.2448,337.44,197.26" style="stroke:#181818;stroke-width:1;"/></g><!--reverse link MetodeDirecte to Cholesky--><g class="link" data-entity-1="ent0004" data-entity-2="ent0022" data-link-type="extension" data-source-line="17" id="lnk23"><path d="M383.7039,211.5662 C397.2039,229.2462 404.77,239.13 418.27,256.79" fill="none" id="MetodeDirecte-backto-Cholesky" style="stroke:#181818;stroke-width:1;"/><polygon fill="none" points="372.78,197.26,378.9351,215.2075,388.4726,207.925,372.78,197.26" style="stroke:#181818;stroke-width:1;"/></g><!--reverse link Factoritzacio to FactoritzacioQR--><g class="link" data-entity-1="ent0003" data-entity-2="ent0024" data-link-type="extension" data-source-line="19" id="lnk25"><path d="M558.1079,99.0298 C585.3579,116.6398 607.51,130.97 634.81,148.61" fill="none" id="Factoritzacio-backto-FactoritzacioQR" style="stroke:#181818;stroke-width:1;"/><polygon fill="none" points="542.99,89.26,554.8513,104.0691,561.3645,93.9905,542.99,89.26" style="stroke:#181818;stroke-width:1;"/></g><!--reverse link FactoritzacioQR to Householder--><g class="link" data-entity-1="ent0024" data-entity-2="ent0026" data-link-type="extension" data-source-line="20" id="lnk27"><path d="M639.0136,210.8558 C623.6736,228.5358 614.47,239.13 599.14,256.79" fill="none" id="FactoritzacioQR-backto-Householder" style="stroke:#181818;stroke-width:1;"/><polygon fill="none" points="650.81,197.26,634.4817,206.9237,643.5456,214.7879,650.81,197.26" style="stroke:#181818;stroke-width:1;"/></g><!--reverse link FactoritzacioQR to GramSchmidtClassic--><g class="link" data-entity-1="ent0024" data-entity-2="ent0028" data-link-type="extension" data-source-line="21" id="lnk29"><path d="M702.9864,210.8558 C718.3264,228.5358 727.53,239.13 742.86,256.79" fill="none" id="FactoritzacioQR-backto-GramSchmidtClassic" style="stroke:#181818;stroke-width:1;"/><polygon fill="none" points="691.19,197.26,698.4544,214.7879,707.5183,206.9237,691.19,197.26" style="stroke:#181818;stroke-width:1;"/></g><!--reverse link FactoritzacioQR to GramSchmidtModificat--><g class="link" data-entity-1="ent0024" data-entity-2="ent0030" data-link-type="extension" data-source-line="22" id="lnk31"><path d="M756.6773,203.1979 C808.2773,220.7879 861.64,238.98 913.27,256.57" fill="none" id="FactoritzacioQR-backto-GramSchmidtModificat" style="stroke:#181818;stroke-width:1;"/><polygon fill="none" points="739.64,197.39,754.7413,208.877,758.6132,197.5188,739.64,197.39" style="stroke:#181818;stroke-width:1;"/></g><!--reverse link MetodeIteratiu to MetodeIteratiuDescomposicio--><g class="link" data-entity-1="ent0033" data-entity-2="ent0034" data-link-type="extension" data-source-line="27" id="lnk35"><path d="M1353.3931,99.8339 C1329.1331,117.4439 1310.52,130.97 1286.22,148.61" fill="none" id="MetodeIteratiu-backto-MetodeIteratiuDescomposicio" style="stroke:#181818;stroke-width:1;"/><polygon fill="none" points="1367.96,89.26,1349.8685,94.9783,1356.9178,104.6895,1367.96,89.26" style="stroke:#181818;stroke-width:1;"/></g><!--reverse link MetodeIteratiuDescomposicio to Jacobi--><g class="link" data-entity-1="ent0034" data-entity-2="ent0036" data-link-type="extension" data-source-line="28" id="lnk37"><path d="M1238.1538,213.996 C1231.1538,231.676 1228.19,239.13 1221.2,256.79" fill="none" id="MetodeIteratiuDescomposicio-backto-Jacobi" style="stroke:#181818;stroke-width:1;"/><polygon fill="none" points="1244.78,197.26,1232.5751,211.7872,1243.7324,216.2047,1244.78,197.26" style="stroke:#181818;stroke-width:1;"/></g><!--reverse link MetodeIteratiuDescomposicio to SobreRelaxacioSuccessiva--><g class="link" data-entity-1="ent0034" data-entity-2="ent0038" data-link-type="extension" data-source-line="29" id="lnk39"><path d="M1298.8121,208.1762 C1321.9921,225.8562 1339.41,239.13 1362.57,256.79" fill="none" id="MetodeIteratiuDescomposicio-backto-SobreRelaxacioSuccessiva" style="stroke:#181818;stroke-width:1;"/><polygon fill="none" points="1284.5,197.26,1295.1734,212.9469,1302.4508,203.4055,1284.5,197.26" style="stroke:#181818;stroke-width:1;"/></g><!--reverse link SobreRelaxacioSuccessiva to GaussSeidel--><g class="link" data-entity-1="ent0038" data-entity-2="ent0040" data-link-type="extension" data-source-line="30" id="lnk41"><path d="M1393,323.26 C1393,340.94 1393,347.13 1393,364.79" fill="none" id="SobreRelaxacioSuccessiva-backto-GaussSeidel" style="stroke:#181818;stroke-width:1;"/><polygon fill="none" points="1393,305.26,1387,323.26,1399,323.26,1393,305.26" style="stroke:#181818;stroke-width:1;"/></g><!--reverse link MetodeIteratiu to Gradient--><g class="link" data-entity-1="ent0033" data-entity-2="ent0042" data-link-type="extension" data-source-line="32" id="lnk43"><path d="M1420.6979,105.1756 C1430.0379,122.8556 1434.41,131.13 1443.74,148.79" fill="none" id="MetodeIteratiu-backto-Gradient" style="stroke:#181818;stroke-width:1;"/><polygon fill="none" points="1412.29,89.26,1415.3927,107.9783,1426.0031,102.373,1412.29,89.26" style="stroke:#181818;stroke-width:1;"/></g><!--reverse link EstatMetodeIteratiu to EstatMetodeIteratiuDescomposicio--><g class="link" data-entity-1="ent0044" data-entity-2="ent0045" data-link-type="extension" data-source-line="35" id="lnk46"><path d="M1710.6424,105.2386 C1701.4724,122.9186 1697.21,131.13 1688.04,148.79" fill="none" id="EstatMetodeIteratiu-backto-EstatMetodeIteratiuDescomposicio" style="stroke:#181818;stroke-width:1;"/><polygon fill="none" points="1718.93,89.26,1705.3162,102.4761,1715.9687,108.0011,1718.93,89.26" style="stroke:#181818;stroke-width:1;"/></g><!--reverse link EstatMetodeIteratiu to EstatMetodeIteratiuGradient--><g class="link" data-entity-1="ent0044" data-entity-2="ent0047" data-link-type="extension" data-source-line="36" id="lnk48"><path d="M1799.0364,96.8169 C1837.9364,114.4369 1874.63,131.06 1913.49,148.67" fill="none" id="EstatMetodeIteratiu-backto-EstatMetodeIteratiuGradient" style="stroke:#181818;stroke-width:1;"/><polygon fill="none" points="1782.64,89.39,1796.5608,102.2823,1801.512,91.3514,1782.64,89.39" style="stroke:#181818;stroke-width:1;"/></g><!--reverse link EstatMetodeIteratiuGradient to EstatMetodeIteratiuGradientConjugat--><g class="link" data-entity-1="ent0047" data-entity-2="ent0049" data-link-type="extension" data-source-line="37" id="lnk50"><path d="M1953.148,214.5365 C1947.978,232.2165 1945.95,239.13 1940.79,256.79" fill="none" id="EstatMetodeIteratiuGradient-backto-EstatMetodeIteratiuGradientConjugat" style="stroke:#181818;stroke-width:1;"/><polygon fill="none" points="1958.2,197.26,1947.3892,212.8525,1958.9068,216.2205,1958.2,197.26" style="stroke:#181818;stroke-width:1;"/></g><?plantuml-src dPDFKy8m4CNl_HIzULBkZkEb8Eh0Z82SdILPOJNjTfAjWpfyTqFvrsf3mPuopNk_PDzcBnOYkRlkT783cHIfkLASTfG1vourmTn26aKPfEXoK1YdAApHlMYog0HT_1t5_eEP4mjAuj8Ot_abMv8lKCHDWc69wMuWCIu5Cts2hIOOJFV66ku4OyAfhqQW-UJ1j4GqEljGE4UGXQrXxnDOHM12pZswbT1pSmESWRIZAgmkio4HWo7NBfMA9x5SIAi-UE7kuFb8ZxP7BDYWU_yC25kxEHeVUJyR_JqN3lqn6cspTZIkgFl-oK_K8YKjoVe7gVDCGzRqIYhK7MzRDKqK2LeGAW8ZjKdbOIkwEUJQSm9Itxrj1tJH-JdFsLT7_2lwdQPItYCedb50LsDLJ1EUMHoZWUMwxacX5FeqF-1CJFcO9qWQ3wCJGaVrbcZ2J4BLLQGD6HxVROxlRCoVA_wRa73sLipXA6cdZLO_?></g></svg>